<svg width="156" height="30" viewBox="0 0 156 30" xmlns="http://www.w3.org/2000/svg" xmlns:xlink="http://www.w3.org/1999/xlink"><title>b1</title><desc>Created using Figma</desc><use xlink:href="#a" fill="#888"/><use xlink:href="#b" transform="translate(19.231 11.346)" fill="#888"/><use xlink:href="#c" transform="translate(33.413 11.731)" fill="#888"/><use xlink:href="#d" transform="translate(50.144 11.538)" fill="#888"/><use xlink:href="#e" transform="translate(71.635)" fill="#888"/><use xlink:href="#f" transform="translate(96.154 12.019)" fill="#888"/><use xlink:href="#g" transform="translate(112.548 2.019)" fill="#888"/><use xlink:href="#h" transform="translate(121.971 11.538)" fill="#888"/><use xlink:href="#i" transform="translate(143.702 11.779)" fill="#888"/><defs><path id="a" d="M5.096.192v14.423c1.827-1.442 3.558-2.644 6.01-2.644.817 0 2.452.193 4.086 1.635 2.404 2.163 2.596 5.192 2.596 6.202 0 1.682-.48 3.029-.673 3.605-1.442 3.75-4.663 6.347-8.798 6.347-1.73 0-3.365-.577-5-1.154l-1.394.72c-.24-.095-.288-.143-.288-.336.096-1.442.288-2.884.288-4.326.096-1.01.096-2.02.096-2.981V5.433C2.02 3.462 1.78 3.173 0 2.5v-.48C2.067 1.345 2.933 1.01 4.808 0l.288.192zm-.192 23.75C5 25 5.048 26.01 5.577 26.875c.433.625 1.49 1.827 3.461 1.827.433 0 1.25-.048 2.26-.577 2.308-1.202 3.317-3.75 3.366-6.25 0-1.01-.193-4.52-2.837-6.635-.433-.288-1.683-1.25-3.317-1.25-1.298 0-2.404.77-3.606 1.635v8.317z"/><path id="b" d="M2.98 5.385C2.934 4.23 2.886 3.75.963 3.125V2.5C3.173 1.587 3.75 1.25 5.769 0l.289.24v4.087c.432-.577.865-1.106 1.298-1.635.24-.288 1.827-2.211 3.75-2.163.48 0 2.211.192 2.211 1.875-.048 1.106-.865 2.02-1.923 2.02-.577 0-.673-.29-1.154-.578-.192-.096-.625-.336-1.202-.336-.528 0-1.682.192-2.451 1.442-.625.961-.625 1.971-.625 3.029v6.25c0 .192-.145 2.019 1.153 2.452.481.192 1.587.24 2.981.288v1.01H0v-.962c2.308-.096 2.933-.432 2.98-2.836V5.385z"/><path id="c" d="M10 8.125V5.288c0-.432 0-.673-.096-1.057-.385-1.443-1.779-2.308-3.27-2.308-.528 0-2.403.192-2.98 1.875-.289 1.01-.096 1.683-1.058 2.115-.288.097-.865.289-1.154.289-.48 0-.673-.289-.673-.817 0-.385.193-1.25.866-2.02C2.26 2.692 3.22 2.163 5 1.202l1.635-.77C6.875.338 7.692 0 8.462 0c.769 0 2.26.433 2.98.865 1.587.914 1.587 2.597 1.635 3.173v9.856c0 .53 0 .721.096.962.096.433.385 1.154 1.587 1.154.336 0 .673-.097 1.298-.289l.096.48c-1.01.77-2.308 1.828-3.702 1.828a2.245 2.245 0 0 1-1.298-.433c-.865-.625-1.058-1.394-1.25-2.404-.144.144-.337.289-.48.481-.626.48-2.741 2.356-5.482 2.356a4.99 4.99 0 0 1-1.586-.289C1.01 17.212 0 15.673 0 14.23c0-.672.288-1.345.673-1.922.865-1.154 2.212-1.635 5-2.789L10 8.125zm0 .913l-2.837.866c-1.298.48-2.596.865-3.461 1.971-.192.192-.673.77-.673 1.586 0 .145.048.578.24 1.01.481 1.106 1.683 1.779 2.885 1.779.192 0 .625 0 1.058-.192.72-.289 1.49-.962 2.788-2.068V9.038z"/><path id="d" d="M2.644 5c-.24-1.683-.529-1.971-2.067-2.596v-.577C3.317.962 3.894.625 5.337 0l.384.144v2.981C7.741 1.827 10.096.337 12.692.337c1.298 0 2.597.432 3.366 1.586.769 1.106.817 2.404.865 3.702v9.711c.096 1.443.289 1.347 2.452 1.587v.866h-8.173v-.914c2.644-.24 2.404-.096 2.596-2.74V6.346c0-.24-.048-1.202-.288-1.875-.481-1.346-1.78-2.115-3.221-2.115-1.78 0-3.222.961-4.616 1.827v10.48c0 1.202.096 1.635.673 1.875.337.145 1.635.289 2.067.337v.865H0v-.913l1.442-.144c.962-.145 1.106-.481 1.154-2.116L2.644 5z"/><path id="e" d="M13.077 5.048c0-.096.048-.48-.096-.817-.289-1.106-1.539-1.49-2.452-1.78v-.624C12.98 1.25 13.606 1.057 15.96 0l.24.288v26.154c.097 1.298.337 1.298 1.059 1.298h1.586v.77c-1.01.192-2.02.432-2.98.673l-2.452.72-.289-.191v-2.693c-.385.337-.77.673-1.154.962-.673.48-2.404 1.827-4.904 1.827-1.682 0-3.029-.673-3.51-1.01C.24 26.778 0 22.885 0 21.778c0-1.49.288-2.884.913-4.182 1.539-3.27 5.097-5.625 8.799-5.625 1.394 0 2.067.24 3.317.673V5.048h.048zm.144 10.913a4.158 4.158 0 0 0-.48-.769c-.385-.72-1.299-2.163-3.654-2.163-.481.048-1.443.096-2.452.673-1.298.721-3.366 2.644-3.366 6.442 0 3.654 1.827 5.625 3.03 6.443 1.297.913 2.403 1.057 3.028 1.057 1.298 0 2.98-.577 3.558-1.875.192-.336.288-.72.288-1.586V15.96h.048z"/><path id="f" d="M3.125 6.683v1.25c.144 1.682.288 2.5.529 3.269.336 1.058 1.683 4.423 5.433 4.423 2.163 0 3.557-1.154 5.096-2.5l.384.673c-1.25 1.442-1.827 2.02-2.596 2.644-.673.481-2.211 1.539-4.615 1.539-2.885 0-4.568-1.49-5.24-2.26C.143 13.51 0 9.951 0 9.28c0-1.298.337-6.01 4.327-8.221C6.057.144 7.692 0 8.413 0c.625 0 2.308.048 3.75 1.154a5.8 5.8 0 0 1 2.212 3.75c.048.144.096.77.096.961 0 .048 0 .625-.336.77-.145.096-.433.096-.481.096L3.125 6.683zm6.923-1.106c.866-.096 1.25-.24 1.25-1.106 0-1.875-1.49-3.51-3.413-3.51-.481 0-1.25.097-2.164.674-1.538.913-2.02 2.355-2.548 3.942h6.875z"/><path id="g" d="M2.788 14.615c-.096-.769-.144-1.394-.673-1.875-.288-.288-.673-.529-1.442-.961v-.529c2.356-.673 2.789-.865 4.904-1.875l.288.24V24.28c0 .192-.192 1.538.673 1.923.289.096 1.01.192 1.972.288v.866H0l.048-.866c1.01-.096 1.827-.096 2.115-.288.577-.289.625-1.154.625-1.73v-9.857zM4.471 0c1.01 0 1.827.817 1.827 1.827 0 1.058-.961 1.779-1.971 1.779-.337 0-.577-.048-.865-.24-.625-.385-.962-1.25-.77-2.02C2.885.481 3.558 0 4.472 0z"/><path id="h" d="M2.644 5c-.24-1.683-.529-1.971-2.067-2.596v-.577C3.317.962 3.894.625 5.337 0l.384.144v2.981C7.741 1.827 10.096.337 12.692.337c1.298 0 2.597.432 3.366 1.586.769 1.106.817 2.404.865 3.702v9.711c.096 1.443.289 1.347 2.452 1.587v.866h-8.173v-.914c2.644-.24 2.404-.096 2.596-2.74V6.346c0-.24-.048-1.202-.288-1.875-.481-1.346-1.78-2.115-3.221-2.115-1.78 0-3.222.961-4.616 1.827v10.48c0 1.202.096 1.635.673 1.875.337.145 1.635.289 2.067.337v.865H0v-.913l1.442-.144c.962-.145 1.106-.481 1.154-2.116V5h.048z"/><path id="i" d="M10.865 5l-.673-.048c-.096-.337-.192-.721-.288-1.058A4.382 4.382 0 0 0 8.029 1.49c-.866-.48-1.635-.48-2.02-.48-.144 0-.672 0-1.153.192-1.058.385-1.875 1.442-1.875 2.5.048 1.202.865 2.02 1.202 2.26.961.913 2.019 1.25 3.173 1.73.673.289 1.202.53 1.827.914.72.48 2.548 1.779 2.548 4.327 0 .384-.048 1.202-.481 2.067-.625 1.202-2.5 3.125-6.058 3.125-2.019 0-3.173-.48-4.807-1.442L0 12.26l.673-.145c.48 1.683 1.058 3.414 2.74 4.327a4.586 4.586 0 0 0 2.212.577c1.635 0 2.452-.913 2.788-1.49.097-.193.385-.77.385-1.49a4.71 4.71 0 0 0-.192-1.106c-.481-1.25-1.635-1.78-2.789-2.308-.384-.192-1.442-.577-2.452-1.25C2.692 8.99.481 7.596.481 5c0-1.394.625-2.788 1.586-3.606C3.654.048 6.01 0 6.587 0c1.25 0 2.163.192 4.374.913V5h-.096z"/></defs></svg>