<svg width="225" height="30" viewBox="0 0 225 30" xmlns="http://www.w3.org/2000/svg" xmlns:xlink="http://www.w3.org/1999/xlink"><title>correctiv</title><desc>Created using Figma</desc><use xlink:href="#a" fill="#BDBDBD"/><defs><path id="a" d="M186.522 29.51h5.978v-6.032h-5.978v6.033zM6.032 15c0-5.815 4.077-9.837 9.294-9.837 2.283 0 4.457.38 6.033 1.141l1.847-4.728C20.706.435 18.098 0 15.217 0 7.065 0 0 5.978 0 15c0 9.294 7.228 15 15.543 15 2.827 0 5.544-.435 7.88-1.63l-1.847-4.783c-1.685.87-3.641 1.25-5.924 1.25-4.891 0-9.62-3.424-9.62-9.837zm45.055 0c0 5.815-4.24 9.837-9.457 9.837-5.271 0-9.456-4.022-9.456-9.837 0-5.815 4.239-9.837 9.456-9.837 5.218 0 9.457 4.022 9.457 9.837zm6.033 0c0-8.75-6.848-15-15.49-15-8.695 0-15.489 6.196-15.489 15s6.848 15 15.49 15c8.695 0 15.489-6.196 15.489-15zm13.152 1.087h-3.044V5.489h3.913c3.261 0 5.49 1.848 5.49 5.272 0 3.533-2.229 5.326-6.36 5.326zM83.26 29.511l-9.185-9.022c5.218-1.141 8.587-4.783 8.587-9.783C82.663 5.054 78.37.543 71.25.543h-9.946v28.968h5.979v-8.75l8.478 8.75h7.5zm13.152-13.424H93.37V5.489h3.913c3.26 0 5.489 1.848 5.489 5.272 0 3.533-2.229 5.326-6.359 5.326zm13.044 13.424l-9.185-9.022c5.217-1.141 8.587-4.783 8.587-9.783 0-5.652-4.294-10.163-11.413-10.163H87.5v28.968h5.978v-8.75l8.479 8.75h7.5zm4.13 0h18.152v-5.055H119.51v-6.032h9.946V13.37h-9.946V5.598h11.848V.543h-17.772v28.968zM140.652 15c0-5.815 4.076-9.837 9.294-9.837 2.282 0 4.456.38 6.032 1.141l1.848-4.728C155.326.435 152.717 0 149.837 0c-8.152 0-15.217 5.978-15.217 15 0 9.294 7.228 15 15.543 15 2.826 0 5.544-.435 7.88-1.63l-1.793-4.783c-1.685.87-3.641 1.25-5.924 1.25-4.891 0-9.674-3.424-9.674-9.837zm33.805-9.402h7.717V.543h-21.413v5.055h7.717V29.51h5.979V5.598zM192.5.543h-5.978V19.13h5.978V.543zm32.12 0h-6.196l-7.881 20.544-7.88-20.544h-6.196l11.685 28.968h4.783L224.62.543z"/></defs></svg>