<svg width="233" height="30" viewBox="0 0 233 30" xmlns="http://www.w3.org/2000/svg" xmlns:xlink="http://www.w3.org/1999/xlink"><title>hessenschau</title><desc>Created using Figma</desc><use xlink:href="#a" transform="translate(63.624 8.698)" fill="#888"/><use xlink:href="#b" transform="translate(43.141 8.698)" fill="#888"/><use xlink:href="#c" transform="translate(22.165 8.697)" fill="#888"/><use xlink:href="#d" transform="translate(150.356 8.697)" fill="#888"/><use xlink:href="#e" transform="translate(84.846 8.697)" fill="#888"/><use xlink:href="#f" transform="translate(192.881 8.697)" fill="#888"/><use xlink:href="#g" transform="translate(128.929 8.698)" fill="#888"/><use xlink:href="#h" fill="#888"/><use xlink:href="#i" transform="translate(171.207)" fill="#888"/><use xlink:href="#j" transform="translate(215.702 8.93)" fill="#888"/><use xlink:href="#k" transform="translate(107.626 8.679)" fill="#888"/><defs><path id="a" d="M11.206 8.824L7.92 8.537c-2.216-.206-2.873-1.15-2.873-2.382 0-1.559 1.272-2.667 3.777-2.667 1.97 0 3.817.41 5.13 1.519l2.627-2.668C14.653.655 11.985 0 8.866 0c-4.351 0-7.84 2.297-7.84 6.362 0 3.652 2.257 5.419 6.157 5.746l3.325.287c2.011.164 2.79 1.067 2.79 2.462 0 1.97-2.01 2.875-4.557 2.875-2.052 0-4.308-.453-5.992-2.175L0 18.306c2.461 2.422 5.335 2.996 8.741 2.996 4.968 0 8.662-2.257 8.662-6.608 0-3.694-2.298-5.543-6.197-5.87"/><path id="b" d="M11.206 8.824l-3.284-.287C5.706 8.33 5.05 7.387 5.05 6.155c0-1.559 1.272-2.667 3.777-2.667 1.97 0 3.817.41 5.13 1.519l2.627-2.668C14.655.655 11.987 0 8.866 0c-4.35 0-7.84 2.297-7.84 6.362 0 3.652 2.258 5.419 6.158 5.746l3.325.287c2.011.164 2.79 1.067 2.79 2.462 0 1.97-2.01 2.875-4.555 2.875-2.052 0-4.311-.453-5.994-2.175L0 18.306c2.464 2.422 5.336 2.996 8.744 2.996 4.966 0 8.66-2.257 8.66-6.608 0-3.694-2.299-5.543-6.198-5.87"/><path id="c" d="M8.826 0C3.49 0 0 3.9 0 10.632c0 7.923 4.146 10.671 9.36 10.671 3.654 0 5.664-1.107 7.8-3.24l-2.669-2.505c-1.477 1.477-2.71 2.134-5.05 2.134-3.407 0-5.295-2.259-5.295-5.829h13.505v-1.847C17.651 4.105 14.409 0 8.826 0zm-4.68 8.948c.042-1.272.125-1.888.534-2.832.658-1.559 2.176-2.626 4.146-2.626 1.97 0 3.448 1.067 4.105 2.626.41.944.533 1.56.574 2.832H4.146"/><path id="d" d="M9.277 3.736c1.641 0 2.668.534 3.982 1.97l2.873-2.791C14.162.82 12.15 0 9.277 0 4.598 0 0 2.833 0 10.632c0 7.798 4.598 10.671 9.277 10.671 2.873 0 4.884-.861 6.856-2.955L13.258 15.6c-1.314 1.436-2.34 1.97-3.982 1.97-1.6 0-2.956-.656-3.859-1.848-.904-1.15-1.23-2.668-1.23-5.09 0-2.42.326-3.9 1.23-5.048.903-1.19 2.259-1.847 3.859-1.847z"/><path id="e" d="M8.825 0C3.488 0 0 3.9 0 10.632c0 7.923 4.146 10.671 9.359 10.671 3.652 0 5.664-1.107 7.798-3.24l-2.667-2.505c-1.48 1.477-2.71 2.134-5.05 2.134-3.406 0-5.294-2.259-5.294-5.829h13.505v-1.847C17.65 4.105 14.407 0 8.825 0zM4.146 8.948c.04-1.272.122-1.888.533-2.832.657-1.559 2.175-2.626 4.146-2.626 1.97 0 3.448 1.067 4.104 2.626.412.944.534 1.56.575 2.832H4.146"/><path id="f" d="M8.292 0C4.844 0 2.792.699.82 2.997l2.751 2.586C4.721 4.105 5.83 3.57 8.128 3.57c3.241 0 4.556 1.273 4.556 3.9v1.477h-5.5C2.421 8.948 0 11.453 0 14.941c0 1.765.574 3.367 1.641 4.474 1.273 1.271 2.997 1.888 5.584 1.888 2.585 0 4.022-.617 5.54-2.132v1.887h4.106V7.143C16.87 2.423 13.997 0 8.29 0zm4.393 13.545c0 1.478-.289 2.464-.904 3.081-1.108 1.066-2.299 1.188-3.9 1.188-2.627 0-3.817-1.066-3.817-2.955 0-1.888 1.272-2.995 3.735-2.995h4.885v1.681"/><path id="g" d="M11.207 8.824l-3.284-.287C5.707 8.33 5.05 7.387 5.05 6.155c0-1.559 1.273-2.667 3.776-2.667 1.969 0 3.818.41 5.13 1.519l2.628-2.668C14.654.655 11.986 0 8.867 0c-4.35 0-7.84 2.297-7.84 6.362 0 3.652 2.257 5.419 6.157 5.746l3.325.287c2.012.164 2.791 1.067 2.791 2.462 0 1.97-2.011 2.875-4.556 2.875-2.053 0-4.31-.453-5.994-2.175L0 18.306c2.463 2.422 5.338 2.996 8.744 2.996 4.967 0 8.66-2.257 8.66-6.608 0-3.694-2.298-5.543-6.197-5.87"/><path id="h" d="M4.378 0v9.387s3.005-.614 5.647-.586c4.39.041 6.59 2.36 6.745 5.381.038.769.031 1.194.031 2.02v13.552H12.17V15.943c0-1.53.1-3.425-3.399-3.41-2.49.01-4.252.48-4.252.48v16.741H0V.282L4.378 0"/><path id="i" d="M4.378 0v9.387s3.006-.614 5.648-.586c4.39.041 6.588 2.36 6.744 5.381.04.769.031 1.194.031 2.02v13.552H12.17V15.943c0-1.53.1-3.425-3.4-3.41-2.491.01-4.249.48-4.249.48v16.741H0V.282L4.378 0"/><path id="j" d="M16.88 0v13.281c0 2.335.62 7.787-8.436 7.787-9.058 0-8.435-5.452-8.435-7.787V0h4.188v12.664c0 3.169 1.37 4.588 4.247 4.631 3.114-.087 4.248-1.462 4.248-4.63V0h4.188"/><path id="k" d="M.009 21.075V7.788C.009 5.453-.612 0 8.449 0c9.06 0 8.438 5.453 8.438 7.788v13.287h-4.19V8.406c0-3.17-1.373-4.59-4.248-4.632-3.117.085-4.251 1.461-4.251 4.632v12.67H.009z"/></defs></svg>