<svg width="201" height="30" viewBox="0 0 201 30" xmlns="http://www.w3.org/2000/svg" xmlns:xlink="http://www.w3.org/1999/xlink"><title>nzz</title><desc>Created using Figma</desc><use xlink:href="#a" fill="#BDBDBD"/><defs><path id="a" d="M13.585.038c1.004.133 1.9 1.233 1.9 1.996v5.16c0 .9 1.067 1.2 1.5 1.397-1.366.733-1.933 1.633-1.933 2.63v6.857c0 1.233.5 1.633 1.134 1.766.833.134 1.166-1.363 1.433-1.13.233.234-.633 1.23-1.333 2.03-.767.867-1.267 2.164-1.3 2.134 0 0-1.204-.8-1.804-1.564-.533-.7-1-1.63-1-2.796V12.56c0-2.263 2.504-3.463 3.204-3.73-.567-.067-2.87-.397-2.87-2.264v-4.06c0-.532-.134-1.331-.7-1.331-1.034-.033-1.967 1.498-1.967 3.161v11.617c0 .067-.234 1.3-2.634 3.664-1.233 1.23-1.966 3.427-2.166 3.627-.167-.367-1.004-3.097-2.973-2.83-1.967.233-1.834 2.53-2 2.563-.134.033 0-.734-.074-1.597-.06-1.133 1.307-2.997 2.774-3.363 2.24-.564 3.667 1.633 3.834 1.633 0 0 .366-.267.366-.5V2.011c0-.899-.533-1.465-1.2-1.465-1.47-.033-2.003.731-1.77 2 .234 1.467 2.534 4.134 2.2 6.357-.166 1.167-1.133 2.33-2.57 2.297C1.8 11.133.833 8.107 1.133 7.973c.2-.1.3 1.534 1.333 1.534.467 0 .734-.467.903-.934.267-.73-1.635-2.33-1.668-4.127C1.634 2.183 2.8.653 4.74.22c1.766-.4 3.9.7 4.9 2.7 0 0 1.4-3.197 3.933-2.864l.011-.018zM35.073 6.76c.8 1.667 1.666 2.5 2.233 2.864-.7.3-.967.8-.967 1.363v8.09c0 .467.334.9.567.833 1.067-.23 1.133-1.496 1.433-1.13.134.134-.466 1-.733 1.23-.6.5-2 1.934-2.5 2.897-.7-1.197-1.467-2.03-1.5-2.43 0-.067.033-.433 0-1.597 0 0-3.713 2.03-4.047 4.027-.333-1.463-1.1-2.563-2.267-3.097.334-.33 1-.83 1-1.563v-7.19c0-.73-.3-1.097-.833-1.23-.533-.133-1 .897-1.267.633-.133-.166 1.3-1.433 2.2-2.496.567-.7.934-1.2.934-1.2 1.033.366 1.767 1.366 1.767 2.196v9.154c0 .566.1 1.533.9 1.4.266-.034.636-.267 1.613-.967v-7.023c0-1.164-.133-1.33-.91-1.93.91-.5 1.61-1.197 2.377-2.83V6.76zM62.473 0c2.9.067 5.534 1.767 5.767 4.9.1 1.73-.767 3.097-1.633 3.994-1.1 1.1-1.867 1.366-3.334 1.766 2.334.1 5.234 2.434 4.867 5.79-.5 4.894-5.6 8.054-8.767 6.157-1.767-1.03-1.633-3.693-3.566-3.86-1.834-.167-2.934 1.33-2.634 2.834.3 1.433 1.233 2.366 3.067 1.633 0 0 .267-.167.333 0 .067.133-.2.267-.2.267-1.967.733-2.967-.1-3.4-1.367-.8-2.264 1.367-4.624 4.267-5.024 2.967-.4 3.767 3.467 4.533 4.567.4.6.934.767 1.334.733 1.133-.066 1.5-1.096 1.5-1.73v-7.523c0-1.13-.867-2.23-1.9-2.23-1.967.033-2.4 1.9-2.634 1.667-.233-.234.767-1.897 2.567-1.93-1.567.033-2.867-1.567-2.867-2.63 0-1.267.734-1.667 1.5-1.8.967-.13 1.8.533 1.834 1.533 0 1.397-1.334 1.53-1.767 1.533 0 .834 1.067 1.2 1.633 1.067.6-.133 1.634-.567 1.634-1.963V3.19c0-1.2-.8-2.663-2.9-2.663-2.234-.034-3.8 1.464-3.867 3.366 0 .067 0 .764-.167.764-.2-.034-.2-.734-.2-.764.067-2.433 1.934-3.906 5-3.866V0zM77.24 6.627c.8 1.633 1.634 2.467 2.234 2.83-.7.333-.967.833-.967 1.363v8.09c0 .467.333.9.567.867 1.066-.233 1.133-1.5 1.433-1.133.133.133-.467 1-.733 1.23-.6.5-2 1.9-2.5 2.863-.7-1.196-1.5-1.996-1.5-2.43 0-.033.033-.433 0-1.563 0 0-3.734 2.03-4.067 3.993-.333-1.43-1.1-2.563-2.267-3.093.333-.3 1-.8 1-1.534v-7.223c0-.697-.3-1.063-.833-1.197-.534-.133-1 .9-1.267.6-.133-.133 1.3-1.4 2.2-2.496a23.09 23.09 0 0 0 .933-1.167c1.034.333 1.767 1.367 1.767 2.163v9.154c0 .6.1 1.533.9 1.433.234-.033.633-.267 1.667-.967v-6.956c0-1.164-.167-1.397-.967-1.997.934-.5 1.634-1.23 2.4-2.83zM72.64.403c.734 0 1.4.633 1.367 1.398-.067 1.266-1.367 3.496-1.367 3.5 0-.034-1.333-2.3-1.333-3.497 0-.799.733-1.398 1.333-1.398V.403zm4.567-.034c.733 0 1.367.634 1.333 1.432-.033 1.233-1.366 3.463-1.366 3.463s-1.334-2.3-1.334-3.497c0-.765.767-1.398 1.367-1.398zm6.367 6.258c1.466.433 1.867 1.933 1.8 2.967.5-.4 1.467-1.397 2.133-2.097.5-.5.7-.867.7-.867l1.834 2.83-2.1 1.964c-.4-.367-1.467-1.997-1.667-2.164 0 0-.9.534-.9.834l.033 8.82c-.033.533.034.866.334.9.7 0 .933-1.297 1.166-1.03.067.1.034.466-.4.933-.633.73-1.833 1.697-2.567 3.06-.433-1.097-1.333-2.63-2.3-3.06.4-.267.867-.767.867-1.533v-7.92c0-.467-.467-.834-.767-.834-.366 0-.866.834-1.033.534-.133-.167.8-.8 1.667-1.797.966-1.134 1.166-1.567 1.2-1.534v-.006zm13.267 2.94L95.274 6.66c-1.2.967-.467.433-2.8 2.264-1.233.966-2.367 1.566-2.367 2.763v7.79c0 1.834 3.167 3.367 3.167 3.367.3-1.83.967-2.83 2.633-2.897 1.3-.033 2.134 1.067 2.4 2.867.467-1.863 1.434-2.53 2.134-3.127-.267-.233-.8-.4-.8-1.633v-7.387c0-.367 1.566-1.733 1.7-1.733.066 0 .666.5.666 1.3 0 0 0 11.88-.033 11.913-.2.967-.633 1.367-.533 1.467.133.133.433-.5 1.667-1.864 1.1-1.2 1.633-1.466 1.633-1.866V9.2c0-.963-1.1-2.363-1.5-2.563L99.641 10V4.707c0-1.264.9-3.894 1.866-4.697-1.8 0-3.033 2.867-3.466 3.897-.7-1.164-1.8-1.83-2.767-1.73 1.1.766 1.733 1.633 1.733 3.163v12.547c0 .8-.333 1.963-2.233 1.997-1.133.033-1.867-.864-1.867-1.93V9.567c0-.167.1-.8.5-.867.4-.066 1.367 2.134 1.567 2.33.967-.696 1.1-.863 1.867-1.463zm20.933-2.907c1.201.467 1.834 1.9 1.801 2.934.466-.4 1.433-1.397 2.1-2.097.5-.5.6-.8.633-.8l2.033 3.063-2.4 1.997c-.366-.467-1.433-2.197-1.666-2.363 0 0-.734.466-.734.766v8.72c-.033.534.3.867.6.834 1.134-.067 1.2-1.3 1.534-1.067.133.1-.2.733-.667 1.133-.7.63-2.167 1.63-2.9 2.994-.434-1.097-1.334-2.63-2.3-3.06.4-.267 1.066-.734 1.066-1.5V10.46c0-.466-.533-1.066-1.066-.966-.367.066-1 .933-1.167.6-.1-.267 1.033-.934 1.9-1.93 1-1.134 1.2-1.534 1.233-1.5V6.66zM138.542 0c2.966.033 5.6 1.7 5.8 4.833.1 1.73-.767 3.13-1.634 3.994-1.066 1.1-1.866 1.367-3.333 1.767 2.367.133 5.233 2.433 4.9 5.79-.533 4.893-5.633 8.053-8.833 6.157-1.734-.997-1.634-3.694-3.567-3.86-1.834-.134-2.934 1.363-2.634 2.866.3 1.433 1.234 2.334 3.1 1.633 0 0 .234-.166.3-.033.067.134-.2.3-.2.3-1.933.733-2.966-.133-3.4-1.396-.8-2.264 1.4-4.594 4.267-4.994 2.967-.4 3.767 3.434 4.534 4.567.433.6.966.767 1.366.733 1.134-.1 1.5-1.096 1.5-1.73v-7.523c0-1.13-.833-2.23-1.933-2.23-1.933.033-2.367 1.866-2.633 1.633-.234-.233.766-1.863 2.6-1.897-1.6 0-2.867-1.566-2.867-2.663 0-1.234.7-1.667 1.467-1.767.966-.163 1.866.533 1.866 1.534.034 1.396-1.333 1.496-1.8 1.5 0 .866 1.067 1.2 1.7 1.066.567-.1 1.6-.566 1.6-1.93V3.157c0-1.232-.8-2.663-2.933-2.696-2.233 0-3.8 1.464-3.867 3.366 0 .1.034.797-.166.764-.2-.034-.167-.73-.167-.764.033-2.397 1.9-3.896 4.967-3.8V0zm18.933 11.52v7.457c-.033.567.334.967.634.967.666 0 .833-1.197 1.1-.897.033.067 0 .433-.4.897-.634.767-2.234 1.7-2.934 3.197-.433-1.097-1.066-2.497-2-2.93.4-.267.967-.764.967-1.53v-7.957c0-.43-.267-.83-.6-.83-.367 0-.733.83-.933.633-.3-.233 1.333-1.433 2.3-2.43.366-.367.366-.367.9-1.034.233.567 1.1 2.2 2.066 2.797-.833.5-1.1.93-1.1 1.667v-.007zM156.509.703c.733 0 1.366.634 1.333 1.432-.033 1.232-1.367 3.493-1.367 3.5 0-.033-1.333-2.33-1.333-3.527 0-.765.767-1.398 1.367-1.398V.703zm7.533 2.564v5.724c0 .4 1.167.033 1.167.266v.267c0 .267-1.167-.033-1.2.233v9.187c0 .033-.133 1.067.6 1.1.667.033 1.033-1.33 1.233-1.163.267.166-.2.93-1.6 2.23-1.3 1.197-1.233 1.063-1.8 2.03-.433-.867-1.267-2.363-2.267-2.997.334-.167 1.067-.73 1.067-1.697v-8.62c0-.467-1.067.033-1-.333.033-.2-.033-.167 0-.2 1.6-.734 3.233-4.094 3.8-6.024v-.003zm16.734 3.793c.833.467 1.733 1.334 1.967 3.567 1.466-1.5 3.433-3.564 3.433-3.564.467 1.2 1.567 2.367 2.067 2.734 0 0-.667.9-.667 1.497v8.156c0 .434.3.867.633.834.567 0 .8-.864.9-.797.167.1.067.463-.333.897-.733.8-1.967 1.896-2.333 2.83-.567-.367-1.567-1.53-1.567-2.563v-9.487c0-.73-.3-1.197-.867-1.13-.4.066-1.366.93-1.366 1.53v7.123c0 1 .5 1.333.8 1.463-1.267 1.067-2.134 2.497-2.3 3.097-.5-1.563-1.667-2.73-2.101-3.13 0 0 .867-.797.867-1.697v-6.856c0-.667-.133-1.564-.8-1.564-.733 0-1.133 1.13-1.333.797-.167-.23 1.667-1.997 2.333-2.76.334-.367.267-.334.667-.967v-.01zm-7.167 11.84v-7.1c0-1.166-.133-1.333-.933-1.933.933-.5 1.633-1.2 2.4-2.834.8 1.667 1.633 2.5 2.2 2.867-.7.3-.934.8-.934 1.367l-.033 8.1c0 .467.367.9.567.833 1.1-.233 1.133-1.5 1.466-1.133.1.133-.466 1-.733 1.233-.6.5-2.033 1.9-2.5 2.867-.733-1.2-1.5-2-1.5-2.4 0-.066.033-.3 0-1.467 0 0-3.567 1.9-3.9 3.867-.333-1.433-1.1-2.533-2.267-3.067.334-.333 1.034-.833 1.034-1.566v-7.2c0-.734-.267-1.234-.834-1.367-.533-.133-1.033 1.033-1.3.733-.133-.133 1.3-1.4 2.2-2.5.567-.666.934-1.167.934-1.167 1.066.367 1.766 1.367 1.766 2.167v9.2c0 .567.1 1.534.934 1.4.233-.033.433-.2 1.433-.9zM44.739 6.76c.134.267.967 1.8 1.567 3 .467.834.8 1.467.734 1.497-.034.033-4.6 3.463-4.6 3.563v3.727c0 .867.5 1.5 1.166 1.567 1.167.133 1.3-1.564 1.6-1.264.267.234-.633 1.53-1.433 2.197s-1.634 1.863-1.634 1.863-2.533-1.33-2.533-3.326v-7.19c0-1.034.167-1.897 1.5-2.864 1.533-1.033 3.634-2.763 3.634-2.763V6.76zm-2.3 2.23c.034.434 0 5.4 0 5.4.434-.266 1.767-1.4 2.1-1.63 0 0-.666-1.333-1.266-2.43-.467-.9-.867-1.666-.834-1.333V8.99zM23.593 6.76c.134.3.934 1.834 1.567 3.034.434.833.767 1.466.7 1.496-.033 0-4.57 3.464-4.57 3.564v3.726c0 .834.333 1.334 1 1.4 1.067.134 1.303-1.496 1.637-1.196.266.2-.734 1.43-1.57 2.097-.767.666-1.467 1.996-1.467 1.996s-2.433-1.263-2.433-3.26v-7.19c0-1.033.166-1.93 1.5-2.863 1.533-1.034 3.636-2.797 3.636-2.797V6.76zM21.29 9.024c.033.433 0 5.4 0 5.4.433-.267 1.767-1.4 2.103-1.664 0 0-.67-1.3-1.27-2.43-.466-.9-.866-1.666-.833-1.3v-.006zm90.685-2.364c.134.3.934 1.834 1.567 3.034.4.833.767 1.466.667 1.496-.034 0-4.534 3.464-4.534 3.564v3.726c0 .834.467 1.5 1.134 1.567 1.166.1 1.3-1.563 1.633-1.263.233.2-.667 1.53-1.467 2.197-.766.666-1.633 1.863-1.633 1.863s-2.5-1.33-2.5-3.327v-7.19c0-1.033.133-1.93 1.5-2.863 1.5-1.064 3.633-2.797 3.633-2.797V6.66zm-2.3 2.264v5.36c.434-.234 1.767-1.364 2.1-1.63 0 0-.7-1.3-1.266-2.43-.467-.9-.867-1.667-.834-1.3zM195.71 7.06c1.233 1.734 3.1 2.934 3.1 2.93-.267.467-.767.567-.767 2.097v7.423c.767 1.067 2.167 3.034 1.933 5.224-.333 3.297-3.466 5.393-6.5 5.26-2.967-.1-4.133-2.53-3.833-4.227.233-1.166 1.2-1.563 1.866-1.4.6.133 1.134.8.967 1.567-.133.797-1.133 1.297-1.833.897-.2.033-.4.633-.234.933.634 1.567 2.167 1.733 3.3 1.7 1.634-.067 3.434-1.497 3.701-3.593.4-2.83-2-3.464-2.1-5.994l-3.134 3.33c-.567-.166-2.167-1.797-2.2-2.93-.033-.4 0-3.56 0-7.487 0-1.2.533-1.7 2.333-2.996 2.101-1.53 2.334-1.564 3.401-2.73V7.06zm-1.934 2.264c-1.033.333-1.067 1.066-1.067 1.066v8.654c0 .066.5 1.366 1.234 1.5.466.1 1.333-.997 1.333-1.097v-8.953c-.666-.6-.867-.734-1.5-1.167v-.003zM150.775 7.06c.134.3.934 1.834 1.567 3.034.4.833.767 1.466.667 1.5 0 0-4.534 3.463-4.534 3.563v3.727c0 .866.5 1.5 1.134 1.566 1.166.1 1.3-1.563 1.633-1.263.267.2-.667 1.53-1.467 2.197-.766.666-1.6 1.863-1.6 1.863s-2.533-1.33-2.533-3.33V12.73c0-1.033.166-1.9 1.5-2.863 1.5-1.067 3.633-2.797 3.633-2.797v-.01zm-2.3 2.264v5.393c.434-.267 1.767-1.4 2.1-1.667 0 0-.7-1.296-1.266-2.426-.467-.9-.867-1.667-.834-1.3z"/></defs></svg>