<svg width="201" height="30" viewBox="0 0 201 30" version="1.1" xmlns="http://www.w3.org/2000/svg" xmlns:xlink="http://www.w3.org/1999/xlink">
<title>nzz</title>
<desc>Created using Figma</desc>
<g id="Canvas" transform="translate(527 333)">
<g id="nzz">
<g id="Vector">
<use xlink:href="#path0_fill" transform="translate(-527 -333)" fill="#BDBDBD"/>
</g>
</g>
</g>
<defs>
<path id="path0_fill" d="M 13.5855 0.0380008C 14.5889 0.171337 15.4856 1.27136 15.4856 2.03404L 15.4856 7.19416C 15.4856 8.09418 16.5523 8.39418 16.9856 8.59086C 15.6189 9.3242 15.0522 10.2242 15.0522 11.2209L 15.0522 18.0777C 15.0522 19.3111 15.5522 19.7111 16.1856 19.8444C 17.0189 19.9778 17.3523 18.4811 17.619 18.7144C 17.8523 18.9477 16.9856 19.9444 16.2856 20.7445C 15.5189 21.6111 15.0189 22.9078 14.9856 22.8778C 14.9856 22.8778 13.7822 22.0778 13.1822 21.3145C 12.6488 20.6145 12.1822 19.6844 12.1822 18.5177L 12.1822 12.5609C 12.1822 10.2976 14.6856 9.09753 15.3856 8.83086C 14.8189 8.76419 12.5155 8.43419 12.5155 6.56748L 12.5155 2.50739C 12.5155 1.97471 12.3822 1.17603 11.8155 1.17603C 10.7821 1.14269 9.84879 2.67373 9.84879 4.33743L 9.84879 15.9544C 9.84879 16.021 9.61545 17.2544 7.2154 19.6178C 5.98204 20.8478 5.24869 23.0445 5.04868 23.2445C 4.88201 22.8778 4.04533 20.1478 2.07595 20.4144C 0.108574 20.6478 0.24191 22.9445 0.07524 22.9778C -0.0580962 23.0112 0.07524 22.2445 0.00190508 21.3811C -0.0580962 20.2478 1.3086 18.3844 2.7763 18.0177C 5.01535 17.4544 6.44305 19.6511 6.60972 19.6511C 6.60972 19.6511 6.97639 19.3844 6.97639 19.1511L 6.97639 2.01071C 6.97639 1.11202 6.44305 0.546345 5.77637 0.546345C 4.30633 0.513011 3.77299 1.27736 4.00633 2.54639C 4.23966 4.01309 6.53972 6.67981 6.20637 8.9032C 6.0397 10.0699 5.07302 11.2332 3.63632 11.1999C 1.80028 11.1332 0.832923 8.10651 1.13293 7.97318C 1.33293 7.87317 1.43294 9.50654 2.46629 9.50654C 2.93297 9.50654 3.19964 9.03987 3.36898 8.57319C 3.63565 7.84317 1.73428 6.24314 1.70094 4.44643C 1.63427 2.18305 2.80097 0.653014 4.74034 0.219671C 6.50705 -0.180337 8.64043 0.919687 9.64045 2.91973C 9.64045 2.91973 11.0405 -0.277006 13.5739 0.0563346L 13.5855 0.0380008ZM 35.0727 6.76015C 35.8727 8.42685 36.7394 9.2602 37.3061 9.62354C 36.606 9.92355 36.3394 10.4236 36.3394 10.9869L 36.3394 19.0771C 36.3394 19.5438 36.6727 19.9771 36.906 19.9104C 37.9727 19.6804 38.0394 18.4137 38.3394 18.7804C 38.4728 18.9137 37.8727 19.7804 37.6061 20.0104C 37.0061 20.5104 35.606 21.9438 35.106 22.9072C 34.406 21.7105 33.6393 20.8771 33.606 20.4771C 33.606 20.4104 33.6393 20.0438 33.606 18.8804C 33.606 18.8804 29.8926 20.9105 29.5592 22.9072C 29.2259 21.4438 28.4592 20.3438 27.2925 19.8104C 27.6258 19.4804 28.2925 18.9804 28.2925 18.2471L 28.2925 11.0569C 28.2925 10.3269 27.9925 9.96022 27.4592 9.82688C 26.9258 9.69355 26.4592 10.7236 26.1925 10.4602C 26.0591 10.2936 27.4925 9.02686 28.3925 7.96351C 28.9592 7.26349 29.3259 6.76348 29.3259 6.76348C 30.3592 7.13016 31.0926 8.13018 31.0926 8.9602L 31.0926 18.1137C 31.0926 18.6804 31.1926 19.6471 31.9926 19.5138C 32.2593 19.4804 32.6293 19.2471 33.606 18.5471L 33.606 11.5236C 33.606 10.3602 33.4726 10.1936 32.696 9.59354C 33.606 9.09353 34.306 8.39685 35.0727 6.76348L 35.0727 6.76015ZM 62.4733 0C 65.3733 0.0666681 68.0067 1.76671 68.2401 4.90011C 68.3401 6.63015 67.4734 7.99684 66.6067 8.89353C 65.5067 9.99355 64.74 10.2602 63.2733 10.6602C 65.6067 10.7602 68.5067 13.0936 68.1401 16.4504C 67.6401 21.3438 62.5399 24.5039 59.3732 22.6072C 57.6065 21.5771 57.7398 18.9137 55.8065 18.7471C 53.9731 18.5804 52.8731 20.0771 53.1731 21.5805C 53.4731 23.0138 54.4064 23.9472 56.2398 23.2138C 56.2398 23.2138 56.5065 23.0472 56.5731 23.2138C 56.6398 23.3472 56.3731 23.4805 56.3731 23.4805C 54.4064 24.2139 53.4064 23.3805 52.9731 22.1138C 52.173 19.8504 54.3398 17.4904 57.2398 17.0904C 60.2066 16.6904 61.0066 20.5571 61.7733 21.6571C 62.1733 22.2572 62.7066 22.4238 63.1066 22.3905C 64.24 22.3238 64.6067 21.2938 64.6067 20.6605L 64.6067 13.137C 64.6067 12.0069 63.74 10.9069 62.7066 10.9069C 60.7399 10.9402 60.3066 12.8069 60.0732 12.5736C 59.8399 12.3403 60.8399 10.6769 62.6399 10.6436C 61.0732 10.6769 59.7732 9.07687 59.7732 8.01351C 59.7732 6.74682 60.5066 6.34681 61.2733 6.21347C 62.2399 6.08347 63.0733 6.74681 63.1066 7.74684C 63.1066 9.14353 61.7733 9.27687 61.3399 9.2802C 61.3399 10.1136 62.4066 10.4802 62.9733 10.3469C 63.5733 10.2136 64.6067 9.78021 64.6067 8.38352L 64.6067 3.19007C 64.6067 1.99071 63.8066 0.526678 61.7066 0.526678C 59.4732 0.493344 57.9065 1.99071 57.8398 3.89342C 57.8398 3.96009 57.8398 4.65677 57.6732 4.65677C 57.4732 4.62343 57.4732 3.92342 57.4732 3.89342C 57.5398 1.46003 59.4065 -0.0133336 62.4733 0.0266673L 62.4733 0ZM 77.2403 6.62681C 78.0403 8.26018 78.8736 9.09353 79.4736 9.45687C 78.7736 9.79022 78.507 10.2902 78.507 10.8202L 78.507 18.9104C 78.507 19.3771 78.8403 19.8104 79.0736 19.7771C 80.1403 19.5438 80.207 18.2771 80.507 18.6437C 80.6403 18.7771 80.0403 19.6438 79.7737 19.8738C 79.1736 20.3738 77.7736 21.7738 77.2736 22.7372C 76.5736 21.5405 75.7736 20.7405 75.7736 20.3071C 75.7736 20.2738 75.8069 19.8738 75.7736 18.7437C 75.7736 18.7437 72.0402 20.7738 71.7068 22.7372C 71.3735 21.3071 70.6068 20.1738 69.4401 19.6438C 69.7734 19.3438 70.4401 18.8437 70.4401 18.1104L 70.4401 10.8869C 70.4401 10.1902 70.1401 9.82355 69.6068 9.69021C 69.0734 9.55688 68.6067 10.5902 68.3401 10.2902C 68.2067 10.1569 69.6401 8.89019 70.5401 7.7935C 71.1068 7.12682 71.4735 6.62681 71.4735 6.62681C 72.5068 6.96015 73.2402 7.99351 73.2402 8.79019L 73.2402 17.9437C 73.2402 18.5437 73.3402 19.4771 74.1402 19.3771C 74.3735 19.3438 74.7735 19.1104 75.8069 18.4104L 75.8069 11.4536C 75.8069 10.2902 75.6402 10.0569 74.8402 9.45687C 75.7736 8.95686 76.4736 8.22685 77.2403 6.62681L 77.2403 6.62681ZM 72.6402 0.402675C 73.3735 0.402675 74.0402 1.03602 74.0069 1.80071C 73.9402 3.0674 72.6402 5.29745 72.6402 5.30078C 72.6402 5.26745 71.3068 3.00073 71.3068 1.80404C 71.3068 1.00536 72.0402 0.406009 72.6402 0.406009L 72.6402 0.402675ZM 77.2069 0.369341C 77.9403 0.369341 78.5736 1.00269 78.5403 1.80071C 78.507 3.03407 77.1736 5.26412 77.1736 5.26412C 77.1736 5.26412 75.8402 2.96407 75.8402 1.76737C 75.8402 1.00202 76.6069 0.369341 77.2069 0.369341L 77.2069 0.369341ZM 83.5737 6.62681C 85.0404 7.06015 85.4405 8.56019 85.3738 9.59354C 85.8738 9.19354 86.8405 8.19685 87.5072 7.49683C 88.0072 6.99682 88.2072 6.63015 88.2072 6.63015L 90.0406 9.46021L 87.9405 11.4236C 87.5405 11.0569 86.4738 9.42687 86.2738 9.2602C 86.2738 9.2602 85.3738 9.79355 85.3738 10.0936L 85.4071 18.9137C 85.3738 19.4471 85.4405 19.7804 85.7405 19.8138C 86.4405 19.8138 86.6738 18.5171 86.9072 18.7837C 86.9738 18.8837 86.9405 19.2504 86.5071 19.7171C 85.8738 20.4471 84.6738 21.4138 83.9404 22.7772C 83.5071 21.6805 82.6071 20.1471 81.6404 19.7171C 82.0404 19.4504 82.5071 18.9504 82.5071 18.1837L 82.5071 10.2636C 82.5071 9.79688 82.0404 9.43021 81.7404 9.43021C 81.3737 9.43021 80.8737 10.2636 80.707 9.96355C 80.5737 9.79688 81.507 9.16353 82.3737 8.16685C 83.3404 7.03349 83.5404 6.60014 83.5737 6.63348L 83.5737 6.62681ZM 96.8407 9.56688L 95.274 6.66015C 94.074 7.62683 94.8073 7.09349 92.4739 8.92353C 91.2406 9.89022 90.1072 10.4902 90.1072 11.6869L 90.1072 19.4771C 90.1072 21.3105 93.274 22.8438 93.274 22.8438C 93.574 21.0138 94.2406 20.0138 95.9074 19.9471C 97.2074 19.9138 98.0407 21.0138 98.3074 22.8138C 98.7741 20.9505 99.7408 20.2838 100.441 19.6871C 100.174 19.4538 99.6408 19.2871 99.6408 18.0537L 99.6408 10.6669C 99.6408 10.3002 101.207 8.93353 101.341 8.93353C 101.407 8.93353 102.007 9.43354 102.007 10.2336C 102.007 10.2336 102.007 22.1138 101.974 22.1472C 101.774 23.1138 101.341 23.5138 101.441 23.6139C 101.574 23.7472 101.874 23.1138 103.108 21.7505C 104.208 20.5505 104.741 20.2838 104.741 19.8838L 104.741 9.2002C 104.741 8.23685 103.641 6.83682 103.241 6.63681L 99.6408 10.0002L 99.6408 4.70677C 99.6408 3.44341 100.541 0.813351 101.507 0.0100002C 99.7074 0.0100002 98.4741 2.87673 98.0407 3.90675C 97.3407 2.74273 96.2407 2.07671 95.274 2.17671C 96.374 2.9434 97.0074 3.81008 97.0074 5.34012L 97.0074 17.8871C 97.0074 18.6871 96.674 19.8504 94.774 19.8838C 93.6406 19.9171 92.9073 19.0204 92.9073 17.9537L 92.9073 9.56688C 92.9073 9.40021 93.0073 8.76686 93.4073 8.70019C 93.8073 8.63352 94.774 10.8336 94.974 11.0302C 95.9407 10.3336 96.074 10.1669 96.8407 9.56688L 96.8407 9.56688ZM 117.774 6.66015C 118.975 7.12682 119.608 8.56019 119.575 9.59354C 120.041 9.19354 121.008 8.19685 121.675 7.49683C 122.175 6.99682 122.275 6.69681 122.308 6.69681L 124.341 9.76021L 121.941 11.7569C 121.575 11.2902 120.508 9.56021 120.275 9.39354C 120.275 9.39354 119.541 9.86022 119.541 10.1602L 119.541 18.8804C 119.508 19.4138 119.841 19.7471 120.141 19.7138C 121.275 19.6471 121.341 18.4137 121.675 18.6471C 121.808 18.7471 121.475 19.3804 121.008 19.7804C 120.308 20.4104 118.841 21.4105 118.108 22.7738C 117.674 21.6771 116.774 20.1438 115.808 19.7138C 116.208 19.4471 116.874 18.9804 116.874 18.2137L 116.874 10.4602C 116.874 9.99355 116.341 9.39354 115.808 9.49354C 115.441 9.56021 114.808 10.4269 114.641 10.0936C 114.541 9.82688 115.674 9.1602 116.541 8.16351C 117.541 7.03015 117.741 6.63015 117.774 6.66348L 117.774 6.66015ZM 138.542 0C 141.508 0.0333341 144.142 1.70004 144.342 4.83344C 144.442 6.56348 143.575 7.96351 142.708 8.82686C 141.642 9.92688 140.842 10.1936 139.375 10.5936C 141.742 10.7269 144.608 13.027 144.275 16.3837C 143.742 21.2771 138.642 24.4372 135.442 22.5405C 133.708 21.5438 133.808 18.8471 131.875 18.6804C 130.041 18.5471 128.941 20.0438 129.241 21.5471C 129.541 22.9805 130.475 23.8805 132.341 23.1805C 132.341 23.1805 132.575 23.0138 132.641 23.1472C 132.708 23.2805 132.441 23.4472 132.441 23.4472C 130.508 24.1805 129.475 23.3138 129.041 22.0505C 128.241 19.7871 130.441 17.457 133.308 17.057C 136.275 16.657 137.075 20.4905 137.842 21.6238C 138.275 22.2238 138.808 22.3905 139.208 22.3572C 140.342 22.2572 140.708 21.2605 140.708 20.6271L 140.708 13.1036C 140.708 11.9736 139.875 10.8736 138.775 10.8736C 136.842 10.9069 136.408 12.7403 136.142 12.5069C 135.908 12.2736 136.908 10.6436 138.742 10.6102C 137.142 10.6102 135.875 9.04353 135.875 7.94684C 135.875 6.71348 136.575 6.28014 137.342 6.18014C 138.308 6.0168 139.208 6.71348 139.208 7.7135C 139.242 9.1102 137.875 9.2102 137.408 9.21354C 137.408 10.0802 138.475 10.4136 139.108 10.2802C 139.675 10.1802 140.708 9.71355 140.708 8.35018L 140.708 3.15674C 140.708 1.92538 139.908 0.494011 137.775 0.460677C 135.542 0.460677 133.975 1.92538 133.908 3.82742C 133.908 3.92742 133.942 4.6241 133.742 4.59077C 133.542 4.55743 133.575 3.86075 133.575 3.82742C 133.608 1.43003 135.475 -0.0693349 138.542 0.0273339L 138.542 0ZM 157.475 11.5203L 157.475 18.9771C 157.442 19.5438 157.809 19.9438 158.109 19.9438C 158.775 19.9438 158.942 18.7471 159.209 19.0471C 159.242 19.1138 159.209 19.4804 158.809 19.9438C 158.175 20.7105 156.575 21.6438 155.875 23.1405C 155.442 22.0438 154.809 20.6438 153.875 20.2104C 154.275 19.9438 154.842 19.4471 154.842 18.6804L 154.842 10.7236C 154.842 10.2936 154.575 9.89355 154.242 9.89355C 153.875 9.89355 153.509 10.7236 153.309 10.5269C 153.009 10.2936 154.642 9.09353 155.609 8.09684C 155.975 7.73017 155.975 7.73017 156.509 7.06349C 156.742 7.63017 157.609 9.26354 158.575 9.86022C 157.742 10.3602 157.475 10.7902 157.475 11.5269L 157.475 11.5203ZM 156.509 0.703349C 157.242 0.703349 157.875 1.3367 157.842 2.13505C 157.809 3.36674 156.475 5.62846 156.475 5.63512C 156.475 5.60179 155.142 3.30574 155.142 2.10838C 155.142 1.3427 155.909 0.710349 156.509 0.710349L 156.509 0.703349ZM 164.042 3.26707L 164.042 8.99053C 164.042 9.39054 165.209 9.02386 165.209 9.2572L 165.209 9.52388C 165.209 9.79055 164.042 9.49054 164.009 9.75721L 164.009 18.9441C 164.009 18.9774 163.876 20.0108 164.609 20.0441C 165.276 20.0774 165.642 18.7141 165.842 18.8807C 166.109 19.0474 165.642 19.8108 164.242 21.1108C 162.942 22.3075 163.009 22.1742 162.442 23.1408C 162.009 22.2742 161.175 20.7775 160.175 20.1441C 160.509 19.9774 161.242 19.4141 161.242 18.4474L 161.242 9.82688C 161.242 9.36021 160.175 9.86022 160.242 9.49354C 160.275 9.29354 160.209 9.32687 160.242 9.29354C 161.842 8.56019 163.475 5.20011 164.042 3.27007L 164.042 3.26707ZM 180.776 7.06016C 181.609 7.52683 182.509 8.39352 182.743 10.6269C 184.209 9.12687 186.176 7.06349 186.176 7.06349C 186.643 8.26351 187.743 9.43021 188.243 9.79688C 188.243 9.79688 187.576 10.6969 187.576 11.2936L 187.576 19.4504C 187.576 19.8838 187.876 20.3171 188.209 20.2838C 188.776 20.2838 189.009 19.4204 189.109 19.4871C 189.276 19.5871 189.176 19.9504 188.776 20.3838C 188.043 21.1838 186.809 22.2805 186.443 23.2138C 185.876 22.8472 184.876 21.6838 184.876 20.6505L 184.876 11.1636C 184.876 10.4336 184.576 9.96689 184.009 10.0336C 183.609 10.1002 182.643 10.9636 182.643 11.5636L 182.643 18.6871C 182.643 19.6871 183.143 20.0204 183.443 20.1504C 182.176 21.2171 181.309 22.6472 181.143 23.2472C 180.643 21.6838 179.476 20.5171 179.042 20.1171C 179.042 20.1171 179.909 19.3204 179.909 18.4204L 179.909 11.5636C 179.909 10.8969 179.776 10.0002 179.109 10.0002C 178.376 10.0002 177.976 11.1302 177.776 10.7969C 177.609 10.5669 179.443 8.80019 180.109 8.03684C 180.443 7.67017 180.376 7.7035 180.776 7.07015L 180.776 7.06016ZM 173.609 18.9004L 173.609 11.8003C 173.609 10.6336 173.476 10.4669 172.676 9.86688C 173.609 9.36687 174.309 8.66686 175.076 7.03349C 175.876 8.70019 176.709 9.53354 177.276 9.90022C 176.576 10.2002 176.342 10.7002 176.342 11.2669L 176.309 19.3671C 176.309 19.8338 176.676 20.2671 176.876 20.2004C 177.976 19.9671 178.009 18.7004 178.342 19.0671C 178.442 19.2004 177.876 20.0671 177.609 20.3004C 177.009 20.8005 175.576 22.2005 175.109 23.1672C 174.376 21.9671 173.609 21.1671 173.609 20.7671C 173.609 20.7005 173.642 20.4671 173.609 19.3004C 173.609 19.3004 170.042 21.2005 169.709 23.1672C 169.376 21.7338 168.609 20.6338 167.442 20.1004C 167.776 19.7671 168.476 19.2671 168.476 18.5337L 168.476 11.3336C 168.476 10.6002 168.209 10.1002 167.642 9.96689C 167.109 9.83355 166.609 11.0002 166.342 10.7002C 166.209 10.5669 167.642 9.3002 168.542 8.20018C 169.109 7.5335 169.476 7.03349 169.476 7.03349C 170.542 7.40016 171.242 8.40018 171.242 9.2002L 171.242 18.4004C 171.242 18.9671 171.342 19.9338 172.176 19.8004C 172.409 19.7671 172.609 19.6004 173.609 18.9004L 173.609 18.9004ZM 44.7396 6.76015C 44.8729 7.02682 45.7062 8.56019 46.3063 9.76021C 46.7729 10.5936 47.1063 11.2269 47.0396 11.2569C 47.0063 11.2902 42.4395 14.7203 42.4395 14.8203L 42.4395 18.5471C 42.4395 19.4138 42.9395 20.0471 43.6062 20.1138C 44.7729 20.2471 44.9062 18.5504 45.2062 18.8504C 45.4729 19.0838 44.5729 20.3804 43.7729 21.0471C 42.9729 21.7138 42.1395 22.9105 42.1395 22.9105C 42.1395 22.9105 39.6061 21.5805 39.6061 19.5838L 39.6061 12.3936C 39.6061 11.3602 39.7728 10.4969 41.1061 9.53021C 42.6395 8.49685 44.7396 6.76681 44.7396 6.76681L 44.7396 6.76015ZM 42.4395 8.9902C 42.4728 9.42354 42.4395 14.3903 42.4395 14.3903C 42.8728 14.1236 44.2062 12.9903 44.5396 12.7603C 44.5396 12.7603 43.8729 11.4269 43.2729 10.3302C 42.8062 9.43021 42.4062 8.66352 42.4395 8.99686L 42.4395 8.9902ZM 23.5924 6.76015C 23.7258 7.06016 24.5258 8.59352 25.1591 9.79355C 25.5925 10.6269 25.9258 11.2602 25.8591 11.2902C 25.8258 11.2902 21.289 14.7537 21.289 14.8537L 21.289 18.5804C 21.289 19.4138 21.6224 19.9138 22.2891 19.9804C 23.3558 20.1138 23.5924 18.4837 23.9258 18.7837C 24.1924 18.9837 23.1924 20.2138 22.3557 20.8805C 21.589 21.5471 20.889 22.8772 20.889 22.8772C 20.889 22.8772 18.4556 21.6138 18.4556 19.6171L 18.4556 12.4269C 18.4556 11.3936 18.6223 10.4969 19.9557 9.56354C 21.489 8.53019 23.5924 6.76681 23.5924 6.76681L 23.5924 6.76015ZM 21.289 9.02353C 21.3224 9.45687 21.289 14.4237 21.289 14.4237C 21.7224 14.157 23.0557 13.0236 23.3924 12.7603C 23.3924 12.7603 22.7224 11.4603 22.1224 10.3302C 21.6557 9.43021 21.2557 8.66352 21.289 9.0302L 21.289 9.02353ZM 111.974 6.66015C 112.108 6.96015 112.908 8.49352 113.541 9.69355C 113.941 10.5269 114.308 11.1602 114.208 11.1902C 114.174 11.1902 109.674 14.6537 109.674 14.7537L 109.674 18.4804C 109.674 19.3138 110.141 19.9804 110.808 20.0471C 111.974 20.1471 112.108 18.4837 112.441 18.7837C 112.674 18.9837 111.774 20.3138 110.974 20.9805C 110.208 21.6471 109.341 22.8438 109.341 22.8438C 109.341 22.8438 106.841 21.5138 106.841 19.5171L 106.841 12.3269C 106.841 11.2936 106.974 10.3969 108.341 9.46354C 109.841 8.40018 111.974 6.66681 111.974 6.66681L 111.974 6.66015ZM 109.674 8.92353L 109.674 14.2836C 110.108 14.0503 111.441 12.9203 111.774 12.6536C 111.774 12.6536 111.074 11.3536 110.508 10.2236C 110.041 9.32354 109.641 8.55685 109.674 8.92353L 109.674 8.92353ZM 195.71 7.06016C 196.943 8.79353 198.81 9.99355 198.81 9.99022C 198.543 10.4569 198.043 10.5569 198.043 12.0869L 198.043 19.5104C 198.81 20.5771 200.21 22.5438 199.976 24.7339C 199.643 28.0306 196.51 30.1273 193.476 29.994C 190.509 29.894 189.343 27.4639 189.643 25.7672C 189.876 24.6005 190.843 24.2039 191.509 24.3672C 192.109 24.5005 192.643 25.1672 192.476 25.9339C 192.343 26.7306 191.343 27.2306 190.643 26.8306C 190.443 26.8639 190.243 27.4639 190.409 27.7639C 191.043 29.3306 192.576 29.4973 193.709 29.464C 195.343 29.3973 197.143 27.9673 197.41 25.8706C 197.81 23.0405 195.41 22.4072 195.31 19.8771L 192.176 23.2072C 191.609 23.0405 190.009 21.4105 189.976 20.2771C 189.943 19.8771 189.976 16.717 189.976 12.7903C 189.976 11.5903 190.509 11.0902 192.309 9.79355C 194.41 8.26351 194.643 8.23018 195.71 7.06349L 195.71 7.06016ZM 193.776 9.32354C 192.743 9.65688 192.709 10.3902 192.709 10.3902L 192.709 19.0438C 192.709 19.1104 193.209 20.4104 193.943 20.5438C 194.409 20.6438 195.276 19.5471 195.276 19.4471L 195.276 10.4936C 194.61 9.89355 194.409 9.76021 193.776 9.32687L 193.776 9.32354ZM 150.775 7.06016C 150.909 7.36016 151.709 8.89353 152.342 10.0936C 152.742 10.9269 153.109 11.5603 153.009 11.5936C 153.009 11.5936 148.475 15.057 148.475 15.157L 148.475 18.8837C 148.475 19.7504 148.975 20.3838 149.609 20.4504C 150.775 20.5505 150.909 18.8871 151.242 19.1871C 151.509 19.3871 150.575 20.7171 149.775 21.3838C 149.009 22.0505 148.175 23.2472 148.175 23.2472C 148.175 23.2472 145.642 21.9171 145.642 19.9171L 145.642 12.7303C 145.642 11.6969 145.808 10.8302 147.142 9.86688C 148.642 8.80019 150.775 7.07015 150.775 7.07015L 150.775 7.06016ZM 148.475 9.32354L 148.475 14.717C 148.909 14.4503 150.242 13.317 150.575 13.0503C 150.575 13.0503 149.875 11.7536 149.309 10.6236C 148.842 9.72355 148.442 8.95686 148.475 9.32354Z"/>
</defs>
</svg>
