<svg id="Ebene_1" data-name="Ebene 1" xmlns="http://www.w3.org/2000/svg" viewBox="0 0 126 30"><defs><style>.cls-1{fill:#bdbdbd;}</style></defs><title>Zeichenfläche 1</title><path id="a" class="cls-1" d="M61.5,4.8A10.07,10.07,0,0,0,51.18,15a10.29,10.29,0,0,0,20.58-.06A10,10,0,0,0,61.5,4.8Zm0,17.88A7.39,7.39,0,0,1,54.18,15a7.29,7.29,0,0,1,7.26-7.62,7.39,7.39,0,0,1,7.32,7.68A7.29,7.29,0,0,1,61.5,22.68ZM76.32,16.2h10.5V13.62H76.32v-6H88V5H73.44V25H88.2V22.38H76.32Zm22.56,6.48c-4.08,0-7.14-3.42-7.14-7.68s3.06-7.62,7.14-7.62A8.46,8.46,0,0,1,104.82,10l1.92-2.1a10.39,10.39,0,0,0-7.8-3.12A10,10,0,0,0,88.8,15a9.94,9.94,0,0,0,10,10.26,10.21,10.21,0,0,0,8-3.54l-1.86-1.86c-1.8,1.8-3.42,2.82-6.06,2.82ZM115,5h-7.2V25H115c6.3,0,10.62-4.38,10.62-10S121.26,5,115,5Zm0,17.28H110.7V7.68H115c4.56,0,7.56,3.12,7.56,7.38S119.58,22.32,115,22.32ZM15,0A15,15,0,1,0,30,15,15,15,0,0,0,15,0ZM25.5,5.58h0c.06,0,.06.06,0,0h.06v.06l-.06-.06c0,.06,0,.06-.06.06s0-.06-.06,0h0C25.44,5.64,25.5,5.64,25.5,5.58Zm-.06-.06c.06.06.06.06,0,.12s-.06-.06,0-.12,0,.06,0,0Zm-.06.18Zm0,.48h.12V6.06h.06V5.94l.06-.06v.18h-.06a.06.06,0,0,1-.06.06h.06v.06h.06V6.12h.06V6.3h-.12V6.24H25.5V6.18h-.18V6.06h-.18V5.94h.18V5.88h.24l.06.06V6h0c-.24.12-.24.18-.24.18Zm.42.24h0c-.06.06-.06.06-.06,0Zm-.12,1.5h0c.06-.06.06,0,0,0h0c.06-.06.06-.06.12-.06V8.1a.06.06,0,0,0-.06.06h-.06V7.92c0,.06,0,.06-.06.06V7.92Zm.18.06Zm0,0Zm-.42-.18Zm.06.12Zm0-.12h0c-.06-.06,0-.06,0,0h0c-.06-.06-.06,0-.06,0V7.74a.06.06,0,0,1-.06-.06v.06h.06v.12h-.06V7.8h.06s0-.06-.06,0V7.68a.06.06,0,0,0-.06.06H25.2a.06.06,0,0,0-.06.06h-.36V7.68h-.12V7.5h.42L25,7.44V7.38h-.3V7.26h.12c0-.06,0-.06.06-.06V7.14h.18a.19.19,0,0,0,.12-.06h.18V7.2h.18v.06a.06.06,0,0,0,.06.06h0V7.26l.06.06v.36h.06V7.2h.06v.06l.06.06V7.8l.06.06V8H26c-.42-.3-.42-.24-.48-.18S25.5,7.74,25.5,7.8Zm-.18.12Zm-.6.12Zm0,.06Zm.12-2.16h0c.06-.06.06-.06.12-.06h.12L25,5.94h-.18S24.84,6,24.84,5.94Zm.48.78Zm.24,1.2Zm0-1h0L25.5,7V6.84l.06.06Zm.06.72Zm-.3-1.8h0c-.06,0,0-.06,0,0s-.06-.06,0,0Zm-.66-.18h.12l.06-.06V5.52h.06v.06h-.06V5.7s-.06,0,0,.06h-.06a.06.06,0,0,1,.06-.06s.06-.06,0-.06h-.06c0,.06,0,.06-.06.06v.06a.06.06,0,0,1-.06.06v.06H24.6V5.76h-.06c.12,0,.12-.06.12-.12h0Q24.66,5.73,24.66,5.64Zm-.06.06Zm-.72.9h0l.06-.06V6.42H24V6.36a.06.06,0,0,0,.06-.06h.06a.06.06,0,0,1,.06-.06V6.12h.18v.12h.06V6.18h.12v.18h-.36a.06.06,0,0,1-.06.06h-.06A.06.06,0,0,1,24,6.36v.06a.06.06,0,0,0-.06.06l-.06.06h-.12V6.48h-.12V6.36l.24.24a.06.06,0,0,1,.06.06C23.94,6.6,23.94,6.6,23.88,6.6Zm-.36.18h0C23.52,6.84,23.46,6.84,23.52,6.78ZM22.74,7h0a.06.06,0,0,0,.06-.06v0L22.74,7a.06.06,0,0,0-.06.06c.12,0,.12,0,.06-.06Zm-.06-.06a.06.06,0,0,1,.06.06l-.06-.06Zm0,.06ZM22.62,7h0c.06.06.06.06.06.12l-.06-.06c.06,0,.06,0,0-.06s.06,0,0,0Zm-.18-.3Zm-3.18.84h0c.06.06,0,.06,0,0Zm-.06.06c0-.06.06-.06,0,0h0l.06-.06v.12l-.06-.06Zm-.48-.42a.06.06,0,0,0,.06.06h.06l.06.06v.06h-.12V7.32a.19.19,0,0,0-.06-.12h-.06c-.06,0-.06,0-.06-.06C18.66,7.26,18.66,7.2,18.72,7.2Zm-.06,1h.12v.12H18.6C18.66,8.22,18.6,8.22,18.66,8.16ZM18.3,9.42h.12a.06.06,0,0,1,.06.06h-.12l-.06-.06Zm.24,9.78h-.12A.08.08,0,0,1,18.54,19.2Zm-.06-.06Zm.12-.06h0c0,.06.06.06.06.12s-.06,0-.06-.12-.06.06,0,0Zm0-9.6Zm.12,9.84h0c-.06.06-.06,0-.06,0v-.06c-.06,0,0,.06.06.06Zm-.24.12ZM18.42,19c-.06,0-.06-.06-.12-.06s.06.06.12.06Zm.06-9.48Zm-.3.06ZM18.24,19ZM18.18,19h0c-.06-.06-.12-.06-.12-.12h.06c.06.06.06.06.06.12S18.18,18.9,18.18,19Zm0,.06ZM18.12,19Zm0-9.42c.06,0,.06.06,0,0Zm0,0ZM14.52,6Zm0-.06h0C14.46,6,14.52,6,14.52,5.94Zm-.18-.36Zm-.06,0C14.28,5.64,14.22,5.64,14.28,5.58Zm-2.22-.72c.06-.06.06,0,0,0h.36v.06h-.3l-.06-.06h0Q12.06,4.77,12.06,4.86Zm-.12.72V5.46h.24v.06h-.12l-.12.06Zm-.12-1.2c.06,0,.06.06,0,0Zm-.12.42h.18a.06.06,0,0,0-.06.06c0,.06,0,.06.06.06V5h-.06a.21.21,0,0,1-.12-.06V4.8c-.06.06,0,.06,0,0Zm.18.6h0c-.06-.06-.06-.12,0-.12V5.4Zm-.66-.48h0l.12-.06h.06a.06.06,0,0,0,.06.06h.06l-.06-.06V4.8h.18v.12A.06.06,0,0,1,11.7,5h.12L11.76,5c0,.06,0,0-.06,0h-.06c-.06,0-.06.06-.06.12h-.06v.06h-.18V5.16h-.06a.06.06,0,0,1-.06-.06A.06.06,0,0,1,11.16,5H11.1A.06.06,0,0,0,11,5c.12,0,.12,0,.18-.06S11.16,5,11.22,4.92Zm.3.66H11.4V5.52l.12.06ZM11,5c.06,0,.06.06,0,0h0c.06.06.06.06.06.12s.06.06,0,.06L11,5.16V5Zm-.42.9Zm-.24.3Zm-.84-.18c.06,0,.06-.06.12-.06v.12s-.06.06-.12-.06h0c.06.06,0,.06,0,0ZM8.7,5.4Zm-.18-.18h0c.06,0,.06.06,0,0s.06.06,0,0Zm-.06,0ZM7.92,5C8,5,8,5.1,7.92,5h0C8,5,8,5,8,5V4.92H8.1L8.16,5h.06c0,.06,0,.06.06.06a.06.06,0,0,1-.06.06.06.06,0,0,0-.06.06l-.06.06A.06.06,0,0,0,8,5.28L8,5.34H7.92a.06.06,0,0,0-.06-.06V5.16S7.8,5.1,7.92,5h0C8,5.1,7.92,5.1,7.92,5ZM8,6H8c.06,0,.06-.06,0,0Zm0-.06H8c0-.06-.06,0,0,0ZM8,5.76H8c0,.06-.06.06,0,0s-.06.06,0,0ZM7.5,4.92c.06,0,.06.06.12.06V5.1s-.06,0,0-.06h.06a.06.06,0,0,1,.06.06v.06l.06.06H7.74c0,.06,0,.06.06.06a.06.06,0,0,1,.06.06L7.8,5.4H7.74l-.06.06h-.3a.06.06,0,0,0-.06-.06H7.26V5.28H7.2V5.16C7.44,5,7.5,5,7.5,4.92ZM7.56,6.6h0c0-.06-.06-.06,0,0ZM7.5,5.7Zm0,1Zm-.06,0Zm0-.72Zm-.18-.72Zm.06,1.62Zm-.18.36c0-.06,0-.06.06-.12a.06.06,0,0,0,.06.06V7.2C7.2,7.26,7.14,7.26,7.14,7.2Zm0,.12c-.06.06-.06.12-.12.12S7.08,7.32,7.14,7.32Zm.24-.48Zm-.3-1.92V4.68c.06,0,.06.06.18.12h.06v.06a.06.06,0,0,0,.06.06c0,.06,0,.06-.06.06A.06.06,0,0,0,7.26,5L7.2,5.1H7.08V5H7l.06-.12Zm.06,1.44Zm-.06.18h0c.06,0,.06-.06,0,0h0c.06.06.06,0,0,0ZM7,6.42ZM6.9,4.8h0C6.9,4.86,7,4.86,6.9,4.8Zm0,2.4Zm-.12-.06c.06,0,.06-.06,0,0Zm0,.12Zm-.36,0c.06,0,.06-.06,0,0h0c.06,0,.12,0,.12.06a.06.06,0,0,0-.06.06C6.42,7.32,6.42,7.32,6.42,7.26Zm-.78-.54h.12l.06-.06h.06v.12H5.82l-.06.06a.06.06,0,0,1-.06.06L5.64,7c0,.06,0,.06-.06.06v.12H5.52V7.2H5.46v.12H5.4c0,.06.06.06.06.12H5.4v.12H5.34a.06.06,0,0,0-.06.06V7.56a.06.06,0,0,0,.06-.06c-.06,0-.06.06-.12.06L5.16,7.5V7.38h.06a.06.06,0,0,1-.06-.06H5.1c0-.06.06,0,.06-.06V7.2h.06V7.08A.06.06,0,0,0,5.28,7h.06V6.9H5.4V6.84s0-.06.06,0a.06.06,0,0,1,.06-.06v.06h.06V6.78c0-.06,0-.06.06-.06Zm.18,1.56h0c-.06-.06-.06-.12-.12-.12l.12.12Zm0,.06Zm-.06.12c0,.06-.06,0,0,0h0C5.7,8.46,5.7,8.52,5.76,8.46ZM5.64,8.1h0c-.06.06-.12.06,0,0-.06.06-.12.06-.12,0A.06.06,0,0,0,5.46,8h.06C5.46,8,5.52,8,5.46,8H5.4V7.86H5.34L5.28,7.8v.06H5.16V7.68h.06V7.62h.06V7.38H5.4v.06H5.34v.42l.06.06A.06.06,0,0,0,5.46,8a.46.46,0,0,1,.18.12Q5.64,8,5.64,8.1Zm0,.36c0,.06-.06.06,0,0Zm-.06.06h0c-.06-.06,0-.06,0,0Zm-.06.06ZM5.28,8.1h0c0-.06-.06-.06,0,0ZM5.16,5.88ZM5.1,5.82Zm.06.3h0c-.06-.06-.06,0,0,0Zm0-.12h0C5.22,6,5.22,5.94,5.16,6ZM5.1,6ZM5,6.12Zm0,.06Zm0-.12ZM5,6.12C5.1,6.12,5,6.18,5,6.12ZM5,6H4.92C5,5.94,5,5.94,5,6S5,5.94,5,6ZM5,8.46H5c.06,0,.12,0,.12.06v.06A.06.06,0,0,0,5,8.64.22.22,0,0,1,5,8.46Zm.3-2.34h0c.06,0,.06.06,0,0Zm.12.78c0-.06.06-.06,0,0Zm.06-1.26h0c.06-.06.06-.06.12-.06v.06h.06V5.58c-.18.12-.18.12-.18.06Zm-.12-.06c.06,0,.06-.06,0,0Zm0,.18h0c.06.06.06,0,0,0s.06.06,0,0,0,.06,0,0Zm-.06.06c0,.06.06.06,0,0s.06,0,0,0h0c.12-.06.06-.06,0,0s.12,0,.12.06a.06.06,0,0,0-.06.06H5.28V5.82Zm0,.24h0c-.06.06-.06,0,0,0h0c-.06,0-.06,0-.06-.06l.06.06Zm-.06-.18c0,.06-.06.06,0,0Zm-.06-.06ZM5.1,5.58h0c0,.06.06,0,0,0ZM5,5.7H5c.06.06.06,0,0,0ZM5,5.82H5c.06-.06.06,0,0,0H5c0-.06.06-.06,0,0Zm0,.06H5.1C5,5.94,5,5.94,5,5.88Zm-.06.18h0c0,.06.06.06,0,0Zm0,.12Zm-.06.12h0C4.8,6.3,4.8,6.24,4.86,6.3Zm-.12-.06Zm-.06-.18h0C4.74,6,4.74,6,4.8,6s-.06.06-.12.06h0c.06.06.06.06.06.12H4.68v.06H4.62V6.3H4.56V6.12l.12-.06h0Q4.68,6.15,4.68,6.06Zm-.24.12h0c.06,0,.06-.06,0,0h0c.06-.06.06-.06.12-.06s.06,0,.12.06v.06c-.18,0-.18,0-.24-.06Zm-.72.48ZM3.54,7h0c0,.06.06.06,0,0Zm0-.3Zm-.3,0ZM3.06,7h0c.06-.06,0-.06,0,0a.19.19,0,0,0,.06-.12V6.72h0v0H3.3V7H3.24v.06H3.12L3.06,7h0c.06.06.06.06.12.06h0C3.12,7,3.06,7,3.06,7Zm.42.18ZM3.3,8.46Zm0-1v.12H3.18V7.38l.12.06h0c.06-.06,0-.06,0,0ZM3.18,8.52Zm0,0Zm-.06.06Zm0,.06h0c-.06-.06-.06,0,0,0Zm0-1.32ZM2.7,7.2c.06,0,.06-.06,0,0s.06-.06.06-.12L2.7,7.2l.06-.12v0L2.7,7.2l.06-.12V7h.06L2.88,7h.06v.6s-.06,0,0-.06H2.88V7.5h.06V7.38H2.88v0l.06-.06V7.26H3s0,.06-.06,0V7.2h0v.06c-.24,0-.24,0-.24-.06Zm.24,1.5Zm0,0c-.06,0-.06-.06,0,0s-.06-.06,0,0Zm-.12.06h0c.06,0,.06-.06,0,0Zm0,.06Zm0-.06h0C2.88,8.7,2.82,8.7,2.82,8.76Zm-.12.12ZM2.64,7.32Zm0,1.74Zm0-.12Zm0,0h0c-.06,0-.06.06,0,0ZM2.58,9h0C2.52,9.06,2.52,9,2.58,9Zm-.06.12c0-.06.06-.06,0,0Zm0,0Zm-.18.48Zm0,.12c-.06.06-.06,0,0,0ZM2.1,10Zm0,.06h0C2.16,10,2.16,10,2.1,10Zm0,.06ZM2,10Zm-.12.18Zm-.78-.36h0c.06,0,.06-.06,0,0s.06-.06.06-.12l-.06.12c.06-.06.06-.06.06-.12s0,0,.06-.06l-.06.06V9.48h.06V9.42h.06V9.24s.06,0,0-.06v.06a.06.06,0,0,1-.06.06v.06h.06V9.6a.06.06,0,0,0-.06.06v.06l-.12.12h0c-.06.06-.06.06-.06.12V10H1V10H1V9.9S1,10,.9,9.9V9.72c.3.18.3.18.24.12h0c.06.06.06,0,0,0h0Zm.42,2h0c-.06,0-.06.06,0,0h0c0,.06-.06.06,0,0V12H1.44v.06h0A.06.06,0,0,0,1.5,12h.12c0-.06,0-.06.06-.06H1.62v-.06l.06-.06V11.7a.06.06,0,0,0,.06-.06.06.06,0,0,0,.06-.06v-.06h0V11.4h0v-.06h0V11h.06v0l-.06.06v.06h.06v.24H1.8v.12a.06.06,0,0,1,.06.06v.06h.06v.12c-.36,0-.36,0-.36.06h0Q1.56,11.73,1.56,11.82ZM1.38,12Zm-.18-.36Zm-.06-.12Zm0-.18Zm.18-.48ZM1.08,11h0c.06.06.06,0,0,0Zm.06.3h0c0,.06-.06.06,0,0ZM1.08,11Zm0,.06Zm-.24.72c.06,0,.06-.06,0,0h0L.9,11.7v-.06A.06.06,0,0,1,1,11.58v.24H.84c-.06.06-.06.06-.12.06.12,0,.12,0,.12-.06h0Q.84,11.91.84,11.82Zm1.08,6Zm.18-.3Zm4,2.34Zm0-.12c-.06-.06-.06,0,0,0h0c-.06.06-.06.06-.06.12v.24a.21.21,0,0,0-.06.12c0,.06-.06.06-.06.12s-.06.06-.06.12v.24a.06.06,0,0,1-.06.06H5.76l-.06.06H5.64l-.06-.06v-.42h.06V20.1L5.7,20v-.12h.06l.06-.06h.12v0H6v.06h.06V20l.06-.06c0-.06-.06,0,0-.06V19.8h0v.06a.06.06,0,0,1,.06-.06l-.06-.06h0l.06-.12-.06.12h.12v.18c-.12-.24-.12-.24-.12-.18S6.18,19.68,6.12,19.74Zm-.18-.3Zm.78-.9Zm2.82-1.26h0a.19.19,0,0,1-.12.06c-.06,0-.06-.12-.06-.12V17a.06.06,0,0,0,.06.06c0,.06,0,.06.06.12s.12,0,.06.06S9.6,17.28,9.54,17.28Zm-.18-.36Zm.06,0Zm1-1.56Zm.06.06Zm.24,1.44h0C10.8,16.86,10.8,16.8,10.74,16.86Zm0-.12v-.06C10.8,16.68,10.8,16.74,10.74,16.74Zm.06-.24h0c0,.06-.06.06,0,0Zm.06.6c.06,0,.06.06,0,0Zm.06.06Zm0,.12h0C10.92,17.22,11,17.28,10.92,17.28Zm.18-1.14h0c-.06.06-.06.06-.12.06s.06-.06.12-.06L11,16.2V16c0-.06-.06-.06-.06-.12v-.06c0-.06-.06-.06,0-.06v.06h-.06v-.06h.06v-.06h-.06l-.06-.06a.06.06,0,0,0-.06-.06v-.06a.06.06,0,0,0-.06-.06h-.12v.12a.06.06,0,0,1-.06.06v-.12h-.06c0-.06,0-.06-.06-.06v.06h-.06v.12l-.06.06a.06.06,0,0,0-.06.06h-.06l-.06.06v.06C10,15.9,10,16,10,16V16c-.06,0-.06,0-.06.06v.06a.06.06,0,0,1-.06.06H9.78c0,.06,0,.06-.06.06l-.06.06v.24a.22.22,0,0,1-.06.18v.18H9.54V17L9.48,17H9.42v.06c0,.06,0,.06-.06.06S9.24,17,9.24,17V17c0-.06,0-.06-.06-.12V16.8l-.12-.12v-.12c-.06-.06,0-.12-.06-.12v-.06l-.06-.06v-.06a.06.06,0,0,0-.06-.06v-.06c0-.06,0-.12-.06-.12v-.3c0-.06,0-.06-.06-.06v-.12h.06v.18c-.06,0-.06.06-.12.06H8.64l-.06-.06-.06-.06H8.46L8.4,15.6a10182479.58,10182479.58,0,0,0,.12-.12H8.4l-.06-.06c0-.06,0-.06.06-.06s-.06,0-.06.06l-.06-.06H8.22c0-.06,0-.06-.06-.12H8.1c0-.06,0-.06-.06-.06H7.62c-.06,0-.06,0-.06-.06s-.12,0-.12-.06H7.26c0-.06-.06-.06-.06-.12v-.06H7.14l-.06.06H6.72c0-.06,0-.06-.06-.06v-.06l-.06-.06a.06.06,0,0,0-.06-.06l-.06.06H6.42c-.06,0-.06.06,0,.06H6.36s0,.06.06,0v.12h.06a.06.06,0,0,0,.06.06v.06a.06.06,0,0,0,.06.06v.06c.06,0,0-.06,0-.06v-.06h.06v.3l.06-.06H7v-.06L7,15.18a.06.06,0,0,0,.06-.06v.24l.06.06.06.06h.12v.12l.06.06v.12l-.06.06v.06s-.06,0,0,.06a.06.06,0,0,1-.06.06v.06H7.2a.06.06,0,0,0-.06.06v.06H7v.06a.06.06,0,0,1-.06.06H6.78a.06.06,0,0,1-.06.06v.06H6.66c-.06,0-.06.06-.12.06H6.36l-.06.06H6.18a.06.06,0,0,0-.06.06H6c-.06,0-.06,0-.06.06a.06.06,0,0,1-.06.06H5.76v-.06a.06.06,0,0,0-.06-.06V16.5a.06.06,0,0,0-.06-.06.22.22,0,0,0-.06-.18H5.52V16.2c-.06,0-.06-.06-.12-.12V16A.06.06,0,0,0,5.34,16H5.28l-.06-.06v-.36l-.06-.06v-.12a.06.06,0,0,0-.06-.06H5v-.06c0-.06,0-.06-.06-.06H4.92a.06.06,0,0,0-.06-.06v0H4.8a.06.06,0,0,0-.06-.06A.06.06,0,0,1,4.68,15l-.06-.06v0l.06.06.06.06a.06.06,0,0,0,.06.06v.18c0,.06.06.06.06.12s.06.06.06.12L5,15.6H4.92v.12s.06.06.06,0a.06.06,0,0,1,.06.06c0,.06,0,.06.06.12s.06.12.06.18v.06a.06.06,0,0,1,.06.06h.12c0,.06.06.12.06.18v.18h.06a.06.06,0,0,0,.06.06l.06.06a.06.06,0,0,1,.06.06v.06a.06.06,0,0,1,.06.06h.06l.06.06V17h0l.06.06.06.06s0-.06.06,0h.18A.06.06,0,0,0,6.24,17h.3V17H6.6v.18H6.54v.06a.06.06,0,0,1-.06.06v.06a.06.06,0,0,0-.06.06c0,.06-.06.06-.06.12s-.06.06-.06.12a.21.21,0,0,0-.06.12H6.18v.06l-.06.06L6,18c-.06.06-.12.06-.12.12l-.06.06a.21.21,0,0,0-.06.12.06.06,0,0,1-.06.06.06.06,0,0,0-.06.06H5.58v.06a.06.06,0,0,1-.06.06c0,.06,0,.06-.06.12H5.4c0,.06-.06.12-.06.18l.06.06v.3a.06.06,0,0,0,.06.06c.06,0,.06.06.06.12v.24h.06v.12a.06.06,0,0,0-.06.06H5.4a.06.06,0,0,0-.06.06l-.06.06a.06.06,0,0,1-.06.06H5.16V20c-.06,0-.06,0-.06.06H5v.06s.06.06,0,.06v.3L5,20.58c-.06,0-.06.06-.12.06a.06.06,0,0,1-.06.06v.48H4.68v.06a.21.21,0,0,1-.06.12v.06H4.56a.06.06,0,0,1-.06.06.06.06,0,0,0-.06.06.06.06,0,0,0-.06.06H4.2v.06H4.14c-.06,0-.06,0-.12-.06H3.66v-.36a.06.06,0,0,0-.06-.06v-.24a.06.06,0,0,0-.06-.06.06.06,0,0,0-.06-.06v-.6l-.06-.06c0-.06,0-.06-.06-.12v-.12a.06.06,0,0,0-.06-.06v-.6l.06-.06a.06.06,0,0,1,.06-.06v-.06L3.36,19V18.9a.06.06,0,0,0-.06-.06v-.06l-.06-.06H3.18v-.18H3.06c0-.06,0-.06-.06-.06l-.06-.06v-.24H3v-.12C3,18,3,18,3.06,18v-.3H3v.06H2.76a.06.06,0,0,1-.06-.06v-.18a.06.06,0,0,1-.06-.06H2.52a.06.06,0,0,0-.06.06c-.06,0-.06,0-.12.06a.06.06,0,0,0-.06.06H2.22v-.06H2l-.06-.06-.06-.06c0-.06-.06-.06-.06-.12v-.06H1.74l-.06-.06V16.8h0v-.06h0v-.12a.06.06,0,0,0-.06-.06c0-.06,0-.06.06-.12V15.6a.21.21,0,0,0,.06-.12.06.06,0,0,1,.06-.06v-.06a.06.06,0,0,1,.06-.06c0-.06,0-.06.06-.12H2L2,15.12v-.06A.06.06,0,0,1,2.1,15v-.12c0-.06,0-.12.06-.12V14.7l.06-.06a.06.06,0,0,0,.06-.06v-.06h.06l.06-.06v-.12h.06c0,.06,0,.06.06.06h.12v.06H2.7V14.4a.06.06,0,0,0,.06-.06v-.06h.06l.06-.06h.06s0-.06.06,0h.3l.06-.06v.06a.06.06,0,0,1,.06-.06v.06c-.06,0,0,.06,0,.06v.12l-.06.06a.06.06,0,0,0,.06.06h.06c0,.06.06.06.12,0h.06a.06.06,0,0,1,.06.06v.18s.06.06.06,0h.06c.06.06.12.06.18.12l.06-.06a.06.06,0,0,1,.06-.06.06.06,0,0,0-.06-.06v-.12l.06-.06h.18a.06.06,0,0,1,.06.06H4.5v.06h.06a.22.22,0,0,1,.18.06h.12s0,.06.06,0L5,14.64c.06,0,.06-.06.12-.06h.36a.22.22,0,0,0,.06-.18l.06-.06c0-.06,0-.06.06-.06V14a.06.06,0,0,0,.06-.06H5.52L5.46,14H5.34a.06.06,0,0,1-.06-.06H5.16V14H5L5,14H4.86L4.8,14v-.06H4.74v-.06a.06.06,0,0,0,.06-.06v-.06H4.74v-.06a.06.06,0,0,1,.06-.06h.06l.06-.06H4.86V13.5H5a.06.06,0,0,0,.06-.06h.12l.06.06h.06a.06.06,0,0,0,.06.06h.42a.06.06,0,0,0,.06-.06v-.06a.06.06,0,0,0-.06-.06v-.06H5.76a.06.06,0,0,0-.06-.06l-.06-.06H5.58l-.06-.06v-.06h0V13h.06V12.9H5.7V13H5.52v.06a.06.06,0,0,1-.06.06s.06-.06,0-.06v.06H5.4a.06.06,0,0,0,.06.06l-.06-.06a.06.06,0,0,0-.06-.06v.06l.06.06h.06a.06.06,0,0,0-.06.06l-.06.06H5.28v-.06l-.06-.06a.06.06,0,0,1,.06-.06v-.06H5c0,.06,0,.06-.06.06v.3H4.86v.06a.06.06,0,0,1-.06.06.06.06,0,0,0,.06.06v.06c.06,0,.06,0,.06.06s-.06,0-.06,0H4.8v.06H4.74a.06.06,0,0,1-.06.06.06.06,0,0,1,.06-.06H4.56a.06.06,0,0,1-.06.06H4.44c0,.06.06,0,.06.06H4.44V14a.06.06,0,0,0-.06-.06V14a.06.06,0,0,1-.06-.06c-.06,0,0,.06-.06.06V14l.06.06V14h.06l.06.06v.06H4.32v.06a.06.06,0,0,1,.06.06H4.26v.12H4.2v.06a.06.06,0,0,1-.06-.06v-.06a.06.06,0,0,0-.06-.06v-.12h.06V14L4.08,14v-.3H4A.06.06,0,0,0,4,13.62v-.06H3.9a.06.06,0,0,0-.06-.06H3.72v-.06h.06l-.06-.06v-.12a.06.06,0,0,1-.06.06V12.6H3.48v.18a.06.06,0,0,1,.06.06c0,.06.06.06.06.12a.06.06,0,0,0,.06.06.06.06,0,0,1,.06.06h.12v.06l.12.12H4v.06A.06.06,0,0,1,4,13.26H3.9v.24H3.84v.06a.06.06,0,0,1-.06.06c-.06,0-.06,0-.06-.06v-.24H3.66v-.06H3.6V13.2H3.48v-.12A.06.06,0,0,0,3.42,13c0-.06,0-.06-.06-.12a.21.21,0,0,0-.12-.06H3.18v.06H3.12L3.06,13V13H3L2.94,13H2.82v.24a.06.06,0,0,0-.06.06H2.64v.12c-.06,0-.06.06-.06.12v.12l-.06.06c0,.06-.06.06,0,.12H2.4v.06H2.28v0H2.16V13h.48v-.18a.06.06,0,0,0-.06-.06c0-.06,0-.12-.06-.06v-.06H2.46V12.6h0v-.06a.06.06,0,0,0,.06-.06h.06v.06h.06v-.12H2.7v.06h.12v-.42A.06.06,0,0,0,2.88,12H3v-.06h.06v0h.06a.06.06,0,0,0,.06.06.06.06,0,0,1-.06-.06v-.18a.06.06,0,0,1,.06-.06v-.12h.06v-.06H3.3v.12c-.06,0,0,.06,0,.06H3.24s.06,0,0,.06v.12a.06.06,0,0,1-.06.06h.06v-.06a.06.06,0,0,1,.06-.06v.06h.06a.06.06,0,0,1,.06-.06h.12V11.7h.24v.06c.06.06.06,0,.12,0v.06A.06.06,0,0,0,4,11.76H4.2V11.7s-.06,0,0-.06H4.14a.06.06,0,0,1-.06-.06V11.4a.06.06,0,0,1,.06-.06v-.06h.12l.06.06v-.18l-.06-.06V11H4.5v-.12a.06.06,0,0,0,.06-.06h.06V10.8H4.56v-.12a.06.06,0,0,0-.06.06H4.44v.06l-.06.06c-.06,0-.06,0-.06.06v-.06H4.2v-.48s.06-.06,0-.06v-.06h.06v-.18A.06.06,0,0,0,4.32,10h.06V9.9H4.2V10H4.14v.12H4.2a.06.06,0,0,1-.06.06v.12H4.08v.18a.06.06,0,0,1-.06.06V11a.06.06,0,0,0,.06.06v.06a.06.06,0,0,1-.06.06H4s.06-.06.06,0v.06H4v.12a.19.19,0,0,1-.06.12c-.06,0-.06.06,0,.06H3.84V11.4a.06.06,0,0,0-.06-.06v-.06l-.06.06v-.06l-.06-.06V11.1h0v-.18H3.6V10.8h.12v.06h0v0a.06.06,0,0,1-.06-.06H3.6s0,.06.06,0v-.06h0v0a.06.06,0,0,1,.06-.06c-.06,0,0,.06-.06.06H3.6V10.5a.06.06,0,0,1,.06-.06v-.3h.18v-.06c0-.06-.06,0-.06,0V10H3.9V9.9H3.78V9.84a.06.06,0,0,1,.06-.06v0a.06.06,0,0,0,.06.06V9.72L4,9.66v0H3.9v-.3H4a.06.06,0,0,1-.06.06v.06H4V9.42L4,9.36a.06.06,0,0,1,.06-.06V9.24h0V9.3L4,9.36V9.24h.06V9.3h.06l-.06.06A.06.06,0,0,1,4,9.42H4v.06H4V9.6c.06,0,0,0,.06-.06h.12l.06.06.06.06v.06h.12V9.66s.06,0,0,.06a.06.06,0,0,1,.06.06v.06a.06.06,0,0,0,.06.06v.18l-.06.06H4.38c-.06,0-.12.06-.18,0H4.14v-.06H4.08V10H4A.06.06,0,0,1,4,10V10h.3v.24a.06.06,0,0,0,.06.06h.06v.06H4.5l.06-.06v-.06H4.5l-.06-.06v-.12h.12a.06.06,0,0,0,.06.06c.06,0,.06,0,.12.06s.06,0,0-.06H4.8a.06.06,0,0,0-.06-.06c0-.06,0-.06.06-.06V9.9l.06-.06H5V9.72s-.06-.06-.06,0V9.54H5c0,.06,0,.06.06.06v.06H5v.12c.06,0,.06.06.06.12h.24a.06.06,0,0,1-.06-.06l.06-.06a.06.06,0,0,0,.06-.06l.06-.06h.06l.06-.06V9.54c.06,0,0-.06,0-.06h0v.06a.06.06,0,0,0-.06.06h.12a.06.06,0,0,1,.06-.06V9.48h.24l.06-.06V9.36A.06.06,0,0,0,6,9.3v.06h.06s-.06,0,0-.06h.06l.06-.06-.06-.06V8.94h.42V9H6.6c.06,0,.06,0,.06.06s.06,0,.06.06a.06.06,0,0,1,.06.06V9.06H6.72V9H6.66a.06.06,0,0,0-.06-.06h.06V8.88H6.6V8.7l.06-.06v-.3h.18v.24a.06.06,0,0,0,.06.06V8.7L7,8.76v.18A.06.06,0,0,0,7,9v.06a.06.06,0,0,0,.06.06,1273804050464.83,1273804050464.83,0,0,1,.12.12v.3H7V9.6H7a.06.06,0,0,0,.06.06h.3V9.6a.06.06,0,0,1,.06-.06l.06-.06V9.42c0-.06.06-.06.06-.12V9.24a.06.06,0,0,1-.06-.06V9.12a.06.06,0,0,0,.06-.06c.06,0,.06,0,.06-.06s.06,0,.06.06h.06v.06H7.8V9.06S7.74,9,7.8,9V8.94H7.68L7.62,9H7.56V8.94a.06.06,0,0,0-.06-.06V8.64a.06.06,0,0,0-.06-.06H7.38a.06.06,0,0,0-.06-.06c0-.06.06-.06,0-.12V8a.06.06,0,0,1,.06.06v.12a.06.06,0,0,0,.06.06v.06h.12l.06.06H7.56a.06.06,0,0,1-.06-.06.06.06,0,0,0-.06-.06l.06-.06.06.06h.06V8.22a.06.06,0,0,0-.06-.06H7.5c0-.06,0-.06.06-.06h.12c0,.06.06.06.12.06l.06.06c.06,0,.12,0,.12-.06H8v.06H8v.06H8V8.22c.06,0,0,.06,0,.12V8.4H8.1c.06,0,.12,0,.06.06h.06l.06.06V8.46l.06-.06h.12v0c-.06,0-.06,0-.06-.06a.06.06,0,0,0-.06.06l-.06-.06H8.22a.06.06,0,1,0,0-.12c0-.06,0-.06-.06-.12A.06.06,0,0,1,8.1,8V7.92H8a.06.06,0,0,0-.06-.06V7.8H7.74V7.74c0-.06,0-.12-.06-.12V7.56H7.8c.06,0,.06,0,.12-.06H8V7.44c.06,0,.06-.06.12-.06v.06L8,7.5l.06.06h.06V7.5a.06.06,0,0,1,.06-.06V7.38H8.1V7.32h0V7.26H8V7.2H8.1V7.14H8V7.08H8.1V7a.06.06,0,0,0,.06-.06h.06c.06,0,.06,0,.06-.06h0V6.78h.24v.06a.06.06,0,0,1,.06-.06v.06c.06,0,0-.06.06-.06l.06-.06h.06v.12l.06-.06a.06.06,0,0,0-.06-.06H8.7V6.48c0-.06,0-.12.06-.12V6.3h.18c0,.06,0,.06.06.06v.12H9a.06.06,0,0,1,.06-.06v.06a.06.06,0,0,0,.06-.06h.12V6.6H9.18c.06,0,.06,0,.06-.06V6.42c.06,0,.12,0,.12-.06h.18v.06H9.6c.06,0,.06.06.12.06a.06.06,0,0,0,.06.06h0c0,.06.06,0,0,.06h.06a.06.06,0,0,1,.06.06v.06h0v.06a.08.08,0,0,1,0,.12v.18c0,.06-.06.06-.06.12l-.06.06h.06V7.5H9.78v.06a.06.06,0,0,0-.06.06v.12a.06.06,0,0,0,.06-.06h.06l-.06-.06h.06a.06.06,0,0,1,.06-.06H10V7.5H10a.06.06,0,0,1-.06.06V7.44H10a.06.06,0,0,1,.06-.06v.06a.06.06,0,0,1,.06.06h.06l.06-.06a.06.06,0,0,0-.06-.06.06.06,0,0,1,.06.06h.06v.12a.06.06,0,0,0,.06-.06h.12c.06,0,.06,0,.06-.06h.06V7.5c0,.06,0,.06.06.06h.24c.06,0,.06,0,.12-.06h.06V7.44h.06c0-.06,0-.06-.06-.06A.06.06,0,0,0,11,7.32V7.26s.06,0,0-.06h.12a.06.06,0,0,1,.06.06v.06h.06V7.26h.12v.06h.12v.06s0-.06.06,0v.06h.06V7.5h.06c0,.06-.06,0-.06.06h.06s.06,0,0,.06h0c0,.06,0,.06-.06.06h-.12v.06a.06.06,0,0,0,.06.06V7.74a.06.06,0,0,1,.06.06.06.06,0,0,0-.06.06c.06,0,.06.06.12.06h.06l.06.06a.06.06,0,0,0,.06.06V7.92c0-.06-.06-.12-.06-.18V7.68H12V7.62h.3V7.56a.06.06,0,0,1,.06.06V7.56h.06l-.06-.06H12.3V7.44h-.06V7.32a.06.06,0,0,0-.06.06h-.06V7.26h.06a.06.06,0,0,0,.06-.06V7.14h.48a.19.19,0,0,0-.12.06h-.06v.06a.06.06,0,0,0,.06-.06c.06,0,.06-.06.12-.06v.12a.06.06,0,0,0-.06-.06H12.6a.06.06,0,0,0,.06.06v.12h.06V7.2l.06-.06H13a.06.06,0,0,0,.06.06v.06H13v.06h.12v.06h.06V7.32c.06,0,.06,0,.06.06h.06v.06c0,.06-.06,0-.06.06h.18c.06,0,.06,0,.06-.06l.06-.06c.06,0,.06-.06.12-.06h.24l.06.06H14a.21.21,0,0,1,.06.12v.06a.06.06,0,0,0,.06-.06h.12V7.44a.06.06,0,0,1,.06.06v.06a.06.06,0,0,1,.06.06V7.56h.06a.06.06,0,0,0,.06.06c0-.06,0-.06-.06-.06V7.44c.06,0,.06,0,.12-.06h.3a.06.06,0,0,1,.06-.06V7.2h.12v.06c0,.06-.06,0-.06,0v.06c.06,0,.06,0,.06.06l.06.06h.3l-.06-.06a.06.06,0,0,0-.06-.06h-.06V7.2l-.06-.06h.18c0-.06.06,0,.06,0h.06s0-.06.06,0H16a.06.06,0,0,1,.06.06h.36v.06h0a.06.06,0,0,0,.06.06h0v.06l.06.06h.06a.06.06,0,0,0,.06.06v.06h.06a.06.06,0,0,0,.06.06V7.56a.06.06,0,0,0,.06.06V7.56H16.8l-.06-.06h-.06V7.44a.06.06,0,0,1,.06-.06.06.06,0,0,0,.06.06V7.38h.12V7.32H17v.06h.12s.06-.06.06,0v.18c0,.06.06,0,.06.06H17.1a.06.06,0,0,1,.06.06v.06h.06v.12h.06V8h.06V8.1h-.06v0H17.1v.06C17.1,8.1,17,8.1,17,8H17v.12a.06.06,0,0,1-.06.06V8.16h-.06a.06.06,0,0,1-.06-.06V8A.06.06,0,0,1,16.74,8V8.1c-.06,0-.06,0-.06-.06V8.1h0v.06l.06.06h.12v.06a.06.06,0,0,0,.06.06V8.7a.06.06,0,0,0-.06.06.06.06,0,0,1-.06-.06h0a.06.06,0,0,1,.06.06H16.8a.06.06,0,0,0,.06.06c.06,0,0-.06.06-.06a.06.06,0,0,0,.06.06h.12l.06.06v.06h.06V8.88a.06.06,0,0,1,.06.06V8.88a.06.06,0,0,1,.06.06h.06a.06.06,0,0,0,.06.06v.12h-.24a.06.06,0,0,1-.06.06v.06H17V9.3l.06.06H17V9.6h-.12l-.06-.06h-.12V9.6h-.06v.06a.06.06,0,0,0-.06-.06l-.06-.06V9.9a.06.06,0,0,1,.06.06l.06.06h.06v.18l.06.06a.06.06,0,0,0,.06.06s-.06,0,0-.06H17v.12c0,.06.06.06.06.12a.06.06,0,0,1,.06-.06v.06a.06.06,0,0,0,.06.06v.06a.06.06,0,0,1-.06-.06V10.5a.06.06,0,0,0-.06.06v.18l.06.06.06.06v.06H17A.06.06,0,0,1,17,11v.12H17a.06.06,0,0,1,.06.06H17s-.06.06-.06,0l-.06.06H17v.12H17v.18H17v.06s-.06-.06,0-.06a.21.21,0,0,0-.06-.12h-.06v-.18c0-.06-.06-.06-.06-.12V11l-.18-.36v-.06a.06.06,0,0,0-.06-.06v-.12c0-.06,0-.06.06-.06v-.12a.06.06,0,0,0-.06-.06H16.5v-.06h.06v-.06h.06a.06.06,0,0,1,.06-.06V9.78h.06V9.6a10182398.54,10182398.54,0,0,0,.12-.12c0-.06,0,0-.06,0V9.12l.06-.06h.06V9h-.24v.06l.06.06v.12h.06V9.3h-.06c-.06,0-.06,0-.06.06v.12l-.06.06V9.48h0V9.36h0v.06h-.06a.06.06,0,0,1-.06.06V10h.06v.06H16.5V10h-.06v.06h-.06v.06h-.06a.06.06,0,0,0-.06-.06V10L16.2,10h-.3a.06.06,0,0,1-.06.06h0l-.06.06h-.24v.06h-.06v-.06h-.12c-.06,0-.06.06-.12.06h-.06c0,.06,0,.06-.06.06a.06.06,0,0,0,.06.06c0,.06-.06.06-.06.12v.24c0,.06,0,.06-.06.06v.12a.08.08,0,0,0,0,.12V11L15,11.1a.06.06,0,0,0-.06.06.06.06,0,0,1-.06.06l.06.06H15c.06,0,.06-.06.12-.06v.06c0,.06.06.06.06.12a1018247.63,1018247.63,0,0,1,.12-.12v0c.06,0,0-.06,0-.12V11.1h.18a.06.06,0,0,0,.06.06c0,.06.06,0,.06.06h.06v.06h.06v.12h.06v.3h.06v.36l-.06.06v.48a.06.06,0,0,1-.06.06v.12h-.06v.12s0,.06-.06,0V13a.06.06,0,0,1-.06.06h-.18V13H15.3v.12h-.06c-.06,0,0,.06-.06.06v.18a5746553012830.94,5746553012830.94,0,0,1-.12.12v.06c-.06,0-.06,0-.06.06h-.06v.12H15c0,.06.06.06.12.06s.06.06.06.12.06.12.12.18V13.5c-.06,0-.06,0-.06.06h-.06a.06.06,0,0,0-.06.06v-.06a.06.06,0,0,0,.06-.06v-.12h-.06v-.06h.06v-.06l-.06-.06-.06-.06H15s0-.06-.06,0v-.06h-.06V13h0v-.18h-.12v-.06l-.06.06h-.06a.06.06,0,0,0-.06.06v.06h-.06v-.24a.06.06,0,0,1-.06-.06l-.06-.06h-.06a.06.06,0,0,1-.06.06v.12h-.06v.18H14.1c-.06,0,0,.06-.06.06V13a.06.06,0,0,1,.06.06v.18h.12V13.2a5746553012831,5746553012831,0,0,1,.12-.12l.06.06h.06v.12h-.12v.06s-.06,0,0,.06h-.06s0,.06-.06,0v.18h.06c.06,0,.06,0,.06.06v.12a.06.06,0,0,1,.06.06v.06h.06a.06.06,0,0,0,.06.06h-.18v-.06l-.06.06h.12a.06.06,0,0,0,.06.06h.06a.06.06,0,0,1,.06.06c.06,0,.06.06.12.06v.06h-.12v.06h-.06a.06.06,0,0,0-.06.06h.06a.06.06,0,0,0,.06.06h.06l.06.06a.06.06,0,0,0-.06.06h0v.06h-.06v.18c-.06,0,0,.06-.06.06a.06.06,0,0,0-.06.06s.06,0,0,.06l-.06-.06v.06h-.06v.06h-.06v.12H14a.06.06,0,0,1-.06.06h-.06l-.06-.06v.06l-.06.06-.06.06H13.5v.12a.06.06,0,0,1-.06-.06v-.06h-.06v-.06h-.12v.06H13.2v.12s0,.06-.06,0a.06.06,0,0,1-.06.06v.06c.06,0,.06.06.12.06v.06a.06.06,0,0,1,.06.06h.06c.06,0,.06.06.12.06s.06.06.06.12v.36a.06.06,0,0,1-.06.06.06.06,0,0,0-.06.06l-.06.06v.12c0,.06-.06.06-.12.06h.06v-.12l.06-.06h-.24v-.12H13L13,16.2h-.12v-.06h-.06v.78h0a.06.06,0,0,0,.06.06h.06A.06.06,0,0,0,13,17H13l.06.06a.06.06,0,0,0,.06.06v.12c0,.06,0,.06.06.12s.06.06.06.12H13.2c-.06,0-.06,0-.12-.06H13L13,17.4l-.06-.06-.06-.06V17a.06.06,0,0,0-.06-.06.06.06,0,0,1-.06-.06s0-.06-.06,0V16.8c-.06,0,0-.06-.06-.12v-.6a.06.06,0,0,0-.06-.06v-.3s-.06-.06,0-.06V15.6a.06.06,0,0,0-.06-.06v.06h-.06c-1.32.48-1.26.48-1.32.54h0Zm-9.54-2.7Zm.06-.06ZM2,13H2c.06-.06.06,0,0,0H2c.06.06.06.12,0,.12H2v-.06c.06,0,.06,0,.06-.06H2S2,13,2,13ZM2,13.2H2c.12,0,.06-.06,0,0l.06.12v0L2,13.2ZM2.1,13Zm.48.72H2.46l-.06-.06v-.06h.18v.12Q2.58,13.59,2.58,13.68Zm-.06.18ZM3,13.38Zm.06.12h0c-.06.06,0,.06,0,0ZM3,13.5Zm.06.12Zm.18.12c0,.06.06.06,0,0Zm.12-.18h0c-.06-.06-.12-.06-.12-.12H3.3s.06,0,.06.12Zm0-.36Zm.06.54Zm-.06.12c.06.06.06,0,0,0h.18v.06H3.48l-.12-.06h0c-.06,0-.06.06,0,0Zm.12-.54Zm0,.36Zm0-.18Zm.06-.06h0c0-.06-.06-.06,0,0Zm-.06-.18Zm0-.06Zm.12.54Zm-.06-.12h0c.06-.06.06,0,0,0Zm.18.18Zm.6.12h0c-.06,0-.06,0-.12.06s-.06,0-.06-.06v-.06h.12l.06.06c0-.06,0-.06-.06-.06S4.32,13.86,4.32,13.92Zm-1.62-1Zm-.06,0Zm-.12-.18Zm-.06-.06h0c.06,0,.06.06,0,0S2.52,12.72,2.46,12.66Zm.06.06ZM2.22,11h0c-.06.06-.06.06-.12.06L2,11.1V11H2.1c.06-.06.06-.06.12-.06h0C2.16,11,2.22,10.92,2.22,11ZM2.1,11Zm.18.12h0c.06,0,.06.06,0,0h0c-.06.06-.06.12,0,0h0c0,.06-.06.06,0,0Zm0,.18Zm-.06,0Zm-.06,0h0c-.06,0-.06-.06,0,0Zm.24,0Zm.12-.06Zm.12-.18V11C2.7,11,2.64,11,2.64,11.1Zm.18-.24h0c.06.06,0,.06,0,0Zm0-.3h0C2.76,10.62,2.76,10.56,2.82,10.56Zm0,.3c0-.06.06-.06,0,0S2.88,10.86,2.82,10.86Zm.06-.48h0c.06.06,0,.06,0,0Zm.18.3h.12v.06c-.06,0-.06,0-.12-.06Zm0-.24Zm.06.18Zm.06.06Zm0-.06Zm.36-.24ZM3,10Zm.24-.36Zm.84-.18Zm1.38-.84Zm1.44.18Zm.84-1.14v.06S7.68,7.68,7.74,7.62Zm0,.12Zm-.24-1c.06-.06,0-.06,0,0Zm.06.06Zm4.56-.6Zm3.12-.48Zm2.1,12.72Zm.06.24Zm0-9.3c.06,0,.06,0,.12.06s-.06,0-.12-.06Zm-.12,9.84h0c.06,0,0,.06,0,0s.06.06.12.06h-.06l-.06-.06c0,.06,0,.06-.06.06H17.1c0-.06-.06-.06-.06-.12a.06.06,0,0,0-.06-.06L16.92,19h-.06A.06.06,0,0,1,16.8,19V19a.06.06,0,0,1-.06-.06V19h-.06v.06H16.5c0-.06,0-.06-.06-.06v.06h.06c.06,0,.06,0,.06.06v.06a.19.19,0,0,0-.12.06c-.12,0-.18,0-.24-.06l-.06-.06v-.06H16V19h0L16,18.9v-.12h-.18c-.06,0-.06,0-.06-.06h-.06V18.6s0,.06-.06,0v-.06a.06.06,0,0,0-.06-.06h.06l.06-.06a.06.06,0,0,0,.12,0H15.6v-.06h-.12l.06-.06v-.06h.06a.06.06,0,0,0,.06-.06c.06,0,.06,0,.12.06h.06v.18c0,.06,0,.12.06.12v0a.06.06,0,0,0,.06.06H16a.06.06,0,0,1,.06-.06.06.06,0,0,0,.06-.06h.06v-.06h.18c.06,0,.06,0,.12.06h.12v.06a.06.06,0,0,1,.06.06h.24a.06.06,0,0,1,.06.06H17v.12h.06l.06.06a.06.06,0,0,1,.06.06H17.1V19a.06.06,0,0,0,.06.06h.06v.06l.06.12h0c0-.06,0-.06.06-.06s-.12,0-.06.06Zm.06-.06c.06,0,.06.06,0,0Zm.06.06Zm-.6,1.08Zm-.36-1Zm-.36-.3c-.06,0-.06.06,0,0a.21.21,0,0,0-.12.06L16,19V19l.06.06Zm0,.06Zm0,1Zm-.3-.6c-.06,0,0-.06,0,0Zm-.12.06Zm-.12-.72Zm0,.06c.06.06,0,.06,0,0Zm0-.06Zm-.12-.06a.06.06,0,0,1-.06.06C15.42,18.78,15.36,18.72,15.42,18.72Zm-.06.06Zm0,.6h0C15.3,19.44,15.3,19.38,15.36,19.38Zm-.36-.9h-.12s0,.06-.06,0v-.06h.06c.06,0,.06,0,.12.06s-.06-.06,0,0h0l.06-.06a.06.06,0,0,1,.06.06v.06h-.06a.06.06,0,0,0-.06-.06Zm.06.54ZM14.88,19ZM14.76,14c0,.06-.06.06,0,0h0c-.06-.06-.06,0,0,0s-.06-.06-.06-.12l.06-.06a.06.06,0,0,0-.06-.06v.06h-.06V13.8a.06.06,0,0,1,.06-.06v-.06h.06a.06.06,0,0,1,.06-.06.06.06,0,0,0,.06-.06V13.5h.06a.22.22,0,0,0,.18-.06h.06v.06h.06v-.24a.06.06,0,0,0,.06-.06.06.06,0,0,1-.06.06.06.06,0,0,0,.06.06c.06,0,.06-.06.12-.06v-.12h.06v-.3h-.06a.06.06,0,0,0,0-.12V12.6s.06,0,0-.06h-.06v-.06h.06v.06a.21.21,0,0,0,.06.12v.24h-.06c0,.06,0,.06.06.12v.36c0,.06,0,.06-.06.06s0,.06-.06,0v-.12s-.06.06,0,.06a.06.06,0,0,0-.06.06v.06s0,.06-.06,0v-.06a.06.06,0,0,0-.06.06h-.24v0H15v.06h-.06v.06c0,.06,0,.06-.06.06a.06.06,0,0,1-.06-.06V13.5H14.7a.06.06,0,0,0-.06.06c-.06,0-.12,0-.12.06s0,.06,0,.06H14.4a.06.06,0,0,0,.06.06h.06v.12l-.06.06v.18c.36-.06.36-.12.3-.06s.06,0,.06.06a.06.06,0,0,1-.06.06c.06-.12,0-.12,0-.12h0Q14.76,14,14.76,14Zm-.06,4.5h-.12v-.06h.06l.06.06.06-.06-.06.06Zm.06.42Zm-.42.36h0V19.2a.06.06,0,0,0,.06-.06h.12l.06-.06h.18c0,.06-.06,0-.06.06h-.12c-.06,0-.06.06-.12.06v.06C14.34,19.26,14.34,19.32,14.34,19.32Zm-.24-.18h-.24a.06.06,0,0,1,.06-.06H14c.06,0,.06,0,.12.06h0c.06-.06.06-.06.12-.06l-.06.06Zm-.6-.84h0c0,.06,0,.12-.06.12s0,.06-.06.06h-.12v-.06H13.2a.06.06,0,0,0-.06-.06H13a.06.06,0,0,1-.06.06V18.3H12.9v-.18a.06.06,0,0,0-.06-.06h0s-.12.06-.12,0a.06.06,0,0,0-.06-.06v-.12c0-.06.06-.06.06-.12l.06.06h.12V17.7h.18l.06-.06.06-.06v-.06h.18l.06-.06V17.4a.06.06,0,0,0,.06-.06c0,.06.06,0,.06.06h.06v.06h.06c0,.06-.06.06-.12.06a.06.06,0,0,1,.06.06H13.5a.06.06,0,0,1,.06.06v.12l.06.06-.06.06.06.06.06.06h-.06a.06.06,0,0,1-.06-.06v.18C13.56,18.24,13.5,18.24,13.5,18.3Zm0,.78-.06.06c0-.06,0-.06.06-.06Zm0-.6h0C13.44,18.54,13.44,18.48,13.5,18.48Zm0,0Zm-.12.6h-.06c0-.06,0-.06.06,0S13.38,19,13.38,19.08Zm-.18-.18Zm-.48-.66Zm0,0Zm0-.12Zm0-2.46h0c.06.12,0,.12,0,.18v.06H12.6v-.12a.06.06,0,0,1,.06-.06l.06-.06h0Zm.66-.48h0C13.44,15.24,13.38,15.24,13.38,15.18Zm.24,1.8a.06.06,0,0,0,.06-.06v-.06h.06v0a.06.06,0,0,0-.06.06h-.06V17h0c0,.06,0,.06-.06.06S13.62,17,13.62,17Zm0-2.1h0C13.62,14.94,13.68,14.94,13.62,14.88Zm.18.12a.06.06,0,0,1,.06-.06h.06v.3a.06.06,0,0,1-.06.06v.12H13.8v-.06c-.06,0-.06,0-.06-.06v-.12A.22.22,0,0,1,13.8,15Zm0-.72ZM14,15.84h0a.19.19,0,0,0,.06.12v.18L14,16.2v.06a.06.06,0,0,0,.06.06v.06a.06.06,0,0,0,.06.06h.18v-.06h.06v.06h.06v.06H14.4a.06.06,0,0,0-.06-.06v-.06h-.12v.06l-.06-.06H14.1v-.06l.06-.06H14.1v.06c-.06,0-.06,0-.06-.06V16.2s-.06-.06,0-.06v-.06h.06V16c0-.06.06-.12,0-.18v-.06h.06c-.18.06-.18.06-.12.06Zm.06.42Zm.06-1.2Zm0-1.44Zm.06.12.06-.06C14.28,13.74,14.22,13.8,14.22,13.74ZM14.28,15Zm.12,1.56h.06v.12l-.06-.12C14.4,16.62,14.46,16.62,14.4,16.56Zm0-3.06c.06,0,.06.06,0,0Zm.12.12Zm0,.18Zm.12,3.3c0,.06.06.12,0,.18v0a.06.06,0,0,0-.06-.06l-.06.06v.12h-.06v-.06h-.18a.06.06,0,0,0-.06-.06v-.06h0a.06.06,0,0,0-.06-.06H14.1V17.1a.06.06,0,0,1-.06.06v0a.06.06,0,0,0,.06-.06h.06V17a.06.06,0,0,0,.06-.06c.06,0,.06.06,0,.06h.06v-.12h.06V16.8a.06.06,0,0,1,.06.06c.24.12.24.12.24.24h0Q14.64,17,14.64,17.1Zm0-3.18h0C14.7,13.86,14.64,13.86,14.64,13.92Zm.06.66Zm0-.06h0C14.7,14.46,14.76,14.46,14.7,14.52Zm.06,3.6Zm-.18.18Zm0,.66h.06c.06.06,0,.06-.06,0Zm-.06-1.32c.06,0,.06.06,0,0Zm-.06.66h0c0,.06-.06,0,0,0Zm0,.78c-.06.06-.06.06-.06,0ZM14.52,18h0a.22.22,0,0,1-.18.06H14c-.06,0-.06.12-.06.18l.06.06a.06.06,0,0,1,.06-.06h.24v.06l-.06.06a.06.06,0,0,0-.06.06h-.06v.06l.06.06h.06v.06a.06.06,0,0,0-.06.06h-.06V18.6H14.1v-.12H14l-.06.06v.24h-.12V18.6H13.8v-.06a.06.06,0,0,1,.06-.06v-.3a.06.06,0,0,1,.06-.06H14a.06.06,0,0,1,.06-.06h.36c.06-.12.06-.12.12-.06l-.06-.06.06.06h0Q14.52,17.91,14.52,18Zm-.12,1.08Zm-.12,0Zm0-.78c-.06-.06,0-.06,0,0h0c.06-.06,0-.06,0,0Zm-.06.36c0,.06-.06.06,0,0s-.06,0,0,0Zm-.06.06Zm-.18.06Zm-.12.36Zm0-.06h0C13.8,19.14,13.8,19.08,13.86,19.08Zm0-2.46h0C13.92,16.68,13.92,16.62,13.86,16.62Zm0-.18Zm.18.12h0c-.06.06-.06,0-.06,0a.06.06,0,0,1-.06-.06H14A.06.06,0,0,1,14,16.56Zm0,.84Zm.18-.66h0c0,.06,0,.06-.06.06v-.12h0A.06.06,0,0,1,14.22,16.74Zm-.06-.18Zm.12,0s.06.06.06,0a.06.06,0,0,1,.06.06c-.06.06-.12,0-.12-.06h0c0,.06-.06.06,0,0S14.28,16.62,14.28,16.56Zm0,0Zm.12.24h0l.06.06a.06.06,0,0,0-.06-.06Zm0-.12Zm0,.18h0c0,.06,0,.06-.06.06l.06-.06Zm-.06,0h0c0-.06,0-.12.06-.12v.06C14.34,16.8,14.34,16.8,14.34,16.86Zm0,.12Zm-.06,0h0c-.06-.06-.06-.06-.12-.06v-.06h.06V16.8h.06V17S14.28,16.92,14.28,17Zm-.12-.12h0C14.22,16.86,14.22,16.8,14.16,16.86Zm0,.42Zm-.06-.66h0C14.1,16.56,14.16,16.62,14.1,16.62Zm0-.12Zm.48.42h0C14.64,16.86,14.64,16.92,14.58,16.92Zm0-2.16h0C14.58,14.7,14.64,14.7,14.58,14.76Zm0,2.1h0c-.06,0-.06.06,0,0Zm-.18-.42h0c-.06-.06,0-.06,0,0S14.34,16.38,14.4,16.44Zm-.78.78Zm-.06-.06Zm0,1.92h.06l.06.06h.06a.06.06,0,0,1-.06-.06h.06v.06h-.12l-.06-.06-.06.06C13.5,19.08,13.5,19.08,13.56,19.08Zm.24.12h.06l.06.06.06.06h-.06l-.12-.12Q13.8,19.29,13.8,19.2Zm.48.12a.06.06,0,0,1-.06.06C14.22,19.32,14.22,19.32,14.28,19.32Zm0,0Zm0-.6h0c-.06,0-.06-.06,0,0v0Zm.6-5.4h0C14.94,13.32,14.94,13.26,14.88,13.32Zm.06-2.88c0-.06,0-.12-.06-.12v-.06a.06.06,0,0,0-.06-.06V10a.06.06,0,0,0-.06-.06V9.9l.06.06h.06V10a.06.06,0,0,0,.06.06.06.06,0,0,1,.06.06.06.06,0,0,0-.06-.06v.06H15v.24l.06.06v.12a.06.06,0,0,0,.06.06.06.06,0,0,0,.06.06l.06.06c0,.06,0,.06.06.06s0,.06.06.06l.06.06-.06-.06H15.3a.06.06,0,0,0-.06-.06h-.12v.3a.06.06,0,0,1,.06.06h.06c0,.06,0,.06.06.06s-.06.06,0,.12v.06a.06.06,0,0,1-.06-.06v-.12a.06.06,0,0,0-.06-.06c0-.06-.06-.06,0-.12V11l-.06-.06v-.3a.06.06,0,0,0-.06-.06A.06.06,0,0,0,15,10.5v-.06c0-.06,0-.06-.06-.12.06.18.06.18,0,.12S14.94,10.5,14.94,10.44Zm.24-1.62Zm.72,3.12h0l-.06.06h-.06c-.06,0-.06.06-.06.12v.06h-.06c-.06,0-.06-.06-.12-.06h-.06a.06.06,0,0,0-.06.06h-.06c-.06,0,0,.12,0,.06l.06.06h.06v.06h-.06v.06a.06.06,0,0,1-.06.06v-.12a.06.06,0,0,1-.06-.06v-.12a.06.06,0,0,1-.06-.06h.12v-.06L15.3,12v-.12c0-.12-.06-.12-.06-.18a.06.06,0,0,1,.06-.06h.06c0,.06.06.06.12.06l.06.06a.06.06,0,0,0,.06-.06v.06C15.84,11.94,15.9,11.94,15.9,11.94Zm0-.06v-.12H16C16,11.82,16,11.82,15.9,11.88Zm-.18,6.42Zm0-.12c.06,0,.06.06.12.06S15.78,18.24,15.72,18.18ZM15.42,13h0c-.06,0-.06-.06,0,0Zm-.12-.78Zm.36,6.06c-.06,0-.06-.06,0,0h0C15.66,18.18,15.6,18.18,15.66,18.24Zm-.54-4.5h0a.06.06,0,0,1-.06-.06H15v.06h-.06v-.06a.06.06,0,0,1,.06-.06v.06h.06c.06,0,.06,0,.06.06h0Q15.12,13.65,15.12,13.74Zm0,4.56h0Zm-.24-.3h0c0,.06.06.06,0,0h-.06v.12a.06.06,0,0,1,.06.06h-.06a.06.06,0,0,0-.06-.06v-.3l.06-.06v.12h-.06l.06-.06a.06.06,0,0,0,.06-.06C14.94,17.94,14.94,17.94,14.88,18Zm-.12-3.84c.06,0,.06.06,0,0Zm.06-.06Zm.06,3.72Zm.18-4.26Zm.06-.06c.06,0,.06.06,0,0Zm.06,4.68Zm-.06,0Zm.06-.06Zm-.42,0h0C14.76,18.18,14.82,18.18,14.76,18.12Zm.06.12c0,.06.06.06,0,0s-.06.06,0,0Zm0,.78Zm0-.48Zm.24.9h.12l-.06.06-.06-.06Q15.06,19.53,15.06,19.44Zm.12-.42h0a.06.06,0,0,1,.06-.06A.06.06,0,0,1,15.18,19ZM16,11.7a.06.06,0,0,1,.06-.06v-.06h.06a.06.06,0,0,1,.06-.06v.06h-.06l-.06.06L16,11.7Zm.18-.18Zm.18-.24c0-.06.06-.06,0,0h0C16.44,11.28,16.44,11.22,16.38,11.28Zm.18-.78h0c0,.06,0,.06-.06.06v.06l.06-.12h0Zm0-.06Zm-.06.36Zm0-.12Zm-.06-.24Zm.24,6.06Zm.12-.24Zm.12,2.34Zm.06-.3H17C17,18.36,17,18.36,17,18.3Zm.12.42Zm.06-9.42.06-.06a10182398.54,10182398.54,0,0,1,.12.12h-.06c-.06,0-.06,0-.12-.06S17.16,9.36,17.16,9.3Zm.18,8.94Zm-.78-9.6a.21.21,0,0,0-.06-.12l.06-.06.06.06a.06.06,0,0,0-.06.06Zm-.48-.78Zm.06.06Zm-1.8,2h0c0,.06,0,.06-.06.06V9.9h.06Q14.25,9.9,14.34,9.9Zm0,.12h0C14.28,10.08,14.28,10,14.34,10ZM14.22,10h0c-.06,0-.06-.06,0,0s-.06-.06,0,0ZM13.74,14h0Zm-1.2,4.32h0c.06.06.06.06.06.12s-.06,0-.06-.12h0c-.06.06,0,.06,0,0h0C12.48,18.42,12.54,18.42,12.54,18.36Zm.06-.72c-.06,0-.06-.06,0,0Zm-.3.66h0c0-.06.06,0,0,0h0a.19.19,0,0,1,.06.12h.06v.06h-.06v-.12c-.06,0-.12,0-.06-.06Zm0-.54Zm-.12.18Zm0,.18Zm0,.06Zm-.12-1.26Zm-.42.06Zm.48,1Zm-.18-.06Zm0,0Zm-.06-.06h0c-.06,0-.06-.06,0,0Zm-.42-.78h0C11.46,17.16,11.4,17.1,11.46,17.1Zm-.3.66Zm.24.24h0c-.06-.06-.06-.06-.06-.12S11.4,17.94,11.4,18Zm.06.12C11.52,18.18,11.46,18.18,11.46,18.12Zm.06.12c-.06,0,0-.06,0,0Zm.06.06c.06,0,.06.06,0,0S11.58,18.36,11.58,18.3Zm.12.12Zm.18.3Zm.36.06h0c-.06,0-.06-.06-.12,0a.21.21,0,0,0-.12-.06h-.12a.06.06,0,0,1-.06-.06c0-.06-.06-.06-.12-.12v-.06c0-.06-.06-.06-.06-.12l-.06-.06-.06-.06v-.12a.06.06,0,0,1-.06-.06H11.4v-.12a.06.06,0,0,1-.06-.06c0-.06-.06-.06-.06-.12a1018223.28,1018223.28,0,0,1-.12-.12c0-.06-.06-.06,0-.12s.06.06.12.06h.18c0,.06,0,.06.06.06v.06a.06.06,0,0,1,.06.06c.06,0,.06,0,.06.06v.12a.06.06,0,0,1,.06.06v.06l.06.06h.06l-.06.06c.06,0,.06,0,.06-.06h0a.06.06,0,0,0-.06.06.06.06,0,0,1,.06.06h.06v.12h.06l.06.06a.06.06,0,0,1,.06.06v.36c.24-.06.24-.12.18-.06S12.24,18.72,12.24,18.78Zm.54.24h-.12c-.06,0-.06,0-.06-.06h-.12V18.9h-.06v-.12h.18v.06c.06.06.12,0,.24,0v-.06h.24a.06.06,0,0,0,.06.06h.12V19H13.2a.06.06,0,0,1-.06-.06H12.9C12.84,19,12.78,19,12.78,19Zm.48,1.56Zm2.16,2.1H15.3a.06.06,0,0,0,.06-.06c0,.06,0,.06.06.06h0C15.42,22.74,15.48,22.74,15.42,22.68Zm.48.72c0-.06,0-.06.06-.06a.06.06,0,0,1-.06.06C16,23.46,16,23.4,15.9,23.4Zm.42.3h0v.18a.06.06,0,0,1-.06.06H16.2a1018215.2,1018215.2,0,0,1-.12.12H16v-.18h.06v-.24h.12a.06.06,0,0,1,.06.06h.18C16.32,23.64,16.32,23.7,16.32,23.7ZM16,23.46Zm0,.06Zm.36,0Zm0-.06c.06-.06.06,0,0,0ZM17.4,21.6v.12c0,.06,0,.06-.06.06v.06a.22.22,0,0,0-.06.18v.12a.06.06,0,0,1-.06.06h-.06v.06l-.06.06H17a509107.85,509107.85,0,0,1-.12.12c0,.06-.06.06-.06.12a.06.06,0,0,0-.06.06l-.06.06v.12l-.06.06v.06a.06.06,0,0,1-.06.06h-.24c-.06.06-.12.06-.12.12h-.06c0-.06,0-.06-.06-.06h.06c0-.06,0-.06-.06-.06A.06.06,0,0,0,16,23s0,.06-.06,0a.06.06,0,0,0-.06.06L15.84,23V23a.06.06,0,0,0-.06-.06h-.06a509115.87,509115.87,0,0,1-.12-.12c0-.06,0-.06-.06-.06v-.06l.06-.06v-.24h0a.06.06,0,0,1,.06-.06V22.2a.06.06,0,0,0-.06.06.06.06,0,0,1-.06.06h-.12v-.06h.06v-.18h.06V22h-.06l-.06.06h-.06a.06.06,0,0,0-.06.06v.06l-.06.06v.12l-.06-.06V22a.06.06,0,0,1-.06-.06h-.06L15,21.9h-.06l-.06-.06-.06-.06h-.3a.21.21,0,0,0-.12.06h-.18c-.06.06-.06.06-.12.06H14C14,22,14,22,14,22h-.36a.06.06,0,0,0-.06.06h-.18a.06.06,0,0,1-.06-.06h-.06V21.9h.06v-.18c0-.06-.06-.06,0-.12v-.18c0-.06-.06-.06-.06-.12v-.24h.06c0-.06,0-.06-.06-.06v0c0-.06,0-.06-.06-.06v-.18l.06-.06v-.12l.06-.06v.12h.06v-.06c.06,0,.06,0,.12-.06a.06.06,0,0,0,.06-.06l.06-.06h.12l.06-.06h.06c.06,0,.06,0,.06-.06h.24a.06.06,0,0,0,.06-.06l.06-.06V20h.06V20a.21.21,0,0,0,.06.12V20h.12v-.12h.12s0-.06.06,0,0-.06.06-.06l.06-.06a.06.06,0,0,0,.06-.06h.06l.06.06v.12h.06v-.06h.06a.06.06,0,0,0,.06.06h-.06v-.06a.06.06,0,0,1,.06-.06v-.18h.18v-.06h.06v.06h.12v.12a.06.06,0,0,1,.06-.06v.06h.06a.06.06,0,0,1-.06.06v.06h-.12V20a.06.06,0,0,1,.06.06s.06,0,0,.06h.12l.06.06v.06h.12v.06a.06.06,0,0,1,.06.06H16c.06,0,.06,0,.12-.06s.06-.06,0-.12v-.48L16,19.62V19.5h.06v.3l.06.06h.06v.06l.06.06v.54h.3v.06c0,.06,0,.06.06.06v.18h.06v.06l.06.06V21h.06c0,.06,0,.12.06.12s0,.06.06.06v.12c.48.18.48.18.48.3Q17.4,21.51,17.4,21.6Zm-1.68-1.86Zm1.74,1.5h0v-.12A.08.08,0,0,1,17.46,21.24Zm0-2Zm.12-.54h0a.06.06,0,0,0-.06.06h-.18l-.06-.06h.18v0h.12c0-.06.06-.06.06-.12h.06v-.06h.06v.06H17.7C17.58,18.66,17.58,18.66,17.58,18.72Zm.06-.18h0l-.06-.06a.21.21,0,0,1-.12-.06l.06.06a.06.06,0,0,1,.06.06c.06-.06.06-.06.06,0s0-.06,0,0h0c.06.06.06.06.06.12V18.6c-.06,0,0,0-.06-.06S17.7,18.6,17.64,18.54Zm.06.9Zm.06,0Zm0-9.66h0c-.06,0-.06.06-.12,0s.06-.06.12,0h0l.06-.06v.06C17.76,9.72,17.76,9.72,17.76,9.78Zm.12-.06a.06.06,0,0,0,.06-.06A.06.06,0,0,1,18,9.6h.06a.06.06,0,0,0-.06.06v.06h-.12Zm0,9Zm0,.06h0c.06,0,.12,0,.12.06h-.06A.06.06,0,0,0,17.88,18.78Zm.18,6.06h0v0Zm1-1V24a1018215.56,1018215.56,0,0,1-.12.12H18.9l-.06.06a.06.06,0,0,0-.06.06v.06s.06.06,0,.06h-.12v.06h-.12c0,.06-.06.06-.06.12a.06.06,0,0,0-.06.06c0,.06,0,.06-.06.12s-.06,0-.12.06-.06.06-.12.06v-.12h-.06a.06.06,0,0,1,.06-.06V24.6l.06-.06v-.12c.06,0,.06-.06.12-.06h.06V24.3a.06.06,0,0,0,.06-.06l.06-.06h.06a.06.06,0,0,0,.06-.06v-.06h.06V24h.06l.12-.12.06-.06v.12c.12-.06.12-.06.18-.06h0S19.08,23.82,19.08,23.88Zm-.36-14.4Zm.48,10.44c-.06,0-.06.06,0,0s-.06,0,0,0l-.06-.06V19.8c0,.06,0,.06.06.12h0Zm.06.18h0L19.2,20A.06.06,0,0,1,19.26,20.1ZM19.2,9.24Zm0,11.52Zm-.06-1.38ZM19,20.64Zm.06.18H19v-.06A.06.06,0,0,0,19,20.7v-.06H19c.06,0,.06.06.06.18-.06-.06-.12-.06,0,0Zm-.3-11.28h0c0-.06.06-.06,0,0Zm.36,11.1h0C19.08,20.7,19.08,20.64,19.14,20.64Zm.6,2.7h0a.21.21,0,0,1-.06.12h-.06v.06h0c0,.06-.06.06-.06.12l-.18.18s0-.06-.06,0h-.06c0-.06.06-.06.06-.12s0-.12-.06-.12l-.06-.06v-.06l.06-.06c.06,0,.06-.06.06-.12V22.8h.12V23h.06v.24a.06.06,0,0,1,.06.06h.06a.06.06,0,0,0,.06-.06A.19.19,0,0,1,19.74,23.34Zm-.48-3.24Zm.06.12Zm0-.18ZM19.44,9.3ZM19.5,23Zm.3-14h0l-.06.06h-.06v.06h-.06l-.06.06.06-.06V9.12h-.06V9h.06s.06-.06.06,0,.12,0,.12.06,0-.06,0,0S19.86,9.06,19.8,9.06ZM19.86,9h-.12c.06-.06.06-.06.12,0l-.06-.06c.06,0,.06,0,.06.06Zm0-.3Zm.06.18Zm.66-.18c-.06,0-.06.06,0,0l-.06.06h-.06c.06,0,.06-.06.12-.06h0S20.58,8.64,20.58,8.7Zm-.12,0Zm.06-.06h0c0,.06,0,.06-.06.06Zm0-.12Zm.06.06Zm.06.12h0C20.7,8.64,20.64,8.64,20.64,8.7Zm.12.12Zm.66.78Zm0-.18h0l.06-.06v.06c0,.06,0,0-.06,0l.06.06h.06v.06l-.12-.12a.21.21,0,0,0,.06.12h-.06Zm.24.36c-.06,0,0-.06,0,0Zm0,0Zm-.06-.06h0c-.06-.06-.06-.06-.06-.12h.06c.06.06.06.12,0,.12Zm0-.18v0h0l-.06.06s-.06.06-.06,0V9.54h.06V9.36a.06.06,0,0,1,.06.06c0,.06.06.06,0,.12Zm-.12.54Zm0-.06Zm0-.12Zm.06,0Zm0-.12h0c-.06.06-.06,0,0,0s-.06.06,0,0h0v0Zm-.12-.06h0V9.6c.06,0,.06.06,0,.12S21.48,9.66,21.42,9.72Zm.06.24Zm.06.36c0,.06,0,.06-.06.06v.12h-.06c0-.06-.06-.06-.06-.12v-.06h.06c0-.06,0-.06-.06-.06v-.18h.06c.06.18.06.18.12.24h-.06v.06c0-.06,0-.06.06-.06h0C21.54,10.26,21.6,10.26,21.54,10.32Zm.06-.3c.06.06,0,.06,0,0h0v.12h-.06c0-.06,0-.06.06-.12h0c-.06.06,0,.06,0,0h-.12v.06Zm.06-.18Zm0,0Zm4.68,13.68h0c-.06,0-.06-.06,0,0h0c-.06-.06-.06-.12,0,0,0-.06-.06-.06,0,0S26.34,23.46,26.34,23.52Zm0,.12c-.06,0-.06.06,0,0s-.06,0,0,0h0c-.06,0-.06,0-.06-.06v-.06h.06v.12h0S26.28,23.64,26.34,23.64Zm0,.3c0,.06.06,0,0,0Zm0-.18Zm0,.06h0c-.06-.06-.06,0,0,0Zm-.12-.24h0c0-.06.06-.06,0,0Zm.06-.12Zm-.06.18Zm.06.06C26.28,23.76,26.22,23.7,26.28,23.7Zm0,.12Zm0,.06Zm.06.18h0c-.06,0-.06-.06,0,0S26.28,24,26.34,24.06Zm.12.06H26.4c-.06-.06,0-.06.06,0Zm2.64-5Zm-.66-7.14Zm-.06.06h0c0,.06.06,0,0,0h0v.12h.06v.06a.06.06,0,0,1-.06.06v.12a.06.06,0,0,1,.06-.06s-.06.06,0,.06v.06a.06.06,0,0,1-.06.06.06.06,0,0,0,.06-.06h-.06s-.06.06-.06,0v-.06l.06-.06v-.06h-.06v-.12l.06-.12h0c0,.06,0,.12-.06.12a.06.06,0,0,1-.06.06v.06l.06-.06a.06.06,0,0,1,.06-.06h.06a.06.06,0,0,0-.06.06v.06c-.12-.24-.06-.24,0-.24h0C28.32,12,28.32,12.06,28.38,12Zm.06,5.82Zm0,0Zm0-.18Zm-.24-5.28Zm0-.06Zm-.06-1.14h0c.06.06.06,0,.06.06h-.06a.06.06,0,0,0-.06.06.06.06,0,0,1-.06-.06l.06.06s.06,0,0-.06l.06-.06h0c.12,0,.12,0,.12.06H28.2a.06.06,0,0,1,.06-.06h.06l.06.06h-.06v.06h.06v.06l-.06.06h-.06v.12H27.9v.06a.06.06,0,0,1-.06.06v.06h-.12a.06.06,0,0,0-.06.06H27.6v.06l-.06.06c0,.06-.06.06-.06.12s.06,0,.06-.06a.06.06,0,0,1,.06-.06l.12-.12H28a.06.06,0,0,1,.06.06h-.18v.06h.06v.06H28v.12h.3a.06.06,0,0,0-.06.06h-.12v.06l-.06.06v-.12a.06.06,0,0,1,.06-.06.06.06,0,0,0,.06-.06h.06a.06.06,0,0,0,.06-.06H28.2a.06.06,0,0,0,.06-.06l-.06.06h-.12V12H28a.06.06,0,0,1-.06.06v.06H27.9c0,.06,0,.06-.06.06v.12h-.06v-.06a.06.06,0,0,1-.06.06v0h-.24v.3h-.06a.06.06,0,0,0-.06.06v.24L27.3,13V12.9h-.06v.3a.06.06,0,0,1-.06.06v.18a.06.06,0,0,0,.06.06v.18h.06v.06h.06v.12H27.3v.06h.06c.06.06,0,.06-.06.06h-.06c-.06,0-.12.06-.18.06v.18H27v.06a.06.06,0,0,1-.06.06V15c0,.06-.06.06-.06.12h-.06v-.24c0-.06.06-.12,0-.18l-.06-.06v-.06H26.7a.06.06,0,0,0-.06-.06H26.4v-.06l-.06.06h-.12a.06.06,0,0,0-.06.06v.06H26.1a.06.06,0,0,1,.06.06h0v.06H26.1s-.06,0,0,.06h-.18s0,.06-.06,0v0l-.06.06h-.12V15a.06.06,0,0,1-.06.06v.18a.06.06,0,0,1,.06-.06v.48s.06.06,0,.06v.12l.06.06a.06.06,0,0,0,.06.06c0,.06.06.06.06.12h.06v.06H26a.06.06,0,0,0,.06-.06h.24V16a.06.06,0,0,0,.06-.06V15.9l.06-.06v-.06l.06-.06h.24l.06.06v.06l-.06.06v.18l-.06.06v.12c0,.06,0,.06-.06.12a.06.06,0,0,0-.06.06h.18a.06.06,0,0,1,.06.06h.18a.06.06,0,0,1,.06.06v.12s-.06,0,0,.06V17c0,.06.06.06.06.12l.06.06a.06.06,0,0,0,.06.06c.06,0,.06.06.12.06a.06.06,0,0,0,.06-.06h.12a.06.06,0,0,1,.06.06l.06.06v-.06l.06-.06a.06.06,0,0,0,.06-.06V17.1h.12c.06,0,0-.06,0-.06h.06A.21.21,0,0,1,28,17h.06a.06.06,0,0,1,0,.12H28v.24c.06,0,.06,0,.06-.06v-.12l.06-.06A.06.06,0,0,0,28.2,17h.06V17H28.2a.06.06,0,0,1,.06-.06V17a.06.06,0,0,1,.06.06v.06h.18l.06.06h.06c.06,0,.06,0,.06-.06h.06a.06.06,0,0,1,.06.06h.12v.06a.06.06,0,0,1-.06.06H29a.06.06,0,0,1,.06.06v.06l.06.06v.12a.06.06,0,1,1,.12,0v.06a.08.08,0,0,1,.12,0h.12v.06h.12v.06c0,.06.06.12.06.18v.12l-.06.06-.06.06c0,.06,0,.06-.06.06v.06a.06.06,0,0,1,.06-.06v.06a.06.06,0,0,1,.06-.06v-.06h.12c0,.06,0,.06-.06.06s-.06.06-.06,0h-.06v0l.06-.06a.06.06,0,0,1,.06-.06h.12v.12H30v.12h.06v.06h.12v2a.06.06,0,0,1-.06.06c-.06,0,0,.06-.06.06a.06.06,0,0,0,.06-.06h-.06v1.2c-.06,0,0,.06-.06.06V22h-.12v0l-2.22-.36v.48H27.6v.06h-.12v.3h-.12s-.06-.06-.06,0v.18h.18v.18h.06s-.06,0,0,.06V23h-.06v.12l.06.06v.6s.06,0,0,.06h-.06v.18h0v.24h-.12v-.12h.06v.06h.12s0-.06.06,0v-.06h0V24h-.12v-.12a.06.06,0,0,1-.06-.06v-.3h-.06v-.06h.06V23h-.06l-.06-.06v-.48a.06.06,0,0,1,.06-.06V22.2l.06-.06V22a.08.08,0,0,0,0-.12V20.52l-.06-.06H27.3V20.4l-.06-.06c-.06,0-.06,0-.06-.06h-.06a.06.06,0,0,0-.06-.06H27v-.06a.06.06,0,0,1-.06-.06V20c0-.06,0-.06-.06-.06v-.06c0-.06,0-.06-.06-.06s-.06-.06-.06-.12v-.12a.06.06,0,0,0-.06-.06v-.12a.06.06,0,0,1-.06-.06l-.06-.06h.06v-.12l.06-.06h.06l.06-.06V18.9a.06.06,0,1,1-.12,0v-.12s0-.06.06,0a.06.06,0,0,1,.06-.06v-.06h.06a.06.06,0,0,0,.06-.06v-.12l.06-.06.06-.06h.06v-.42l-.06-.06v-.06H27a.06.06,0,0,0-.06-.06h-.06c0,.06-.06.06-.06.12s.06,0,.06.06-.06,0-.06.06h-.06v0a.06.06,0,0,1-.06-.06h-.12a.06.06,0,0,1-.06-.06.06.06,0,0,0-.06-.06v-.06H26.4v.12h-.06v-.12a.21.21,0,0,1-.06-.12l-.06-.06v-.06H26.1a.06.06,0,0,0-.06-.06c-.06,0-.06-.06-.12-.06h-.18v-.06a.06.06,0,0,0-.06-.06l-.06-.06-.06-.06h-.18a.06.06,0,0,1-.06-.06H25.2c-.06,0-.06,0-.06-.06H25V17H24.9a.06.06,0,0,0-.06-.06l-.06-.06c-.06,0-.06,0-.12-.06s-.06-.06-.06-.12h-.06v-.06s-.06-.06,0-.06h.06l.06-.06a.21.21,0,0,0-.06-.12v-.06a.06.06,0,0,0-.06-.06l-.06-.06a.13.13,0,0,0-.12-.12H24.3V16L24.24,16c0-.06,0-.06.06-.06v-.06h-.06a.06.06,0,0,1-.06-.06v-.06c-.06,0-.06,0-.06-.06V15.6a1018223.62,1018223.62,0,0,0-.12-.12v-.06c0-.06,0-.06-.06-.12h-.06v-.06l-.06-.06h-.06v.3a.06.06,0,0,0,.06.06v.06l.06.06v.18c.06.06,0,.12.06.18v.12a.06.06,0,0,1,.06.06.06.06,0,0,0,.06.06v.06c0,.06,0,.06-.06.06V16.2a.06.06,0,0,1-.06-.06h-.06a.08.08,0,0,0,0-.12V16a.06.06,0,0,1-.06-.06v-.06h-.06v-.06a.06.06,0,0,1-.06-.06h.12v-.06a1018224,1018224,0,0,1-.12-.12h-.06v-.12a.06.06,0,0,0-.06-.06l-.06-.06a.21.21,0,0,0-.06-.12v-.12A.06.06,0,0,0,23.4,15h-.06a.06.06,0,0,0-.06-.06v-.06h-.12v-.12a.06.06,0,0,0-.06-.06v-.36H23c0-.06-.06-.06-.06-.12v-.06C23,14.1,23,14,23,14s0-.06.06-.06v-.24a2894974996685.16,2894974996685.16,0,0,1,.12-.12c0-.06,0-.06.06-.12V12a.21.21,0,0,1,.06-.12h.12a.06.06,0,0,0-.06-.06h-.06v-.3a.06.06,0,0,1,.06.06h.06c0,.06-.06,0-.06.06v.12h-.06l.06-.06v-.06h.06V11.4h-.06v-.12a.06.06,0,0,1-.06-.06v-.06a.06.06,0,0,1,.06-.06v.06h-.06c.06,0,.06,0,.06-.06a.06.06,0,0,0-.06.06h-.06a.06.06,0,0,1-.06-.06h.06V11h0V11h.06l.06-.06v-.06l-.06.06.06-.06v-.12h.06a.06.06,0,0,1-.06-.06.06.06,0,0,0,.06-.06l-.06.06v.06a.06.06,0,0,0-.06-.06V10.5l.06-.06.06-.06h-.06c0,.06,0,.06-.06.06v-.06c0-.06.06-.06.06-.12a.06.06,0,0,1-.06.06v.06a.06.06,0,0,1-.06.06v-.06h.12v-.06h-.12a.06.06,0,0,1-.06.06c-.06-.06.06-.06.06-.12h-.06s-.06-.06,0-.06V10A.06.06,0,0,0,23.1,10v-.3L23,9.6V9.42h-.12V9.36h-.06a.06.06,0,0,0-.06-.06h-.12v0h-.06V9.24h-.18a.06.06,0,0,1-.06-.06c0-.06,0,0,.06,0a.06.06,0,0,1-.06-.06h-.12V9.06c-.06,0,0,.06-.06.06v0h-.06s0,.06.06,0h0c0,.06,0,.06-.06.06h-.06v.06H22V9.18c0,.06,0,.06-.06.06V9.18H21.9v.06a.06.06,0,0,0-.06.06v0h-.06l.06-.06h-.06V9.18c0-.06.06-.06.06-.12A.06.06,0,0,0,21.9,9H22V9l.06-.06H22V8.88l-.06.06a.06.06,0,0,0-.06.06c-.06,0-.06,0-.06.06l-.06.06c0,.06-.06.06-.06,0H21.6v.06h-.06s0,.06-.06,0h-.06l-.06.06V9.3h.06a.06.06,0,0,0,.06.06v.06h-.12v.06h-.12l-.06.06a.06.06,0,0,0-.06.06v.06h-.24v0h-.12V9.6h-.12a.06.06,0,0,1-.06.06.06.06,0,0,1,.06-.06h-.06c0,.06,0,.06-.06.06h-.06V9.6a.06.06,0,0,1-.06.06v0h.12l.06-.06.06-.06h.06V9.42h.18a.06.06,0,0,0,.06-.06h0A.06.06,0,0,1,21,9.3h.06V9.24a.06.06,0,0,1,.06-.06V9c0-.06.06-.06.12-.06V8.88a.06.06,0,0,0-.06.06h-.06l-.06-.06V8.82c-.06,0-.06,0-.06.06V8.82h-.06c-.06,0-.06,0-.12.06h.06V8.76h.06V8.64a10182417,10182417,0,0,0,.12-.12H21a.06.06,0,0,0-.06.06v.06a.06.06,0,0,1-.06.06h-.06a.06.06,0,0,1-.06-.06V8.46h.12V8.4l.06-.06V8.4h-.18V8.22l.06-.06V8.1A.06.06,0,0,0,20.88,8,1018219.67,1018219.67,0,0,1,21,7.92l.06.06h.06V8L21.18,8h.24a.06.06,0,0,1,.06-.06V7.86l.06.06h.06a.06.06,0,0,0,.06-.06l.06-.06V7.68l.06-.06h-.06a.06.06,0,0,0,.06-.06V7.5H21.6a.06.06,0,0,1-.06.06v0a.06.06,0,1,0-.12,0l-.06-.06a.06.06,0,0,1-.06-.06c0-.06,0-.06.06-.12s-.06-.06,0-.06h.06a.06.06,0,0,1,.06.06h.06a.06.06,0,0,0-.06-.06l-.06-.06V7.14c.06,0,.06,0,.06-.06h.24s-.06,0,0-.06h.18a.06.06,0,0,1,0,.12V7.2H22a.06.06,0,0,0,.06.06h.06c0-.06,0,0,.06-.06v.06h.06V7.2h-.06v0h.06a.06.06,0,0,0,.06.06V7.2s-.06-.06-.06,0h-.06c-.06,0,0-.06,0-.12A1018220,1018220,0,0,1,22,7c0-.06.06-.06.06-.12S22,6.66,22,6.6V6.48l.06-.06h.36c.06,0,.06-.06.12-.06h.12a.21.21,0,0,1,.12-.06h.12c.06,0,.06,0,.06.06h.12c0,.06-.06.06-.06.12s0-.06.06-.12l.06-.06h.12c.06,0,.06-.06.12-.06h.06V6.3h.06v.06H23.4v.06h.06l.06-.06v.06h.12v.06a.06.06,0,0,0-.06.06.06.06,0,0,1,.06.06h0v.06l.06-.06h.12l.06.06a.06.06,0,0,1-.06.06.06.06,0,1,1,.12,0c.06,0,.06,0,.06.06h.24V6.9h.06c.06,0,.06.06.12.06v.12c0,.06.06.06.06.12v.12s0,.06.06,0v.12h.06V7.32a.06.06,0,0,0,.06-.06c.06,0,.06-.06.12,0h.3v.06H24.9v.06h-.06l-.06.06V7.5H25v.06c.06,0,.06,0,.06-.06h.18l.06-.06h.06V7.38l.06-.06v.3c0,.06,0,.12.06.12a.06.06,0,0,1-.06-.06h.12V7.62h.06s0-.06.06,0v.12a.06.06,0,0,1,.06.06h.06a.06.06,0,0,1,.06-.06h.06a.06.06,0,0,1,.06.06v.12A.21.21,0,0,0,26,8,.06.06,0,0,1,26.1,8V8.1a.06.06,0,0,0,.06.06c.06,0,.06,0,.06.06V8.4H26.1v.12h.24c.06,0,.06,0,.12-.06v.18a.06.06,0,0,1,.06-.06v0c-.06-.06,0-.12,0-.18h.12V8.34h0V8.28h-.06v.06h-.06V8.28h.24l.06.06v.12h.12a.06.06,0,0,0,.06.06h.12l.06.06h.06s-.06-.06,0-.06v.06a.06.06,0,0,0,.06.06.06.06,0,0,0-.06-.06V8.4a.06.06,0,0,0,.06-.06V8.4h.18s-.06,0,0,.06v.18h-.06V8.58h.06V8.46a.06.06,0,0,1,.06-.06h.06V8.28h.12v.06l.06-.06h-.12V8.16l.06-.06h.06V8A.06.06,0,0,1,27.84,8a.06.06,0,0,1-.06-.06h.06s.06,0,0-.06h.06v.06H28v.42l-.06.06a.06.06,0,0,0-.06.06h.06V8.7A.06.06,0,0,1,28,8.64v.24s-.06,0,0-.06V8.64L28,8.7h.06a.06.06,0,0,0,.06.06h.06a.06.06,0,0,1-.06.06H28v.12h-.18V8.76h-.06v.12a.06.06,0,0,0-.06-.06v.06h-.06V8.82H27.6v.06h.06c-.06,0-.06.06-.06.12h-.12a.06.06,0,0,1-.06-.06V8.88h.06v.06l.06.06h.06a.06.06,0,0,1,.06.06l-.06.06a.06.06,0,0,1-.06.06l-.06.06v0l-.06-.06-.06-.06c-.06,0-.06,0-.06-.06A.06.06,0,0,1,27.24,9v.06l.06.06v.06a.06.06,0,0,0-.06.06.06.06,0,0,1-.06-.06V9.3h-.06v.06H27c-.06,0,0,0-.06.06h-.06v.12a.19.19,0,0,1-.06.12v.18c0,.06,0,.06-.06.06a.21.21,0,0,0,.06-.12h.06c0,.06.06.12,0,.18V10l-.06.06h.24l.06.06a.06.06,0,0,0,.06.06l.06.06v.06c.06.06.12.06.12.12v.06h.18v.06a.19.19,0,0,1-.06.12v.24s.06,0,0,.06V11h.06v.18h.12l.06-.06v.06h.06v-.48h.06a.19.19,0,0,0,.12-.06.06.06,0,0,0,.06-.06l.06-.06V10.2c0-.06,0-.06-.06-.06H28v-.06L28,10V9.78c0-.06,0-.06.06-.06V9.54h.12a.06.06,0,0,1,.06.06h.12l.06.06h.06v.06s.06,0,0,.06V9.9a.06.06,0,0,0,.06.06h.06c.06,0,0,.06,0,.06s-.06,0-.06.06v.12H28.5c0,.06,0,.06-.06.12v.24h.06a.06.06,0,0,1,.06-.06v-.3c0,.06,0,0-.06.06h.06v.12H28.5v.06h.06v.06a.06.06,0,0,0-.06.06h.12v.06h0v.12h.06v.18a.06.06,0,0,1-.06.06h.06c-.6.18-.6.12-.54.18h0ZM27.6,12.3h0c.06,0,.06.06,0,0h0c.06,0,.06.06.12.06h.06v.06c-.06,0-.06,0-.06-.06s-.06,0-.12-.06S27.66,12.36,27.6,12.3Zm.18-.36h0c-.06-.06-.12-.06-.12-.12h.12v.12c.06,0,.06-.06,0,0Zm.06.42c0-.06.06-.06.06-.12,0,.12,0,.12-.06.12h0l.12.12c-.12-.06-.12-.06-.12-.12Zm-.24,4.38s-.06.06-.06,0,0,0,.06,0l-.06-.06.06.06ZM27.54,16Zm0-.06Zm.06.24Zm-.06-.06Zm.06.18h0C27.54,16.38,27.6,16.38,27.6,16.32Zm0,0c0-.06-.06-.06,0,0Zm-.12-.48h0c-.06,0-.06.06,0,0Zm-.18.84Zm-.12-.78h-.12v-.06C27.12,15.84,27.12,15.84,27.18,15.9ZM27,13Zm-.06,2.88h-.12a.06.06,0,0,1-.06.06v-.06h-.18l-.06-.06v-.06h.18l-.06-.06V15.6h.24a.06.06,0,0,0,.06.06h-.06l.06.06h.12c-.12.12-.06.12-.12.12S27,15.84,26.94,15.84Zm-.06.72Zm-.12,0h0C26.76,16.5,26.82,16.5,26.76,16.56Zm-.54-.84H26.1c0-.06,0-.06.12,0l-.06-.06H26.1v-.12H26c-.06,0-.06,0-.06-.06h-.24l-.06.06h-.06v.06h-.06s-.06.06-.06,0h.06v-.06l.06-.06h.18l.06.06h.06a.06.06,0,0,1,.06.06H26a.06.06,0,0,1,.06.06v.06h.12v.12h.12v.06h-.12c.06-.18,0-.24,0-.18S26.22,15.66,26.22,15.72Zm0,.18H26v-.06h.12C26.16,15.9,26.16,15.9,26.22,15.9Zm-.48-.12Zm-.18-.3h0C25.62,15.48,25.56,15.54,25.56,15.48Zm.6-.3Zm-.06-.06Zm0-.24c-.06.06-.06,0-.06,0Zm.06,0h0c.06,0,0-.06,0,0h0l.06.06V15c0-.06-.06-.06-.06-.12S26.22,14.88,26.16,14.88Zm0,.18Zm.06,0Zm.12.18h0l.06.06c-.06.06-.06,0-.06-.06Zm0-.06Zm.24.24h0c-.06,0-.06-.06,0,0Zm0,.24Zm-.06-.06h0c-.06-.06,0-.06,0,0Zm-.06-.24h0C26.4,15.42,26.46,15.42,26.46,15.36Zm-.06-.12Zm.12.54ZM26.88,13h-.12c0-.06.06,0,.06-.06l.06.06h0Zm-2.64,1.62Zm4.14,3.24ZM26.58,24h0c-.06,0-.06.06,0,0Zm-.36-1Zm.12-.3h0l.06-.06v.06h-.06c0,.06,0,.06.06.06v.12h-.06Zm.06.24h0c0,.06.06,0,0,0Zm-.06.12Zm0,.06Zm0-.24Zm0,.06Zm0,0h0c0,.06-.06.06,0,0ZM21.78,10.5Zm0-.06Zm0,0Zm.06.12C21.78,10.62,21.78,10.56,21.84,10.56Zm-.06.18Zm0-.12Zm0,.36c0,.06.06.06.12.06H22v.06c0,.06.06.06,0,.12l.06.06v.18a1018223.62,1018223.62,0,0,0-.12-.12v-.06H21.9V11c-.18,0-.18,0-.12-.06h-.06c0-.06,0-.06.06,0h0C21.78,10.92,21.72,10.92,21.78,11Zm.12,0Zm.06.12Zm.06.06Zm-.3-.78a.06.06,0,0,1,.06.06A.06.06,0,0,1,21.72,10.38Zm0-.06h0c-.06,0-.06-.06,0,0Zm-.06-.18Zm.06.06Zm0-.18h0c0-.06,0-.06.06-.06a.06.06,0,0,0-.06.06Zm0,.06Zm0,.3Zm.42,1.14h0c.06-.06,0-.06,0,0S22.14,11.46,22.14,11.52Zm-.3-.78h0l.06-.06-.06.06Zm-.12-.9ZM20.1,8.52Zm-1,.18Zm.42-1.2Zm6.6-.3Zm0,0Zm0,.18h0V7.14a.06.06,0,0,0,.06.06V7.14h.18a.06.06,0,0,0,.06.06l-.06.06h0v.06h-.06a.06.06,0,0,1-.06.06c-.06.06-.06.06-.12,0Zm0-.6Zm0,.12h0Zm.18-.3Zm0,0Zm0,.12h0c0-.06.06-.06,0,0h0c0-.06.06-.06,0,0s0-.06.06-.06v.12a.06.06,0,0,1-.06-.06h0Zm.12-.12Zm-.12.06c-.06,0-.06-.06,0,0s0-.06,0,0Zm0,1.44Zm.18.36Zm0,0ZM26.52,8Zm.3.12h0c0,.06.06.06,0,0Zm.12,1.32Zm-.24.3h0c0-.06,0-.06-.06-.06V9.66a.06.06,0,0,0,.06-.06v.06c.06.06.06.06,0,.12S26.76,9.72,26.7,9.78Zm-.12,1h0c-.06-.06-.06,0,0,0s0-.06,0,0h0c.06-.06,0-.06,0,0Zm-.12.6Zm-.06-.18Zm.06-1.56h0a.19.19,0,0,0,.06-.12h.06V9.6Zm.18,1.08h0C26.58,10.74,26.64,10.74,26.64,10.68Zm-.06-1.32c0-.06,0-.06-.06-.06v0l.06.06c0-.12,0-.18.06-.18V9.06A.06.06,0,0,1,26.7,9h.06v.12c0,.06,0,.06.06.06v.24h-.06c-.12,0-.12-.06-.18-.06h0S26.64,9.36,26.58,9.36Zm-.24,1.86h-.06s0-.06.06,0Zm.18-2.34h0C26.46,8.94,26.46,8.88,26.52,8.88Zm.12.06h0c-.06-.06-.06-.06-.06-.12s0,.06.06.12Zm.36.48h0l.06.06c-.06,0-.12,0-.06-.06Zm.12.24Zm.3.06c.06,0,.06,0,.06.06A.06.06,0,0,1,27.42,9.72Zm.12.48h0c0-.06.06-.06,0,0l.06-.06-.06.06Zm.3-.18ZM27.78,10Zm.12-.24Zm.12-.6ZM27.48,8c.06,0,.06.06,0,0Zm-.06-.18h0l-.06.06s-.06,0,0,.06h0s.06-.06,0-.06l.06-.06V8h.06a.06.06,0,0,1-.06.06v.06a.06.06,0,0,1,.06-.06s-.06.06,0,.06v0h-.06a.06.06,0,0,1,.06-.06v.12a.06.06,0,0,1,.06-.06v.06c.06,0,.06-.06.06,0V8.4h-.06a.06.06,0,0,0,.06-.06h.06a.06.06,0,0,0-.06.06h.06v.06a.06.06,0,0,1,.06.06v.06h-.06v.06a.06.06,0,0,1-.06-.06l.06.06a.06.06,0,0,1,.06.06h-.06v.18a.06.06,0,0,1,.06-.06v.06a.06.06,0,0,1,.06-.06v.06h.06V9a.06.06,0,0,1,.06-.06v0S28,9,27.9,9h-.06V9c0,.06.06,0,.06.06h-.06V8.94L27.78,9h-.06l.06-.06V9h-.06V8.94H27.6a.06.06,0,0,1,.06.06v.36c.06,0,0,.06,0,.06v.12a.08.08,0,0,1,0,.12L27.6,9.6v0a.06.06,0,0,0-.06-.06V9.6a.06.06,0,0,0-.06-.06V9.48l-.06-.06v0a.06.06,0,0,0,.06.06v.06s.06.06,0,.06v.12h-.12V9.66L27.3,9.6V9.48h.06V9.3l-.06.06V9.3h-.18V9.24a.06.06,0,0,0-.06-.06V9.12h.06V9.06a.06.06,0,0,0,.06.06v.06h.06s0-.06.06,0a.06.06,0,0,1,.06-.06c.06,0,0-.06-.06-.06L27.36,9V8.88h.06V8.64h-.06v0l-.06-.06v0h0V8.52a.06.06,0,0,1-.06-.06V8.34a.06.06,0,0,1-.06-.06V8.4h-.12A.06.06,0,0,0,27,8.34v0a.06.06,0,0,0-.06-.06V8.22h-.06l.06.06h-.18V8.22h-.18v0h-.06V8h.06a.06.06,0,0,0,.06.06h.06A.06.06,0,0,1,26.64,8V7.68h.18c-.06,0-.06,0-.06.06H26.7V7.8c-.06,0,0,.06-.06.06V8A.06.06,0,0,0,26.7,8V7.92h-.06V7.8h.06l.06.06v0h.12V8.1s-.06,0,0,.06,0-.06.06,0a.06.06,0,0,1-.06.06v.06a.06.06,0,0,0,.06-.06v.06a.06.06,0,0,1-.06.06V8.28h0V8.22h.06c.42-.42.42-.42.48-.36h0Q27.33,7.77,27.42,7.86Zm.18.36Zm-.36.42h0l.06.06v.12h-.12c-.06-.12,0-.18.06-.18Zm-.06-.18h0c0-.06.06-.06,0,0Zm.12.24h0l.06.06L27.3,8.7Zm0-.12Zm0,.06Zm-.18-.3Zm0,.06-.06.06H27l.12-.06ZM27,8.28Zm-.42-1.2h0c.06.06,0,.06,0,0ZM27.3,7Zm0,.48h0a.06.06,0,0,0,.06.06v.18h-.18V7.62h-.06V7.5a.06.06,0,0,0,.06.06c0-.06.06-.06.12-.06Zm-.06-.3Zm-.54-.78h0a.06.06,0,0,1,.06.06l-.06-.06Zm0,.12h0c0,.06.06.06,0,0Zm-.12-.36h0C26.64,6.12,26.58,6.12,26.58,6.18Zm0,.12h-.12V6.24l.12.06c0-.06-.06-.06,0,0Zm-.18-.36c.06,0,.06-.06,0,0h0c.06-.06.06,0,0,0h.06v.12h0v.12C26.4,6,26.4,6,26.4,5.94Zm0,.36c.06,0,.06.06,0,0h0l.06.06v.18a.06.06,0,0,1-.06.06v0h.06v.18s0,.06.06,0v.06h-.06v.42h.18v.12c.06,0,0,.06.06.06V7.5h-.12V7.44h0V7.38h-.06V7.26H26.4V7.14a.06.06,0,0,1-.06-.06V7L26.28,7V6.9h0V6.84c.06,0,.06,0,.06-.06V6.6h.06V6.54c0-.18-.06-.18,0-.24l-.06.06a.06.06,0,0,0,.06-.06S26.4,6.36,26.4,6.3ZM26,5.7h0c.06,0,.06.06,0,0h0l.06.06V5.7c0-.06,0-.06-.06,0a.06.06,0,0,1,.06-.06v0h.06v.18h.06V6h-.06V5.94s0-.06-.06,0H26V5.7Zm.12.3c-.06-.06,0-.06,0,0h0C26.22,6,26.22,6.06,26.16,6Zm0,.24Zm0-.36Zm0,.36h0C26.22,6.24,26.22,6.3,26.16,6.24ZM26,6.42h0c.06-.06,0-.06,0,0h0v0h0V6.3H26v.18L26,6.54v0h.12c0-.06-.06,0-.06-.06L26,6.42h0Q26,6.33,26,6.42Zm-.06-.06Zm-.06-.06H26c-.06.06-.06.06-.12,0S25.92,6.3,25.86,6.3ZM26,6.06Zm-.06-.12V5.82h0c.06.06.06.12,0,.12h0c.06.06.06,0,0,0h0L26,6c-.06,0-.06,0-.06-.06Zm-.06.24c0-.06.06-.06,0,0s.06,0,0,0h0l.06.06-.06-.06c.06,0,.06.06,0,0Zm.06.06c.06,0,.06.06.06,0V6.3l-.06-.06ZM25.86,7h0c0-.06.06-.06.06,0H26V7h.12v.12H26v.18h.06v.12H26V7.5h-.12V7.32H25.8V7.2a.06.06,0,0,0,.06-.06h.06V7.2H26V7.08H26C25.86,7,25.86,7,25.86,7h0c-.06,0-.06-.06,0,0S25.86,6.9,25.86,7Zm-.18-1.44h.12V5.7h-.06c-.06-.12-.06-.12-.06-.18h0c-.06,0-.06.06,0,0h-.06V5.46l.06.06Q25.68,5.43,25.68,5.52ZM2.82,7.14ZM1.5,9.54h0C1.5,9.6,1.56,9.54,1.5,9.54ZM1.2,10ZM26.64,6.6ZM3,7Zm23.58,3.66c0,.06-.06.06,0,0ZM26,6.42ZM2.16,10.68ZM26.4,23.88h0c.06,0,0-.06,0,0l.06-.06a.06.06,0,0,0-.06.06c.06-.06,0-.06,0,0s.06-.06,0,0Zm.66-11.64Zm-.6,11.7h0L26.4,24l.06-.06Zm.24.06ZM32,7.26,36.78,15,39,11.4,32,0ZM32,30l7.08-11.4V11.4L32,22.8ZM39.3,7.26,44.1,15l2.28-3.6L39.3,0ZM39.3,30l7.08-11.4V11.4L39.3,22.8Z"/></svg>