<svg width="126" height="30" viewBox="0 0 126 30" xmlns="http://www.w3.org/2000/svg" xmlns:xlink="http://www.w3.org/1999/xlink"><title>oecd</title><desc>Created using Figma</desc><use xlink:href="#a" fill="#BDBDBD"/><defs><path id="a" d="M61.5 4.8c-6.06 0-10.32 4.62-10.32 10.2 0 5.58 4.2 10.14 10.26 10.14s10.32-4.62 10.32-10.2c0-5.52-4.2-10.14-10.26-10.14zm0 17.88c-4.26 0-7.32-3.48-7.32-7.68 0-4.2 3-7.62 7.26-7.62s7.32 3.48 7.32 7.68c0 4.2-3 7.62-7.26 7.62zm14.82-6.48h10.5v-2.58h-10.5v-6h11.7V5.04H73.44v19.92H88.2v-2.58H76.32V16.2zm22.56 6.48c-4.08 0-7.14-3.42-7.14-7.68s3.06-7.62 7.14-7.62c2.46 0 4.2 1.02 5.94 2.58l1.92-2.1c-1.98-1.86-4.14-3.12-7.8-3.12C93.06 4.68 88.8 9.36 88.8 15c0 5.76 4.26 10.26 10.02 10.26 3.6 0 5.94-1.38 7.98-3.54l-1.86-1.86c-1.8 1.8-3.42 2.82-6.06 2.82zm16.14-17.64h-7.2v19.92h7.2c6.3 0 10.62-4.38 10.62-10.02-.06-5.58-4.38-9.9-10.62-9.9zm0 17.28h-4.32V7.68h4.32c4.56 0 7.56 3.12 7.56 7.38 0 4.2-3 7.26-7.56 7.26zM15 0C6.72 0 0 6.72 0 15c0 8.28 6.72 15 15 15 8.28 0 15-6.72 15-15 0-8.28-6.72-15-15-15zm10.5 5.58c.06 0 .06 0 0 0 .06 0 .06.06 0 0h.06v.06l-.06-.06c0 .06 0 .06-.06.06 0 0 0-.06-.06 0 0 0 0-.06 0 0 .06 0 .12 0 .12-.06zm-.06-.06c.06.06.06.06 0 .12 0-.06-.06-.06 0-.12-.06.06 0 .06 0 0 0 0-.06.06 0 0-.06 0-.06 0 0 0 0 0-.06 0 0 0zm-.06.18s0 .06 0 0c0 .06 0 .06 0 0zm0 .48h.12v-.12h.06v-.12l.06-.06v.18h-.06c0 .06-.06.06-.06.06h.06v.06h.06v-.06h.06v.18h-.12v-.06h-.06v-.06h-.12c.06 0 .06 0 0 0h-.06v-.12h.06-.12.06-.18v-.12h.12-.06.12v-.06h.18s0 .06 0 0h.06l.06.06V6h-.06.06c-.24.12-.24.18-.24.18s-.06 0 0 0zm.42.24c0 .06 0 .06 0 0-.06.06-.06.06-.06 0h.06s-.06 0 0 0zm-.12 1.5c0-.06 0-.06 0 0 .06-.06.06 0 0 0 .06-.06.06-.06 0 0 .06-.06.06-.06.12-.06v.24s-.06 0-.06.06h-.06v-.24c0 .06 0 .06-.06.06v-.06h.06zm.18.06c0-.06 0-.06 0 0 0-.06 0 0 0 0zm0 0s0-.06 0 0c.06-.06.06-.06 0 0 .06 0 .06 0 0 0 .06 0 .06 0 0 0zm-.42-.18c.06 0 .06 0 0 0 .06 0 .06 0 0 0 .06.06.06.06 0 0 0 0 0 .06 0 0 .06 0 .06 0 0 0zm.06.12c0 .06 0 .06 0 0 0 .06 0 .06 0 0 0 0 0 .06 0 0zm0-.12c0-.06 0-.06 0 0-.06-.06 0-.06 0 0 0-.06 0-.06 0 0-.06-.06-.06-.06 0 0-.06-.06-.06 0-.06 0v-.06c-.06 0-.06-.06-.06-.06v.06h.06v.12h-.06s0-.06 0 0V7.8h.06s0-.06-.06 0v-.12s-.06 0-.06.06h-.12s-.06 0-.06.06h-.36v-.12h-.12V7.5h.42l-.06-.06v-.06h-.3v-.12h.24-.12s0-.06 0 0c0-.06 0-.06.06-.06v-.06h.18s.06 0 .12-.06h.18v.12h.18v.06c0 .06.06.06.06.06h-.06.06v.06-.12l.06.06v.36h.06V7.2h.06v.06l.06.06v.48l.06.06v.12h.06c-.42-.3-.42-.24-.48-.18 0-.06 0-.06 0 0zm-.18.12c0 .06 0 .06 0 0 0 .06 0 .06 0 0 0 0 0 .06 0 0zm-.6.12s.06 0 0 0c.06 0 .06 0 0 0 .06 0 0 0 0 0zm0 .06c0 .06 0 .06 0 0 0 .06 0 0 0 0zm.12-2.16c-.06 0 0 0 0 0 .06-.06.06-.06.12-.06h.12l-.06.06h-.18s0 .06 0 0zm.48.78s.06 0 0 0c.06 0 .06 0 0 0 .06 0 .06 0 0 0 .06 0 .06 0 0 0zm.24 1.2c-.06 0-.06 0 0 0-.06 0 0 0 0 0zm0-1.02c-.06 0-.06 0 0 0-.06.06-.06.06 0 0l-.06.06v-.12l.06.06c0-.06 0-.06 0 0zm.06.72c0-.06 0-.06 0 0 0-.06 0 0 0 0zm-.3-1.8c0-.06 0-.06 0 0 .06 0 .06 0 0 0 0 0 .06 0 0 0s0-.06 0 0c0-.06-.06-.06 0 0 0-.06 0-.06 0 0zm-.66-.18h.12l.06-.06v-.06h.06v.06h-.06v.12s-.06 0 0 .06h-.06s0-.06.06-.06c0 0 .06-.06 0-.06h-.06c0 .06 0 .06-.06.06v.06s0 .06-.06.06v.06-.06.06h-.06v-.12.06-.06h-.06c.12 0 .12-.06.12-.12 0 .06 0 .06 0 0 0 .06 0 .06 0 0 0 .06 0 .06 0 0 0 .06 0 .06 0 0zm-.06.06c.06 0 .06 0 0 0 .06 0 .06 0 0 0 .06 0 .06 0 0 0zm-.72.9s.06 0 0 0c.06-.06.06-.06 0 0l.06-.06v-.12H24v-.06s.06 0 .06-.06h.06s0-.06.06-.06v-.12h.18v.12h.06v-.06h.12v.18h-.36s0 .06-.06.06h-.06s-.06 0-.06-.06v.06c-.06 0-.06.06-.06.06l-.06.06h-.12v-.06h-.12v-.12l.24.24c.06 0 .06.06.06.06 0-.06 0-.06-.06-.06zm-.36.18c0 .06 0 .06 0 0 0 .06 0 .06 0 0 0 .06-.06.06 0 0zm-.78.18s0-.06 0 0c0-.06 0-.06 0 0 .06-.06.06-.06 0 0 .06-.06.06-.06 0 0 .06 0 .06-.06.06-.06v-.06.06l-.06.06s-.06 0-.06.06c.12 0 .12 0 .06-.06.06.06.06.06 0 0 0 .06 0 .06 0 0 0 .06 0 .06 0 0 0 0 0 .06 0 0zm-.06-.06c.06 0 .06.06.06.06l-.06-.06c0 .06 0 .06 0 0zm0 .06c0 .06 0 0 0 0-.06 0 0 0 0 0zm-.06.06c.06 0 .06 0 0 0 .06 0 .06 0 0 0 .06.06.06.06.06.12l-.06-.06c.06 0 .06 0 0-.06.06.06.06 0 0 0 0 0 .06 0 0 0zm-.18-.3c.06 0 .06 0 0 0 .06.06.06.06 0 0 .06.06.06.06 0 0 0 0 0 .06 0 0zm-3.18.84s.06-.06 0 0c.06-.06.06-.06 0 0h.12-.12c.06.06.06.06 0 0 .06.06 0 .06 0 0 0 0 .06 0 0 0zm-.06.06c0-.06.06-.06 0 0 .06-.06.06-.06 0 0l.06-.06v.12l-.06-.06c0 .06 0 .06 0 0zm-.48-.42c0 .06.06.06.06.06h.06l.06.06v.06h-.12v-.06s0-.06-.06-.12h-.06c-.06 0-.06 0-.06-.06.06.12.06.06.12.06zm-.06.96c.06 0 .06 0 0 0h.12v.12h-.18c.06-.06 0-.06.06-.12zm-.36 1.26h.12s.06 0 .06.06h-.12l-.06-.06c0 .06 0 .06 0 0 0 .06 0 .06 0 0zm.24 9.78s0 .06 0 0c0 .06 0 0 0 0h-.12c.06-.06.12 0 .12 0zm-.06-.06s.06 0 0 0c.06 0 0 0 0 0zm.12-.06s-.06 0 0 0c0 .06 0 .06 0 0 0 .06.06.06.06.12 0 0-.06 0-.06-.12-.06 0-.06.06 0 0-.06 0-.06 0 0 0-.06 0-.06 0 0 0zm0-9.6c0-.06 0-.06 0 0 0-.06 0-.06 0 0 0 0 .06 0 0 0zm.12 9.84c-.06.06-.06.06 0 0-.06.06-.06 0-.06 0v-.06c-.06 0 0 .06.06.06-.06 0-.06 0 0 0zm-.24.12s-.06 0 0 0zm-.06-.42c-.06 0-.06-.06-.12-.06.06 0 .06.06.12.06 0 .06 0 .06 0 0 0 0 0 .06 0 0zm.06-9.48c0 .06 0 .06 0 0zm-.3.06s.06 0 0 0c.06 0 0 0 0 0zm.06 9.42c0 .06 0 .06 0 0-.06.06-.06.06 0 0h-.06.06s-.06 0 0 0zm-.06-.06s0-.06 0 0c-.06-.06-.12-.06-.12-.12h.06c.06.06.06.06.06.12 0-.06 0-.06 0 0zm0 .06s-.06 0 0 0c-.06 0-.06 0 0 0zm-.06-.06c0 .06 0 .06 0 0 0 0-.06 0 0 0zm0-9.42c.06 0 .06.06 0 0 0 .06 0 0 0 0zm0 0c0 .06 0 .06 0 0 0 .06 0 .06 0 0 0 .06 0 .06 0 0 0 0-.06 0 0 0zM14.52 6c.06 0 .06 0 0 0 .06 0 .06 0 0 0zm0-.06s0 .06 0 0c0 .06 0 .06 0 0-.06.06 0 .06 0 0zm-.18-.36c0 .06 0 .06 0 0 0 .06 0 .06 0 0zm-.06 0c0 .06-.06.06 0 0zm-2.22-.72c.06-.06.06 0 0 0h.36v.06h-.3l-.06-.06c-.06 0 0 0 0 0 0-.06 0-.06 0 0zm-.12.72v-.12h.24v.06h-.12l-.12.06c.06 0 .12 0 0 0 .06 0 .06 0 0 0 0 .06 0 0 0 0zm-.12-1.2c.06 0 .06.06 0 0 0 .06 0 .06 0 0 0 .06 0 .06 0 0zm-.12.42h.18s-.06 0-.06.06 0 .06.06.06v.06h-.06c-.06 0-.12-.06-.12-.06V4.8c-.06.06 0 .06 0 0-.06.06-.06.06 0 0-.06 0-.06 0 0 0zm.18.6c-.06.06-.06.06 0 0-.06 0-.06 0 0 0-.06-.06-.06-.12 0-.12v.12s0-.06 0 0zm-.66-.48c0-.06 0-.06 0 0l.12-.06h.06s0 .06.06.06h.06l-.06-.06V4.8h.18v.12s.06 0 .06.06h.12l-.06.06c0 .06 0 0-.06 0h-.06c-.06 0-.06.06-.06.12h-.06v.06h-.18v-.06h-.06s-.06 0-.06-.06c0 0-.06 0-.06-.06h-.06c0-.06-.06-.06-.06-.06.12 0 .12 0 .18-.06 0 .06-.06.06 0 0zm.3.66c-.06 0-.06 0 0 0h-.12v-.06l.12.06s0-.06 0 0zm-.48-.54c.06 0 .06.06 0 0 .06.06.06.06 0 0 .06.06.06.06.06.12 0 0 .06.06 0 .06l-.06-.06v-.12c.06.06.06.06 0 0 0 0 0 .06 0 0zm-.42.9s.06 0 0 0c.06 0 .06 0 0 0 .06 0 .06 0 0 0zm-.24.3s.06 0 0 0c.06 0 .06 0 0 0zm-.84-.18c.06 0 .06-.06.12-.06v.12s-.06.06-.12-.06c0 .06 0 .06 0 0 0 .06 0 .06 0 0 .06.06 0 .06 0 0 0 0 .06.06 0 0zM8.7 5.4c0 .06 0 .06 0 0zm-.18-.18s.06 0 0 0c.06 0 .06.06 0 0 0 .06.06.06 0 0 .06 0-.06 0 0 0zm-.06 0c.06 0 .06 0 0 0 .06 0 0 0 0 0zm-.54-.18c.06 0 .06.06 0 0 .06.06.06.06 0 0 .06 0 .06 0 0 0 .06 0 .06 0 0 0 .06-.06.06-.06.12-.06v-.06h.06l.06.06h.06c0 .06 0 .06.06.06 0 0 0 .06-.06.06 0 0-.06 0-.06.06l-.06.06s-.06 0-.06.06l-.06.06h-.06s0-.06-.06-.06v-.12s-.06-.06.06-.12c.06.12.06.12 0 0 .06.06 0 .06 0 0zm.12.96c.06 0 .06 0 0 0 .06 0 .06-.06 0 0 .06-.06.06-.06 0 0 .06.06.06.06 0 0 0 .06 0 .06 0 0 0 0 0 .06 0 0zm0-.06c-.06 0-.06 0 0 0-.06 0-.06 0 0 0 0-.06-.06 0 0 0 0-.06 0-.06 0 0 0-.06 0-.06 0 0 0-.06 0-.06 0 0zm-.06-.18c0 .06 0 .06 0 0 0 .06-.06.06 0 0-.06 0-.06.06 0 0-.06 0-.06 0 0 0zm-.48-.84c.06 0 .06.06.12.06v.12s-.06 0 0-.06h.06c.06 0 .06.06.06.06v.06l.06.06h-.06c0 .06 0 .06.06.06 0 0 .06 0 .06.06l-.06.06h-.06l-.06.06h-.3s0-.06-.06-.06h-.06v-.12H7.2v-.12c.24-.18.3-.18.3-.24zm.06 1.68s-.06 0 0 0c-.06-.06-.06-.06 0 0-.06-.06-.06-.06 0 0 0-.06-.06-.06 0 0 0-.06 0-.06 0 0 0-.06 0-.06 0 0zm-.06-.9c.06 0 .06 0 0 0 .06 0 .06 0 0 0 .06 0 .06 0 0 0 0 0 .06.06 0 0zm0 .96c0 .06 0 .06 0 0 0 .06 0 .06 0 0 0 .06 0 .06 0 0zm-.06 0c0-.06 0-.06 0 0 0-.06 0-.06 0 0 0-.06 0-.06 0 0 0 0 .06 0 0 0zm0-.72c0-.06 0-.06 0 0 0-.06 0-.06 0 0 0-.06 0-.06 0 0 0 0 0-.06 0 0zm-.18-.72c-.06 0-.06 0 0 0 0-.06 0-.06 0 0-.06 0-.06 0 0 0h-.12.12c.06-.06.06-.06 0 0 0 0 .06-.06 0 0zm.06 1.62s0 .06 0 0c-.06 0-.06 0 0 0zm-.18.36c0-.06 0-.06.06-.12 0 0 0 .06.06.06v.06c-.06.06-.12.06-.12 0zm0 .12c-.06.06-.06.12-.12.12.06-.12.06-.12.12-.12zm.24-.48c-.06 0-.06 0 0 0-.06 0-.06 0 0 0zm-.3-1.92v-.24c.06 0 .06.06.18.12h.06v.06c0 .06.06.06.06.06 0 .06 0 .06-.06.06 0 0-.06 0-.06.06l-.06.06h-.12v-.06h-.06l.06-.12c.06.06.06.06 0 0 .06 0 .06 0 0 0zm.06 1.44c0 .06 0 .06 0 0-.06.06-.06.06 0 0-.06 0-.06 0 0 0zm-.06.18c.06 0 0 0 0 0 .06-.06.06-.06 0 0 .06 0 .06-.06 0 0 .06 0 .06 0 0 0 .06.06.06 0 0 0 .06.06.06.06 0 0 .06 0 .06 0 0 0zm-.06-.12c.06 0 .06 0 0 0 .06 0 0 0 0 0zM6.9 4.8s.06 0 0 0c.06 0 .06 0 0 0 .06 0 .06 0 0 0 .06 0 .06 0 0 0 .06 0 .06 0 0 0 0 .06.06.06 0 0zm0 2.4c.06 0 0 0 0 0zm-.12-.06c.06 0 .06-.06 0 0 .06 0 .06 0 0 0 0 0 .06 0 0 0zm0 .12c.06 0 0 0 0 0 0 .06 0 .06 0 0 0 .06 0 .06 0 0zm-.36 0c.06 0 .06-.06 0 0 .06 0 .06 0 0 0 .06 0 .12 0 .12.06 0 0-.06 0-.06.06-.06-.06-.06-.06-.06-.12zm-.78-.54c.06 0 .06 0 0 0 .06 0 .06 0 0 0h.12l.06-.06h.06v.12h-.06l-.06.06s0 .06-.06.06l-.06.06c0 .06 0 .06-.06.06v.12h-.06v.06h-.06v.12H5.4c0 .06.06.06.06.12H5.4v.12h-.06c-.06 0-.06.06-.06.06v-.06s.06 0 .06-.06c-.06 0-.06.06-.12.06l-.06-.06v-.12h.06s-.06 0-.06-.06H5.1c0-.06.06 0 .06-.06V7.2h.06v-.12s.06 0 .06-.06h.06V6.9h.06v-.06s0-.06.06 0c0 0 0-.06.06-.06v.06h.06v-.06c0-.06 0-.06.06-.06 0 0-.06 0 0 0zm.18 1.56s0-.06 0 0c0-.06 0-.06 0 0 0-.06 0-.06 0 0-.06-.06-.06-.06 0 0-.06-.06-.06-.12-.12-.12l.12.12c.06 0 .06 0 0 0 0 0 .06 0 0 0zm0 .06s.06 0 0 0zm-.06.12c0 .06-.06 0 0 0-.06.06-.06.06 0 0-.06 0-.06.06 0 0zm-.12-.36s-.06 0 0 0c-.06 0-.06 0 0 0 0 0-.06 0 0 0 0 .06 0 .06 0 0-.06.06-.06.06 0 0-.06 0-.06 0 0 0-.06.06-.12.06 0 0-.06.06-.12.06-.12 0 0 0 0-.06-.06-.06h.06c-.06 0 0-.06-.06-.06H5.4v-.12h-.06l-.06-.06v.06-.06.06h-.12v-.18h.06v-.06h.06v-.24h.12v.06h-.06v.42l.06.06s0 .06.06.06c.12.06.12.06.18.12 0-.06 0-.06 0 0zm0 .36c0 .06-.06.06 0 0-.06 0-.06 0 0 0zm-.06.06s-.06 0 0 0c-.06-.06 0-.06 0 0 0-.06 0-.06 0 0zm-.06.06s0 .06 0 0zm-.24-.48s0-.06 0 0c0-.06-.06-.06 0 0-.06-.06-.06-.06 0 0 0-.06 0-.06 0 0 0-.06 0-.06 0 0zm-.12-2.22c-.12-.06-.12-.06 0 0-.06-.06-.06-.06 0 0zm-.06-.06s0-.06 0 0c.06-.06 0 0 0 0zm.06.3c0 .06 0 .06 0 0 0 .06 0 .06 0 0 0 .06 0 .06 0 0-.06.06-.06.06 0 0-.06.06-.06.06 0 0-.06-.06-.06 0 0 0-.06-.06-.06-.06 0 0 0-.06 0-.06 0 0 0-.06 0-.06 0 0 0-.06 0-.06 0 0 0-.06 0-.06 0 0zm0-.12s0-.06 0 0c0 0 0-.06 0 0 .06 0 .06-.06 0 0zM5.1 6c-.06 0-.06 0 0 0-.06 0-.06 0 0 0 0-.06 0-.06 0 0 0-.06 0-.06 0 0 0 0 0-.06 0 0zm-.12.12c.06 0 .06 0 0 0zm0 .06s0-.06 0 0c0-.06 0-.06 0 0 0 0 0-.06 0 0zm0-.12s.06 0 0 0c.06 0 .06 0 0 0 0 0 .06 0 0 0zm.06.06c.06 0 0 .06 0 0zm0-.12s-.06 0 0 0h-.12c.06-.06.06-.06.12 0 0-.06-.06-.06 0 0 0-.06 0-.06 0 0 0-.06 0-.06 0 0zm-.06 2.46s.06 0 0 0c.06 0 .12 0 .12.06v.06s-.06 0-.06.06c-.06-.06-.06-.12-.06-.18 0 0 0 .06 0 0zm.3-2.34c.06-.06.06-.06 0 0 .06 0 .06.06 0 0 .06.06.06.06 0 0zm.12.78c0-.06.06-.06 0 0 .06-.06.06-.06 0 0 0 0 0-.06 0 0zm.06-1.26c0 .06 0 0 0 0 .06-.06.06-.06 0 0 .06-.06.06-.06.12-.06v.06h.06v-.06c-.18.12-.18.12-.18.06 0 .06 0 .06 0 0zm-.12-.06c.06 0 .06-.06 0 0 .06-.06.06-.06 0 0 .06-.06.06-.06 0 0 .06 0 .06 0 0 0 .06 0 .06 0 0 0 0-.06 0 0 0 0zm0 .18s.06 0 0 0c.06.06.06 0 0 0 0 .06.06.06 0 0-.06.06 0 .06 0 0 0 0-.06 0 0 0zm-.06.06c0 .06.06.06 0 0 .06.06.06 0 0 0 .06 0 .06 0 0 0 .06 0 .06 0 0 0 .06 0 .06 0 0 0 .12-.06.06-.06 0 0 .06 0 .12 0 .12.06 0 0-.06 0-.06.06h-.06v-.12c0 .06 0 .12 0 0zm0 .24c-.06 0-.06 0 0 0-.06 0-.06 0 0 0-.06.06-.06 0 0 0-.06.06-.06.06 0 0-.06 0-.06 0-.06-.06l.06.06c0-.06 0 0 0 0zm-.06-.18c0 .06-.06.06 0 0-.06 0-.06 0 0 0zm-.06-.06s.06 0 0 0zm-.06-.24s.06 0 0 0c.06 0 .06 0 0 0 .06 0 .06 0 0 0 0 .06.06 0 0 0 0 .06 0 .06 0 0 0 0 0 .06 0 0zm-.06.12c.06 0 .06 0 0 0 .06 0 .06 0 0 0 .06 0 .12 0 0 0 .06 0 .06 0 0 0 .06.06.06 0 0 0 0 0 0 .06 0 0zm-.06.12c.06 0 .06 0 0 0 .06 0 .06 0 0 0 .06 0 .06 0 0 0 .06-.06.06 0 0 0 .06-.06.06-.06 0 0 .06-.06.06-.06 0 0 .06-.06.06-.06 0 0 0-.06.06-.06 0 0 .06 0 .12 0 0 0 .06 0 .06 0 0 0 .06 0 .06 0 0 0zm0 .06c.06 0 .06 0 0 0h.18-.06c-.06.06-.06.06-.12 0 .06.06.06.06 0 0 0 .06 0 0 0 0 0 .06 0 .06 0 0zm-.06.18c.06 0 0 0 0 0 0 .06.06.06 0 0 0 .06 0 .06 0 0zm0 .12c0-.06 0-.06 0 0 0-.06 0 0 0 0 .06 0 .06 0 0 0 .06 0 .06 0 0 0 0 0 0 .06 0 0zm-.06.12s-.06 0 0 0c-.06.06-.06.06 0 0-.06 0-.06 0 0 0-.06 0-.06 0 0 0-.06 0-.06 0 0 0-.06-.06-.06-.06 0 0-.06 0-.06-.06 0 0zm-.12-.06s.06 0 0 0c0 .06 0 0 0 0zm-.06-.18s.06 0 0 0c.06 0 .06 0 0 0 0-.06 0-.06 0 0 .06-.06.06-.06 0 0 .06 0 .06 0 0 0 .06-.06.06-.06 0 0C4.74 6 4.74 6 4.8 6c-.06.06-.06.06-.12.06.06 0 .06 0 0 0 .06-.06.06-.06 0 0 .06.06.06.06 0 0 .06.06.06.06 0 0 .06.06.06.06.06.12h-.06v.06h-.06v.06h-.06v-.18l.12-.06c0 .06 0 .12 0 0 0 .06 0 .06 0 0 0 .06 0 .06 0 0zm-.24.12c.06 0 .06 0 0 0 .06 0 .06-.06 0 0 .06-.06.06-.06 0 0 .06-.06.06-.06.12-.06s.06 0 .12.06v.12-.06c-.18 0-.18 0-.24-.06 0 .06 0 .06 0 0 0 0 0 .06 0 0zm-.72.48s.06 0 0 0c.06 0 .06 0 0 0 .06 0 .06 0 0 0 .06-.06.06-.06 0 0 .06 0 .06 0 0 0 .06 0 .06 0 0 0 0 .06 0 0 0 0 0 .06 0 .06 0 0 0 .06 0 .06 0 0zm-.18.36c.06.06.06.06 0 0 .06.06.06.06 0 0 .06.06.06.06 0 0 0 .06.06.06 0 0 0 .06 0 .06 0 0 0 .06 0 .06 0 0 0 .06 0 .06 0 0 0 .06 0 .06 0 0 0 .06 0 .06 0 0 0 .06 0 .06 0 0zm0-.3s0 .06 0 0c0 .06 0 .06 0 0 0 .06 0 .06 0 0zm-.3 0c-.06 0-.06 0 0 0-.06 0-.06 0 0 0-.06 0-.06 0 0 0zm-.18.24c0-.06 0-.06 0 0 0-.06 0-.06 0 0 .06-.06 0-.06 0 0 .06-.06.06-.12.06-.12v-.12s0 .06 0 0v.06-.06h.18v.3h-.06v.06h-.12l-.06-.12c.06.06.06.06 0 0 0 .12 0 .06 0 0-.06.06-.06.06 0 0 .06.06.06.06 0 0 .06.06.06.06.12.06h.06s0-.06 0 0h-.06c-.06 0-.12 0-.12-.06zm.42.18c0 .06 0 .06 0 0 0 0-.06 0 0 0-.06 0 0 0 0 0zM3.3 8.46c-.06-.06 0 0 0 0 0-.06 0-.06 0 0zm0-1.02v.12-.12.12h-.12v-.18l.12.06c-.06-.06-.06-.06 0 0 0-.06 0-.06 0 0-.06-.06-.06-.06 0 0 0-.06 0-.06 0 0 .06-.06 0-.06 0 0 0 0 .06 0 0 0zm-.12 1.08c0-.06 0-.06 0 0 0-.06 0-.06 0 0zm0 0s0 .06 0 0c0 0-.06 0 0 0zm-.06.06c-.06 0-.06 0 0 0-.06 0-.06 0 0 0-.06 0-.06 0 0 0-.06 0-.06 0 0 0-.06 0-.06 0 0 0 0-.06 0-.06 0 0 0-.06 0-.06 0 0zm0 .06s-.06 0 0 0c-.06 0-.06 0 0 0-.06-.06-.06 0 0 0 0 0 0-.06 0 0zm0-1.32c0-.06 0-.06 0 0 0-.06 0-.06 0 0 .06-.06.06-.06 0 0 .06-.06.06-.06 0 0 .06-.06.06-.06 0 0 .06-.06.06-.06 0 0 .06 0 .06 0 0 0 .06 0 .06 0 0 0zM2.7 7.2c.06 0 .06-.06 0 0 .06-.06.06-.06.06-.12l-.06.12.06-.12v-.06.06-.18.18l-.06.12.06-.12v-.3.18h.06l.06.06h.06v.66-.06s-.06 0 0-.06c0 0 .06 0 0 0h-.06V7.5h.06v-.12h-.06v.06-.06l.06-.06v-.06H3s0 .06-.06 0V7.2s0 .06 0 0v.06-.12.12c-.24 0-.24 0-.24-.06 0 0 0 .06 0 0 0 .06 0 .06 0 0 0 0 0 .06 0 0zm.24 1.5c0-.06 0 0 0 0zm0 0c-.06 0-.06-.06 0 0 0-.06-.06-.06 0 0 0 0-.06 0 0 0zm-.12.06s.06 0 0 0c.06-.06.06-.06 0 0 .06-.06.06-.06 0 0 .06 0 .06-.06 0 0 .06 0 .06 0 0 0 .06 0 .06 0 0 0 .06 0 .06 0 0 0 0 0 .06 0 0 0zm0 .06c-.06 0-.06 0 0 0-.06 0 0 0 0 0 0-.06 0-.06 0 0 0-.06 0-.06 0 0 0 0 0-.06 0 0zm0-.06c0-.06 0-.06 0 0 .06-.06 0-.06 0 0zm-.12.12c.06-.06.06-.06 0 0 .06-.06.06-.06 0 0 .06 0 .06 0 0 0 .06.06.06.06 0 0 0 .06 0 .06 0 0 0 .06 0 .06 0 0 0 0 0 .06 0 0zm-.06-1.56s.06.06 0 0c0 .06 0 .06 0 0 0 .06 0 .06 0 0zm0 1.74c0-.06 0-.06 0 0 0-.06 0-.06 0 0 0-.06 0-.06 0 0 0-.06 0-.06 0 0 .06-.06.06-.06 0 0 0-.06 0-.06 0 0-.06 0 0 0 0 0-.06 0-.06 0 0 0 0 0-.06 0 0 0 0-.06 0-.06 0 0 0-.06 0-.06 0 0 0-.06 0-.06 0 0zm0-.12c.06 0 .06 0 0 0 .06 0 0 0 0 0zm0 0c0-.06 0-.06 0 0 0-.06 0-.06 0 0 0 0 0-.06 0 0-.06 0-.06.06 0 0-.06 0 0 0 0 0zM2.58 9s0 .06 0 0c0 .06 0 .06 0 0-.06.06-.06 0 0 0zm-.06.12c0-.06.06-.06 0 0 .06-.06.06-.06 0 0zm0 0c-.06 0 0 0 0 0zm-.18.48c.06 0 0 0 0 0zm0 .12c-.06.06-.06 0 0 0-.06 0 0 0 0 0zm-.24.24c.06 0 0 0 0 0zm0 .06s0-.06 0 0c.06-.06.06 0 0 0zm0 .06c-.06 0 0 0 0 0zm-.06-.06c.06 0 .06 0 0 0zm-.12.18c0 .06 0 0 0 0zm-.78-.36c.06 0 .06 0 0 0 .06 0 .06-.06 0 0 .06-.06.06-.06.06-.12l-.06.12c.06-.06.06-.06.06-.12.06 0 0 0 .06-.06l-.06.06v-.24.06-.06h.06v-.06h.06v.06-.18.12-.18.12-.18.06-.06.06s.06 0 0-.06v-.06.06-.12.18s0 .06-.06.06v.06h.06s0 .06 0 0v.24s-.06 0-.06.06v.06l-.12.12c.06-.06.06-.06 0 0 0 0 0-.06 0 0-.06.06-.06.06-.06.12v.06h-.06v-.06H.96V9.9s0 .06-.06 0v-.18c.3.18.3.18.24.12.06.06.06.06 0 0 .06.06.06 0 0 0 0 .06 0 .06 0 0 0 .06 0 .06 0 0 0 0 0 .06 0 0zm.42 1.98c-.06 0-.06 0 0 0-.06 0-.06.06 0 0-.06.06-.06.06 0 0-.06.06-.06.06 0 0 0 .06-.06.06 0 0V12h-.12v.06s0 .06 0 0c0 0 .06 0 .06-.06h.12c0-.06 0-.06.06-.06h-.06v-.06l.06-.06v-.12s.06 0 .06-.06c0 0 .06 0 .06-.06v-.06s0-.06 0 0c0 0-.06 0 0 0v-.12s-.06-.06 0 0c0 0 0-.06 0 0v-.12.06s0 .06 0 0v-.36.06h.06v-.12.12l-.06.06v.06h.06v.24h-.12.06v.12c.06 0 .06.06.06.06v.06h.06v.12c-.36 0-.36 0-.36.06 0-.06 0-.06 0 0 0-.06 0-.06 0 0zm-.18.18s-.06 0 0 0zm-.18-.36s-.06.06 0 0zm-.06-.12c.06 0 .06 0 0 0 .06 0 .06 0 0 0zm0-.18c.06 0 .06 0 0 0zm.18-.48c0-.06 0 0 0 0zm-.24.12c.06 0 .06 0 0 0 .06 0 .06 0 0 0 .06 0 .06 0 0 0 .06.06.06 0 0 0 0 0 .06 0 0 0zm.06.3c0 .06 0 .06 0 0 0 .06-.06.06 0 0-.06.06-.06.06 0 0-.06.06-.06.06 0 0 0 0 0 .06 0 0zm-.06-.24c0 .06 0 .06 0 0 0 .06 0 .06 0 0zm0 .06c0 .06 0 0 0 0zm-.24.72c.06 0 .06-.06 0 0 .06-.06.06-.06 0 0 .06-.06.06-.06 0 0 .06-.06.06-.06 0 0 .06-.06.06-.06 0 0 0-.06 0-.06 0 0l.06-.12v-.06s0-.06.06-.06v-.12.36H.84c.06 0 .06 0 0 0 0 .06 0 .06 0 0-.06.06-.06.06-.12.06.12 0 .12 0 .12-.06 0 .06 0 .06 0 0 0 .06 0 .06 0 0 0 .06 0 .06 0 0zm1.08 6c.06 0 0 0 0 0zm.18-.3c0-.06 0-.06 0 0 0-.06 0-.06 0 0 0 0 0-.06 0 0zm4.02 2.34c-.06 0 0 0 0 0s-.06 0 0 0zm0-.12c-.06-.06-.06 0 0 0-.06 0-.06 0 0 0-.06.06-.06.06 0 0-.06.06-.06.06-.06.12v.24s-.06.06-.06.12-.06.06-.06.12-.06.06-.06.12v.24s0 .06-.06.06h-.06l-.06.06h-.06l-.06-.06v-.42h.06v-.24l.06-.06v-.12h.06l.06-.06h.12v.06-.06H6v.06h.06v.06l.06-.06c0-.06-.06 0 0-.06v-.06s0-.06 0 0v.06s0-.06.06-.06l-.06-.06c.06 0 .06 0 0 0l.06-.12-.06.12h.12v.18c-.12-.24-.12-.24-.12-.18 0 0 .06-.06 0 0zm-.18-.3c0 .06 0 .06 0 0zm.78-.9s-.06 0 0 0zm2.82-1.26c0 .06 0 .06 0 0-.06.06-.12.06-.12.06-.06 0-.06-.12-.06-.12v-.24.06s0 .06.06.06c0 .06 0 .06.06.12.12 0 .12 0 .06.06 0 0 .06 0 0 0zm-.18-.36c.06 0 0 0 0 0zm.06 0c0 .06 0 0 0 0zm1.02-1.56c0 .06 0 0 0 0zm.06.06s0-.06 0 0c0-.06 0-.06 0 0zm.24 1.44c0-.06 0-.06 0 0 .06-.06.06-.06 0 0 .06-.06.06-.06 0 0 .06-.06.06-.06 0 0 .06 0 .06-.06 0 0zm0-.12v-.12.06c.06 0 .06.06 0 .06zm.06-.24s0 .06 0 0c0 .06 0 .06 0 0 0 .06 0 .06 0 0 0 .06-.06.06 0 0 0 .06 0 .06 0 0s0-.06 0 0zm.06.6c.06 0 .06.06 0 0 0 .06 0 .06 0 0zm.06.06c0 .06 0 .06 0 0 0 .06 0 0 0 0zm0 .12c0-.06 0-.06 0 0 0-.06.06 0 0 0zm.18-1.14s-.06 0 0 0c-.06 0-.06 0 0 0-.06.06-.06.06-.12.06 0-.06.06-.06.12-.06l-.12.06v-.18c0-.06-.06-.06-.06-.12v-.06c0-.06-.06-.06 0-.06v.06h-.06v-.06h.06v-.06h-.06l-.06-.06s0-.06-.06-.06v-.06s0-.06-.06-.06h-.12v.12s0 .06-.06.06v-.12h-.06c0-.06 0-.06-.06-.06v.06h-.06v.12l-.06.06s-.06 0-.06.06h-.06l-.06.06v.06c-.06 0-.06.06-.12.06v.06c-.06 0-.06 0-.06.06v.06s0 .06-.06.06h-.06c0 .06 0 .06-.06.06l-.06.06v.24c0 .06 0 .12-.06.18v.18h-.06v.06l-.06.06h-.06v.06c0 .06 0 .06-.06.06s-.12-.12-.12-.12v-.06c0-.06 0-.06-.06-.12v-.06l-.12-.12v-.12c-.06-.06 0-.12-.06-.12v-.06l-.06-.06v-.06s0-.06-.06-.06v-.06c0-.06 0-.12-.06-.12v-.3c0-.06 0-.06-.06-.06v-.12h.06v.18c-.06 0-.06.06-.12.06h-.06l-.06-.06-.06-.06h-.06l-.06-.06s0-.06.06-.06c0 0 0-.06.06-.06H8.4l-.06-.06c0-.06 0-.06.06-.06-.06 0-.06 0-.06.06l-.06-.06h-.06c0-.06 0-.06-.06-.12H8.1c0-.06 0-.06-.06-.06h-.42c-.06 0-.06 0-.06-.06 0 0-.12 0-.12-.06h-.18c0-.06-.06-.06-.06-.12v-.06h-.06l-.06.06h-.36c0-.06 0-.06-.06-.06v-.06l-.06-.06s0-.06-.06-.06l-.06.06h-.06c-.06 0-.06.06 0 .06h-.06s0 .06.06 0v.12h.06s0 .06.06.06v.06c0 .06.06.06.06.06v.06c.06 0 0-.06 0-.06v-.06h.06v.3l.06-.06h.24v-.06l.06-.06s.06 0 .06-.06v.24l.06.06.06.06h.12v.12l.06.06v.12l-.06.06v.06s-.06 0 0 .06c0 0 0 .06-.06.06v.06H7.2c-.06 0-.06.06-.06.06v.06h-.12v.06s0 .06-.06.06h-.18s0 .06-.06.06v.06h-.06c-.06 0-.06.06-.12.06h-.18l-.06.06h-.12s-.06 0-.06.06H6c-.06 0-.06 0-.06.06 0 0 0 .06-.06.06h-.12v-.06s0-.06-.06-.06v-.12s0-.06-.06-.06c0-.06 0-.12-.06-.18h-.06v-.06c-.06 0-.06-.06-.12-.12v-.06c0-.06-.06-.06-.06-.06h-.06l-.06-.06v-.36l-.06-.06v-.12s0-.06-.06-.06h-.06v-.06c0-.06 0-.06-.06-.06h-.06s0-.06-.06-.06v-.18.18H4.8s0-.06-.06-.06c0 0-.06 0-.06-.06l-.06-.06v-.06.06l.06.06.06.06s0 .06.06.06v.18c0 .06.06.06.06.12.06 0 .06.06.06.12l.06.06h-.06v.12s.06.06.06 0c.06 0 .06.06.06.06 0 .06 0 .06.06.12 0 .06.06.12.06.18v.06s.06 0 .06.06h.12c0 .06.06.12.06.18v.12-.06.12h.06s0 .06.06.06l.06.06s.06 0 .06.06v.06s.06 0 .06.06h.06l.06.06v.06h-.06.06l.06.06.06.06s0-.06.06 0h.18c.06 0 .06-.06.06-.06h.3v-.06h.06v.18h-.06v.06s0 .06-.06.06v.06s-.06 0-.06.06-.06.06-.06.12-.06.06-.06.12c0 0-.06.06-.06.12h-.06v.06l-.06.06L6 18c-.06.06-.12.06-.12.12l-.06.06s-.06.06-.06.12-.06.06-.06.06-.06 0-.06.06h-.06v.06s0 .06-.06.06c0 .06 0 .06-.06.12H5.4c0 .06-.06.12-.06.18l.06.06v.3s0 .06.06.06.06.06.06.12v.24h.06v.12s-.06 0-.06.06H5.4s-.06 0-.06.06l-.06.06s0 .06-.06.06h-.06v.06c-.06 0-.06 0-.06.06h-.06v.06s.06.06 0 .06v.12-.06.24l-.06.06c-.06 0-.06.06-.12.06 0 0 0 .06-.06.06v.48h-.12v.06c0 .06-.06.12-.06.12v.06h-.06s0 .06-.06.06c0 0-.06 0-.06.06 0 0-.06 0-.06.06H4.2v.06h-.06c-.06 0-.06 0-.12-.06h-.36v-.36s0-.06-.06-.06v-.24s0-.06-.06-.06c0 0 0-.06-.06-.06V20.22l-.06-.06c0-.06 0-.06-.06-.12v-.12s0-.06-.06-.06V19.26l.06-.06s0-.06.06-.06v-.06l-.06-.06v-.12s0-.06-.06-.06v-.06l-.06-.06h-.06v-.18h-.12c0-.06 0-.06-.06-.06l-.06-.06v-.24H3v-.12C3 18 3 18 3.06 18v-.3H3v.06h-.24s-.06 0-.06-.06v-.18s-.06 0-.06-.06h-.12s-.06 0-.06.06c-.06 0-.06 0-.12.06 0 0-.06 0-.06.06h-.06v-.06h-.24l-.06-.06-.06-.06c0-.06-.06-.06-.06-.12v-.06h-.06l-.06-.06v-.42s0-.06 0 0v-.06s0-.06 0 0v-.12s0-.06-.06-.06c0-.06 0-.06.06-.12v-.84s.06-.06.06-.12c0 0 0-.06.06-.06v-.06s0-.06.06-.06c0-.06 0-.06.06-.12h.06l.06-.06v-.06s0-.06.06-.06v-.12c0-.06 0-.12.06-.12v-.06l.06-.06s.06 0 .06-.06v-.06h.06l.06-.06v-.12h.06c0 .06 0 .06.06.06h.12v.06h.06v-.06s.06 0 .06-.06v-.06h.06l.06-.06h.06s0-.06.06 0h.3l.06-.06v.06s0-.06.06-.06v.06c-.06 0 0 .06 0 .06v.12l-.06.06s0 .06.06.06h.06c0 .06.06.06.12 0h.06s.06 0 .06.06v.18s.06.06.06 0h.06c.06.06.12.06.18.12l.06-.06s0-.06.06-.06c0 0 0-.06-.06-.06v-.12l.06-.06h.18s.06 0 .06.06h.12v.06h.06c.06 0 .12 0 .18.06h.12s0 .06.06 0l.06-.06c.06 0 .06-.06.12-.06h.36c.06-.06.06-.12.06-.18l.06-.06c0-.06 0-.06.06-.06v-.3s.06 0 .06-.06h-.18l-.06.06h-.12c-.06 0-.06-.06-.06-.06h-.12v.06h-.12l-.06.06h-.12l-.06-.06v-.06h-.06v-.06s.06 0 .06-.06v-.06h-.06v-.06s0-.06.06-.06h.06l.06-.06h-.06v-.06h.18s.06 0 .06-.06h.12l.06.06h.06s0 .06.06.06h.42c.06 0 .06-.06.06-.06v-.06s0-.06-.06-.06v-.06h-.06s0-.06-.06-.06l-.06-.06h-.06l-.06-.06v-.06h-.06.06v-.12h.06v-.06h.24-.12v.12h-.18v.06s0 .06-.06.06c0 0 .06-.06 0-.06v.06h-.12.06s0 .06.06.06l-.06-.06s0-.06-.06-.06v.06l.06.06h.12-.06s-.06 0-.06.06l-.06.06h-.06v-.06l-.06-.06c0-.06.06-.06.06-.06v-.06h-.3.12-.12c0 .06 0 .06-.06.06v.3h-.06v.06s0 .06-.06.06c0 0 0 .06.06.06v.06c.06 0 .06 0 .06.06s-.06 0-.06 0H4.8v.06h-.06s0 .06-.06.06c0 0 0-.06.06-.06h-.18s0 .06-.06.06h-.06c0 .06.06 0 .06.06h-.06v.06s0-.06-.06-.06v.06s-.06 0-.06-.06c-.06 0 0 .06-.06.06v.06l.06.06v-.06h.06l.06.06v.06h-.12v.06s.06 0 .06.06h-.12v.12H4.2v.06s-.06 0-.06-.06v-.06s0-.06-.06-.06v-.12h.18-.12v-.12l-.06-.06v-.3h-.06s0-.06-.06-.06v-.06H3.9s0-.06-.06-.06h-.12v-.06h.06l-.06-.06v-.12s0 .06-.06.06v-.72h-.18v.18s.06 0 .06.06.06.06.06.12c0 0 0 .06.06.06 0 0 .06 0 .06.06h.12v.06l.12.12h.06v.06s-.06 0-.06-.06H3.9v.24h-.06v.06s0 .06-.06.06-.06 0-.06-.06v-.24h-.06v-.06H3.6v-.06h-.12v-.12s0-.06-.06-.06c0-.06 0-.06-.06-.12 0 0-.06-.06-.12-.06h-.06v.06h-.06l-.06.06v.06H3l-.06-.06h-.12v.24s-.06 0-.06.06h-.12v.12c-.06 0-.06.06-.06.12v.12l-.06.06c0 .06-.06.06 0 .12H2.4v.06h-.12v.12-.12h-.12v-.84h.48v-.24.06s0-.06-.06-.06c0-.06 0-.12-.06-.06v-.06h-.06v-.06s0-.06 0 0v-.06s.06 0 .06-.06h.06v.06h.06v-.12h.06v.06h.12v-.42s.06 0 .06-.06H3v-.06h.06V12v-.06.06-.06h.06s0 .06.06.06c0 0-.06 0-.06-.06v-.18s0-.06.06-.06v-.12h.06v-.06.06-.06h.06v.12c-.06 0 0 .06 0 .06h-.06s.06 0 0 .06v.12s0 .06-.06.06h.06v-.06s0-.06.06-.06v.06h.06s0-.06.06-.06h.12v-.12h.24v.06c.06.06.06 0 .12 0v.06c.06 0 .06-.06.06-.06h.24v-.06s-.06 0 0-.06h-.06s-.06 0-.06-.06v-.18s0-.06.06-.06v-.06h.12l.06.06v-.24.06l-.06-.06v-.06h.24v-.12s.06 0 .06-.06h.06v-.06h-.06v-.12s-.06 0-.06.06h-.06v.06l-.06.06c-.06 0-.06 0-.06.06v-.06H4.2v-.48s.06-.06 0-.06v-.06h.06v-.18s.06 0 .06-.06h.06V9.9H4.2v.12h-.06v.12h.06s0 .06-.06.06v.12h-.06v.18s0 .06-.06.06v.42s0 .06.06.06v.06c0 .06-.06.06-.06.06H3.9h.06s.06-.06.06 0v.06h-.06v.12s0 .06-.06.12c-.06 0-.06.06 0 .06h-.06v-.12s0-.06-.06-.06v-.42.36l-.06.06v-.06l-.06-.06v-.12s.06 0 0 0v-.18.06-.06H3.6v-.12h.12v.06H3.6h.18-.06v-.06.06s-.06 0-.06-.06H3.6s0 .06.06 0v-.06H3.6h.06v.06-.06s0-.06.06-.06c-.06 0 0 .06-.06.06H3.6v-.24s0-.06.06-.06v-.3h.12s0-.06 0 0h.06v-.06c0-.06-.06 0-.06 0v-.12h.12V9.9h-.12v-.06s0-.06.06-.06v-.06.06s0 .06.06.06v-.12l.06-.06v.12-.12H3.9v-.3h.06s0 .06-.06.06v.06h.06v-.06l.06-.06s0-.06.06-.06v-.06s0 .06 0 0v.06l-.06.06v-.12h.06v.06h.06l-.06.06s0 .06-.06.06H3.9h.06v.12-.06h.06-.06v.12c.06 0 0 0 .06-.06h.12l.06.06.06.06v.06h.12v-.06s.06 0 0 .06c0 0 .06 0 .06.06v.06s0 .06.06.06v.18l-.06.06h-.06c-.06 0-.12.06-.18 0h-.06v-.06h-.06v-.06h-.06s-.06 0-.06-.06v.06h.3v.24s0 .06.06.06h.06v.06h.12l.06-.06v-.06H4.5l-.06-.06v-.12h.12s0 .06.06.06.06 0 .12.06c0 0 .06 0 0-.06h.06c0-.06-.06-.06-.06-.06 0-.06 0-.06.06-.06V9.9l.06-.06h.12v.06-.18s-.06-.06-.06 0v-.18h-.06.18c0 .06 0 .06.06.06v.06h-.12v.12c.06 0 .06.06.06.12h.24s-.06 0-.06-.06l.06-.06c.06 0 .06-.06.06-.06l.06-.06h.06l.06-.06v-.06c.06 0 0-.06 0-.06h-.06.06v.06s-.06 0-.06.06h.12s0-.06.06-.06v-.06h.24l.06-.06v-.06C6 9.36 6 9.3 6 9.3v.06h.06s-.06 0 0-.06h.06l.06-.06-.06-.06v-.24h.42V9h.06c.06 0 .06 0 .06.06.06 0 .06 0 .06.06.06 0 .06.06.06.06v-.12h-.06V9h-.06s0-.06-.06-.06h.06v-.06H6.6V8.7l.06-.06v-.3h.18v.24c0 .06.06.06.06.06v.06l.06.06v.18s0 .06.06.06v.06s0 .06.06.06c0 0 .06 0 .06.06 0 0 .06 0 .06.06v.3h-.24v.06h.06s0 .06.06.06h.3V9.6s0-.06.06-.06l.06-.06v-.06c0-.06.06-.06.06-.12v-.06s-.06 0-.06-.06v-.06s.06 0 .06-.06c.06 0 .06 0 .06-.06.06 0 .06 0 .06.06h.06v.06h.12-.06v-.06S7.74 9 7.8 9v-.06h-.12L7.62 9h-.06v-.06c0-.06-.06-.06-.06-.06v-.24s0-.06-.06-.06h-.06c0-.06-.06-.06-.06-.06 0-.06.06-.06 0-.12v-.36s.06 0 .06.06v.12s0 .06.06.06v.06h.12l.06.06h.06-.12s-.06 0-.06-.06c0 0 0-.06-.06-.06l.06-.06.06.06h.06v-.06s0-.06-.06-.06H7.5c0-.06 0-.06.06-.06h.12c0 .06.06.06.12.06l.06.06c.06 0 .12 0 .12-.06h.06v.06h-.06v.06h.06v-.06c.06 0 0 .06 0 .12v.06h.06c.06 0 .12 0 .06.06h.06l.06.06v-.06l.06-.06h.12v.06-.06c-.06 0-.06 0-.06-.06 0 0-.06 0-.06.06l-.06-.06h-.06c.06 0 .06-.06.06-.06s0-.06-.06-.06c0-.06 0-.06-.06-.12 0 0-.06 0-.06-.06v-.12h-.12s0-.06-.06-.06V7.8h-.18v-.06c0-.06 0-.12-.06-.12v-.06h.12c.06 0 .06 0 .12-.06h.06v-.06c.06 0 .06-.06.12-.06v.06l-.06.06.06.06h.06V7.5c0-.06.06-.06.06-.06v-.06H8.1v-.06h-.06.06v-.06h-.06V7.2h.06v-.06h-.06v-.06h.06v-.12s.06 0 .06-.06h.06c.06 0 .06 0 .06-.06h.06-.06v-.06h.24v.06s0-.06.06-.06v.06c.06 0 0-.06.06-.06l.06-.06h.06v.12l.06-.06s0-.06-.06-.06h-.12.18-.12v-.24c0-.06 0-.12.06-.12V6.3h.18c0 .06 0 .06.06.06v.12h-.06H9s0-.06.06-.06v.06s.06 0 .06-.06h.12v.18h-.06c.06 0 .06 0 .06-.06v-.12c.06 0 .12 0 .12-.06h.18v.06h.06c.06 0 .06.06.12.06 0 0 0 .06.06.06h-.06.06c0 .06.06 0 0 .06h.06s.06 0 .06.06v.06h-.06.06v.06s.06.06 0 .12v.18c0 .06-.06.06-.06.12l-.06.06h.06v.24h-.06v.06s-.06 0-.06.06v.12s.06 0 .06-.06h.06l-.06-.06h.06s0-.06.06-.06h.12V7.5h-.06s0 .06-.06.06v-.12h.12s0-.06.06-.06v.06s.06 0 .06.06h.06l.06-.06c0-.06-.06-.06-.06-.06s.06 0 .06.06h.06v.12s.06 0 .06-.06h.12c.06 0 .06 0 .06-.06h.06v.06c0 .06 0 .06.06.06h.24c.06 0 .06 0 .12-.06h.06v-.06h.06c0-.06 0-.06-.06-.06 0 0 0-.06-.06-.06v-.06s.06 0 0-.06h.12s.06 0 .06.06v.06h.06v-.06h.12v.06h.12v.06s0-.06.06 0v.06h.06v.06h.06c0 .06-.06 0-.06.06h.06s.06 0 0 .06c0 0 .06 0 0 0 0 .06 0 .06-.06.06h-.12v.06c0 .06.06.06.06.06v-.06s.06 0 .06.06c0 0-.06 0-.06.06.06 0 .06.06.12.06h.06l.06.06s0 .06.06.06v-.12c0-.06-.06-.12-.06-.18v-.06H12v-.06h.36-.06v-.06s.06 0 .06.06v-.06h.06l-.06-.06h-.06v-.06h-.06v-.12s-.06 0-.06.06h-.06v-.12h.06s.06 0 .06-.06v-.06h-.12.6s-.06 0-.12.06h-.06v.06s.06 0 .06-.06c.06 0 .06-.06.12-.06v.12s0-.06-.06-.06h-.06s0 .06.06.06v.12h.06V7.2l.06-.06h.24s0 .06.06.06v.06h-.06v.06h.12v.06h.06v-.06c.06 0 .06 0 .06.06h.06v.06c0 .06-.06 0-.06.06h.18c.06 0 .06 0 .06-.06l.06-.06c.06 0 .06-.06.12-.06h.24l.06.06h.06s.06.06.06.12v.06s.06 0 .06-.06h.12v-.06s.06 0 .06.06v.06s.06 0 .06.06v-.06h.06s0 .06.06.06c0-.06 0-.06-.06-.06v-.12c.06 0 .06 0 .12-.06h.3s0-.06.06-.06V7.2h.12v.06c0 .06-.06 0-.06 0v.06c.06 0 .06 0 .06.06l.06.06h.3l-.06-.06s0-.06-.06-.06h-.06V7.2l-.06-.06h.18c0-.06.06 0 .06 0h.06s0-.06.06 0h.48s.06 0 .06.06h-.06.42v.06s.06 0 0 0c0 .06.06.06.06.06h-.06.06v.06l.06.06h.06s0 .06.06.06v.06h.06s0 .06.06.06v-.06s0 .06.06.06v-.06h-.06l-.06-.06h-.06v-.06s0-.06.06-.06c0 0 0 .06.06.06v-.06h.12v-.06h.06v.06h.12s.06-.06.06 0v.18c0 .06.06 0 .06.06h-.12s.06 0 .06.06v.06h-.06.12v.12h.06v.18h.06v.06h-.06v-.06.06h-.18v-.06.12c0-.06-.06-.06-.06-.12h-.06v.12s0 .06-.06.06v-.06h-.06s-.06 0-.06-.06v-.06s-.06 0-.06-.06v.12c-.06 0-.06 0-.06-.06v.06h.06-.06v.06l.06.06h.12v.06s0 .06.06.06v.36s-.06 0-.06.06c-.06 0-.06-.06-.06-.06h-.06.06s.06 0 .06.06h-.06s0 .06.06.06 0-.06.06-.06c0 0 0 .06.06.06h.12l.06.06v.06h.06v-.06c.06 0 .06.06.06.06v-.06s.06 0 .06.06h.06s0 .06.06.06v.12h-.24s0 .06-.06.06v.06h-.12v.06l.06.06h-.06v.24h-.12l-.06-.06h-.12v.06h-.06v.06s0-.06-.06-.06l-.06-.06v.36s.06 0 .06.06l.06.06h.06v.18l.06.06s0 .06.06.06c0 0-.06 0 0-.06h.12v.12c0 .06.06.06.06.12 0 0 0-.06.06-.06v.06c0 .06.06.06.06.06v.06s-.06 0-.06-.06v-.12.06s-.06 0-.06.06v.18l.06.06.06.06v.06h-.12s0 .06-.06.06v.12h.06s.06 0 .06.06h-.06s-.06.06-.06 0l-.06.06h.06v.12h.06v.18h-.06v.12-.06s-.06-.06 0-.06c0-.06-.06-.12-.06-.12h-.06v-.18c0-.06-.06-.06-.06-.12v-.06l-.18-.36v-.06s0-.06-.06-.06v-.12c0-.06 0-.06.06-.06v-.12s0-.06-.06-.06h-.06v-.06h.06v-.06h.06s0-.06.06-.06v-.24h.06V9.6s.06 0 .06-.06c0 0 .06 0 .06-.06s0 0-.06 0v-.36l.06-.06h.06V9h-.24v.06l.06.06v.12h.06v.06h-.06c-.06 0-.06 0-.06.06v.12l-.06.06v-.06s-.06 0 0 0v-.12s0 .06 0 0v.06h-.06s0 .06-.06.06v.54h.06v.06h-.06s0 .06 0 0v-.06h-.06v.06h-.06v.06h-.06s0-.06-.06-.06v-.06l-.06-.06h-.3s0 .06-.06.06h-.06.06l-.06.06h-.24v.06h-.06v-.06h-.12c-.06 0-.06.06-.12.06h-.06c0 .06 0 .06-.06.06 0 0 0 .06.06.06 0 .06-.06.06-.06.12v.24c0 .06 0 .06-.06.06v.12s-.06.06 0 .12v.12l-.06.06s-.06 0-.06.06c0 0 0 .06-.06.06l.06.06H15c.06 0 .06-.06.12-.06v.06c0 .06.06.06.06.12 0 0 .06 0 .06-.06 0 0 .06 0 .06-.06v-.06.06c.06 0 0-.06 0-.12v-.06h.18s0 .06.06.06c0 .06.06 0 .06.06h.06v.06h.06v.12h.06v.3h.06v.36l-.06.06v.48c0 .06-.06.06-.06.06v.12h-.06v.12s0 .06-.06 0v.06c0 .06-.06.06-.06.06h-.18v-.06h-.06v.12h-.06c-.06 0 0 .06-.06.06v.18s0 .06-.06.06c0 .06-.06.06-.06.06v.06c-.06 0-.06 0-.06.06h-.06v.12H15c0 .06.06.06.12.06 0 .06.06.06.06.12.06.06.06.12.12.18v-.84.3c-.06 0-.06 0-.06.06h-.06c-.06 0-.06.06-.06.06v.06-.12s.06 0 .06-.06v-.12h-.06v-.06h.06v-.06l-.06-.06-.06-.06H15s0-.06-.06 0v-.06h-.06v-.12h.06-.06v-.18h-.12v-.06l-.06.06h-.06c-.06 0-.06.06-.06.06v.06h-.06v-.24s-.06 0-.06-.06l-.06-.06h-.06s0 .06-.06.06v.12h-.06v.18h-.12c-.06 0 0 .06-.06.06v.06s.06 0 .06.06v.18h.12v-.06s.06 0 .06-.06c0 0 .06 0 .06-.06l.06.06h.06v.12h-.12v.06s-.06 0 0 .06h-.06s0 .06-.06 0v.18h.06c.06 0 .06 0 .06.06v.12s.06 0 .06.06v.06h.06c0 .06.06.06.06.06h-.18v-.06l-.06.06h.12s0 .06.06.06h.06c.06 0 .06.06.06.06.06 0 .06.06.12.06v.06h-.12v.06h-.06s-.06 0-.06.06h.06s0 .06.06.06h.06l.06.06s-.06 0-.06.06h-.06.06v.06h-.12.06v.18c-.06 0 0 .06-.06.06 0 0-.06 0-.06.06 0 0 .06 0 0 .06l-.06-.06v.06h-.06v.06h-.12.06v.12h-.3s0 .06-.06.06h-.06l-.06-.06v.06l-.06.06-.06.06h-.18v.12s-.06 0-.06-.06v-.06h-.06v-.06h-.12v.06h-.06v.12s0 .06-.06 0c0 0 0 .06-.06.06v.06c.06 0 .06.06.12.06v.06s.06 0 .06.06h.06c.06 0 .06.06.12.06s.06.06.06.12v.36s0 .06-.06.06-.06.06-.06.06l-.06.06v.12c0 .06-.06.06-.12.06h.06v-.12l.06-.06h-.24v-.12h-.06l-.06-.06h-.12v-.06h-.06v.78s-.06 0 0 0c0 .06.06.06.06.06h.06c0 .06.06.06.06.06h.06l.06.06s0 .06.06.06v.12c0 .06 0 .06.06.12 0 .06.06.06.06.12h-.06c-.06 0-.06 0-.12-.06h-.06l-.06-.06-.06-.06-.06-.06v-.24s0-.06-.06-.06c0 0-.06 0-.06-.06 0 0 0-.06-.06 0v-.18.06c-.06 0 0-.06-.06-.12v-.6s0-.06-.06-.06v-.3s-.06-.06 0-.06v-.06s0-.06-.06-.06v.06h-.06c-1.32.48-1.26.48-1.32.54.06 0 .06 0 0 0 .06 0 .06 0 0 0 0 0 .06 0 0 0zm-9.54-2.7c0-.06 0-.06 0 0 .06-.06.06-.06 0 0 0 0 .06-.06 0 0zm.06-.06c.06 0 .06 0 0 0 .06 0 .06 0 0 0zm.42-.36s0-.06 0 0c0-.06 0-.06 0 0 .06-.06.06 0 0 0 .06 0 .06 0 0 0 .06.06.06.12 0 .12h-.06v-.06c.06 0 .06 0 .06-.06 0 0-.06 0 0 0 0 0-.06 0 0 0zm-.06.18c.06 0 .06 0 0 0 .06 0 .06 0 0 0 .06-.06.06-.06 0 0 .12 0 .06-.06 0 0l.06.12v.06-.06l-.06-.12c.06.06.06.06 0 0 0 .06 0 .12 0 0 0 .06 0 .06 0 0 0 .06 0 0 0 0zm.12-.24s.06 0 0 0c.06 0 .06 0 0 0 .06 0 .06 0 0 0 .06 0 .06 0 0 0zm.48.72c-.06.06-.06.06 0 0h-.12l-.06-.06v-.06h.18v.12c0-.06 0-.06 0 0zm-.06.18s-.06 0 0 0zm.48-.48c-.06 0-.06 0 0 0-.06 0-.06 0 0 0-.06-.06-.06-.06 0 0-.06-.06-.06-.06 0 0 0 0-.06 0 0 0zm.06.12c0 .06 0 .06 0 0 0 .06 0 .06 0 0 0 .06 0 .06 0 0-.06.06 0 .06 0 0-.06.06-.06.06 0 0 0 0 0 .06 0 0zm-.06 0s.06 0 0 0c.06 0 .06 0 0 0zm.06.12c0-.06 0 0 0 0zm.18.12c0 .06.06.06 0 0 0 .06 0 .06 0 0zm.12-.18s.06 0 0 0c.06 0 .06 0 0 0 0-.06 0 0 0 0-.06-.06-.06-.06 0 0-.06-.06-.12-.06-.12-.12h.06s.06 0 .06.12c0-.06 0-.06 0 0zm0-.36c.06 0 .06 0 0 0 0 0 .06 0 0 0zm.06.54c-.06 0-.06 0 0 0zm-.06.12c.06.06.06 0 0 0h.18v.06h-.06l-.12-.06c.06.06.06.06 0 0 0 .06 0 .06 0 0-.06.06-.06.06 0 0-.06 0-.06.06 0 0-.06 0-.06 0 0 0zm.12-.54c-.06 0-.06 0 0 0-.06-.06-.06-.06 0 0-.06 0 0 0 0 0zm0 .36c-.06 0 0 0 0 0zm0-.18c.06 0 .06 0 0 0 .06 0 .06 0 0 0 .06 0 .06 0 0 0 .06 0 0 0 0 0s.06 0 0 0zm.06-.06c0-.06 0 0 0 0 0-.06 0 0 0 0-.06 0-.06 0 0 0 0-.06-.06-.06 0 0 0-.06 0-.06 0 0 0-.06 0-.06 0 0 0-.06 0-.06 0 0zm-.06-.18c.06 0 0 0 0 0zm0-.06c0 .06 0 .06 0 0zm.12.54c-.06 0-.06 0 0 0-.06 0 0 0 0 0zm-.06-.12s.06-.06 0 0c.06-.06.06 0 0 0 .06 0 .06 0 0 0 .06 0 .06 0 0 0zm.18.18s0-.06 0 0c-.06 0 0 0 0 0zm.6.12c-.06 0-.06 0 0 0-.06 0-.06 0-.12.06-.06 0-.06 0-.06-.06v-.06h.12l.06.06c0-.06 0-.06-.06-.06.06 0 .06 0 .06.06zM2.7 12.9c0 .06 0 .06 0 0zm-.06 0s.06 0 0 0c.06 0 .06 0 0 0 .06 0 .06 0 0 0 0 0 .06 0 0 0zm-.12-.18s0 .06 0 0c0 .06 0 .06 0 0zm-.06-.06c.06 0 .06 0 0 0 .06 0 .06.06 0 0 .06 0 .06.06 0 0zm.06.06c-.06 0-.06 0 0 0-.06 0-.06 0 0 0 0 0-.06 0 0 0zm-.3-1.74s-.06.06 0 0c-.06.06-.06.06 0 0-.06.06-.06.06-.12.06l-.06.06v-.06h.06c.06-.06.06-.06.12-.06 0-.06 0-.06 0 0-.06 0 0-.06 0 0zm-.12.06s0 .06 0 0zm.18.12s.06 0 0 0c.06 0 .06.06 0 0 .06.06.06.06 0 0 .06.06.06.06 0 0 .06.06.06.06 0 0-.06.06-.06.12 0 0-.06.06-.06.06 0 0 0 .06-.06.06 0 0 0 .06 0 .06 0 0 0 .06 0 .06 0 0 0 .06 0 .06 0 0zm0 .18c-.06.06-.06.06 0 0-.06.06-.06.06 0 0-.06 0-.06 0 0 0zm-.06 0c0-.06 0 0 0 0zm-.06 0s0-.06 0 0c-.06 0-.06-.06 0 0-.06-.06-.06-.06 0 0 .06-.06.06-.06 0 0zm.24 0s0 .06 0 0c0 .06 0 .06 0 0 0 .06 0 .06 0 0 0 .06 0 .06 0 0zm.12-.06c0-.06 0 0 0 0zm.12-.18v-.18.06c.06.06 0 .06 0 .12zm.18-.24c0 .06 0 .06 0 0 .06.06 0 .06 0 0 0 .06 0 .06 0 0-.06.06-.06.06 0 0-.06 0-.06 0 0 0zm0-.3s0 .06 0 0c-.06.06-.06 0 0 0zm0 .3c0-.06.06-.06 0 0 .06-.06.06 0 0 0zm.06-.48c.06 0 .06 0 0 0 .06.06.06.06 0 0 .06.06.06.06 0 0 .06.06 0 .06 0 0 .06.06.06.06 0 0 0 .06 0 .06 0 0 0 .06 0 .06 0 0 0 .06 0 .06 0 0zm.18.3s.06 0 0 0h.12v.06c-.06 0-.06 0-.12-.06 0 .06 0 .06 0 0zm0-.24c0-.06 0-.06 0 0 .06-.06 0 0 0 0zm.06.18c0 .06 0 0 0 0 0 .06 0 .06 0 0-.06.06-.06.06 0 0 0 0-.06 0 0 0zm.06.06s-.06 0 0 0zm0-.06s-.06 0 0 0zm.36-.24s.06 0 0 0c.06 0 .06 0 0 0 .06 0 .06 0 0 0zM3 9.96c0-.06 0-.06 0 0 0-.06 0-.06 0 0 0 0 0-.06 0 0zm.24-.36c0-.06 0-.06 0 0 0-.06 0-.06 0 0 0-.06 0 0 0 0zm.84-.18c0 .06 0 .06 0 0 0 .06 0 .06 0 0zm1.38-.84c0 .06 0 .06 0 0 0 .06 0 .06 0 0zm1.44.18s-.06 0 0 0c-.06 0-.06 0 0 0-.06 0-.06 0 0 0-.06-.06-.06-.06 0 0 0-.06 0-.06 0 0zm.84-1.14v.06s-.06 0 0-.06zm0 .12c0-.06 0 0 0 0zM7.5 6.72c.06-.06 0-.06 0 0 .06-.06.06-.06 0 0 .06 0 .06 0 0 0zm.06.06c-.06 0-.06 0 0 0-.06 0-.06 0 0 0zm4.56-.6s0-.06 0 0c.06 0 .06 0 0 0zm3.12-.48c0-.06 0-.06 0 0 0-.06 0-.06 0 0 0 0 0-.06 0 0zm2.1 12.72c.06-.06.06-.06 0 0 .06-.06.06-.06 0 0 .06 0 .06 0 0 0zm.06.24c-.06 0-.06 0 0 0-.06 0-.06 0 0 0zm0-9.3c.06 0 .06 0 .12.06-.06 0-.06 0-.12-.06 0 .06 0 .06 0 0zm-.12 9.84s.06 0 0 0c.06 0 0 .06 0 0 0 .06.06.06.12.06h-.06.06-.06l-.06-.06c0 .06 0 .06-.06.06h-.12c0-.06-.06-.06-.06-.12s-.06-.06-.06-.06l-.06-.06h-.06s-.06 0-.06-.06v.06c-.06 0-.06-.06-.06-.06v.06h-.06v.06h-.18c0-.06 0-.06-.06-.06v.06h.06c.06 0 .06 0 .06.06v.06s-.06 0-.12.06c-.12 0-.18 0-.24-.06l-.06-.06v-.06h-.12v-.12h.06-.06l-.06-.06v-.12h-.18c-.06 0-.06 0-.06-.06h-.06v-.12s0 .06-.06 0v-.06c0-.06-.06-.06-.06-.06h.06l.06-.06s.06 0 .06.06c0 0 0-.06.06-.06h-.18v-.06h-.12l.06-.06v-.06h.06s.06 0 .06-.06c.06 0 .06 0 .12.06h.06v.18c0 .06 0 .12.06.12v-.06.06c0 .06.06.06.06.06h.06s0-.06.06-.06c0 0 .06 0 .06-.06h.06v-.06h.18c.06 0 .06 0 .12.06h.12v.06s.06 0 .06.06h.24s.06 0 .06.06h.06v.12h.06l.06.06c.06 0 .06.06.06.06h-.12v.06c0 .06.06.06.06.06h.06v.06l.06.12c-.06-.06-.06-.06 0 0 0-.06 0-.06.06-.06-.06 0-.12 0-.06.06 0 0-.06 0 0 0zm.06-.06c.06 0 .06.06 0 0 0 .06 0 .06 0 0zm.06.06s.06 0 0 0zm-.6 1.08s0 .06 0 0c0 .06 0 .06 0 0 0 0 0 .06 0 0zm-.36-.96c0 .06 0 .06 0 0zm-.36-.3c-.06 0-.06.06 0 0-.06 0-.12.06-.12.06l.06-.06v-.06l.06.06c0-.06 0-.06 0 0 0 0 0-.06 0 0zm0 .06s-.06 0 0 0c-.06-.06-.06-.06 0 0 0 0 0-.06 0 0zm0 .96c0 .06 0 .06 0 0-.06.06-.06.06 0 0-.06.06-.06.06 0 0zm-.3-.6c-.06 0 0-.06 0 0 .06-.06 0 0 0 0zm-.12.06c.06 0 0 0 0 0zm-.12-.72s.06 0 0 0c.06 0 .06 0 0 0 .06.06.06.06 0 0zm0 .06c.06.06 0 .06 0 0 0 .06 0 .06 0 0zm0-.06s0-.06 0 0c0-.06 0-.06 0 0 .06-.06.06-.06 0 0 .06-.06.06-.06 0 0 0 0 .06 0 0 0zm-.12-.06s0 .06-.06.06c.06 0 0-.06.06-.06zm-.06.06c0-.06 0 0 0 0zm0 .6s-.06 0 0 0c-.06.06-.06 0 0 0zm-.36-.9h-.12s0 .06-.06 0v-.06h.06c.06 0 .06 0 .12.06 0-.06-.06-.06 0 0 .06-.06.06-.06 0 0l.06-.06s.06 0 .06.06v.06h-.06s0-.06-.06-.06c.06 0 .06 0 0 0zm.06.54c-.06 0-.06 0 0 0zm-.18-.06c0-.06 0-.06 0 0 0-.06 0-.06 0 0zm-.12-4.92c0 .06-.06.06 0 0-.06 0-.06 0 0 0-.06-.06-.06 0 0 0-.06-.06-.06-.06-.06-.12l.06-.06s0-.06-.06-.06v.06h-.06v-.06c0-.06.06-.06.06-.06v-.06h.06s0-.06.06-.06c0 0 .06 0 .06-.06v-.06h.06c.06 0 .12 0 .18-.06h.06v.06h.06v-.24c.06 0 .06-.06.06-.06s0 .06-.06.06c0 0 0 .06.06.06s.06-.06.12-.06v-.12h.06v-.3h-.06s.06 0 .06-.06c0 0 0-.06-.06-.06v-.12s.06 0 0-.06h-.06v-.06h.06v.06c0 .06.06.12.06.12v.24h-.06c0 .06 0 .06.06.12v.36c0 .06 0 .06-.06.06 0 0 0 .06-.06 0v-.12s-.06.06 0 .06c0 0-.06 0-.06.06v.06s0 .06-.06 0v-.06c-.06 0-.06.06-.06.06h-.24v-.06.06H15v.06h-.06v.06c0 .06 0 .06-.06.06s-.06-.06-.06-.06v-.12h-.12s-.06 0-.06.06c-.06 0-.12 0-.12.06-.06 0 0 .06 0 .06h-.12s0 .06.06.06h.06v.12l-.06.06v.18c.36-.06.36-.12.3-.06.06 0 .06 0 .06.06 0 0 0 .06-.06.06.06-.12 0-.12 0-.12 0-.06 0-.06 0 0 0-.06 0-.06 0 0zm-.06 4.5h-.12v-.06h.06l.06.06.06-.06-.06.06s.06 0 0 0zm.06.42c-.06 0 0 0 0 0zm-.42.36s-.06 0 0 0c-.06 0-.06 0 0 0-.06-.06-.06-.06 0 0-.06-.06-.06-.06 0 0v-.12s.06 0 .06-.06h.12l.06-.06h.18c0 .06-.06 0-.06.06h-.12c-.06 0-.06.06-.12.06v.06c-.12 0-.12.06-.12.06zm-.24-.18s-.06 0 0 0h-.24c0-.06.06-.06.06-.06h.06c.06 0 .06 0 .12.06 0-.06 0-.06 0 0 .06-.06.06-.06.12-.06l-.06.06h-.06c.06 0 .06 0 0 0zm-.6-.84c0 .06 0 .06 0 0 0 .06 0 .06 0 0 0 .06 0 .06 0 0 0 .06 0 .12-.06.12 0 .06 0 .06-.06.06h-.12v-.06h-.06s0-.06-.06-.06h-.12s0 .06-.06.06v-.12h-.06v-.18c0-.06-.06-.06-.06-.06h-.06.06s-.12.06-.12 0c0 0 0-.06-.06-.06v-.12c0-.06.06-.06.06-.12l.06.06h.12v-.12h.18l.06-.06.06-.06v-.06h.18l.06-.06v-.12.06s.06 0 .06-.06c0 .06.06 0 .06.06h.06v.06h.06c0 .06-.06.06-.12.06 0 0 .06 0 .06.06h-.12s.06 0 .06.06v.12l.06.06-.06.06.06.06.06.06h-.06s-.06 0-.06-.06v.18c0 .12-.06.12-.06.18zm0 .78l-.06.06c0-.06 0-.06.06-.06-.06 0-.06 0 0 0 0 0-.06 0 0 0zm0-.6c0 .06 0 .06 0 0-.06.06-.06 0 0 0zm0 0s0 .06 0 0c0 .06 0 0 0 0zm-.12.6h-.12.06c0-.06 0-.06.06 0 0 0 0-.06 0 0zm-.18-.18c-.06 0-.06 0 0 0h-.12.12zm-.48-.66c.06 0 .06 0 0 0 .06 0 .06 0 0 0zm0 0c0-.06 0-.06 0 0 0-.06 0-.06 0 0 0 0 .06 0 0 0zm0-.12c0 .06 0 .06 0 0zm0-2.46s.06 0 0 0c.06.12 0 .12 0 .18v.06h-.12v-.12s0-.06.06-.06l.06-.06c-.06 0-.06 0 0 0-.06 0-.06 0 0 0zm.66-.48c.06 0 .06 0 0 0 .06.06 0 .06 0 0zm.24 1.8c.06 0 .06-.06.06-.06v-.06h.06v-.06.06s-.06 0-.06.06h-.06v.06c.06 0 .06 0 0 0 0 .06 0 .06 0 0 0 .06 0 .06-.06.06.06 0 .06 0 .06-.06zm0-2.1c.06 0 .06 0 0 0 .06.06.06.06 0 0 0 .06.06.06 0 0zm.18.12s0-.06.06-.06h.06v.3s0 .06-.06.06v.12h-.06v-.06c-.06 0-.06 0-.06-.06v-.12c0-.06 0-.12.06-.18zm0-.72c.06 0 .06 0 0 0 .06 0 0 0 0 0zm.24 1.56c.06 0 .06 0 0 0 0 0 0 .06.06.12v.18l-.06.06v.06s0 .06.06.06v.06s0 .06.06.06h.18v-.06h.06v.06h.06v.06h-.06s0-.06-.06-.06v-.06h-.12v.06l-.06-.06h-.06v-.06l.06-.06h-.06v.06c-.06 0-.06 0-.06-.06v-.06s-.06-.06 0-.06v-.06h.06v-.06c0-.06.06-.12 0-.18v-.06h.06c-.18.06-.18.06-.12.06 0 0-.06 0 0 0zm.06.42c-.06.06 0 0 0 0zm.06-1.2s0 .06 0 0zm0-1.44c0-.06 0 0 0 0 0-.06 0 0 0 0zm.06.12l.06-.06c0 .06-.06.12-.06.06zm.06 1.26c.06 0 .06 0 0 0 .06 0 .06 0 0 0 .06 0 .06 0 0 0zm.12 1.56c.06 0 .06 0 0 0 .06 0 .06 0 0 0 .06 0 .06 0 0 0h.06v.12l-.06-.12c0 .06.06.06 0 0zm0-3.06c.06 0 .06.06 0 0 0 .06 0 0 0 0zm.12.12c0-.06 0-.06 0 0 0-.06 0-.06 0 0 0 0 0-.06 0 0zm0 .18c0 .06 0 .06 0 0 0 .06 0 .06 0 0 0 .06 0 .06 0 0zm.12 3.3c0 .06.06.12 0 .18v.06-.06s0-.06-.06-.06l-.06.06v.12h-.06v-.06h-.18s0-.06-.06-.06v-.06s0-.06 0 0c0 0 0-.06-.06-.06h-.06v-.06s0 .06-.06.06v.06-.06s.06 0 .06-.06h.06v-.06s.06 0 .06-.06c.06 0 .06.06 0 .06h.06v-.12h.06v-.12s.06 0 .06.06c.24.12.24.12.24.24 0-.06 0-.06 0 0 0-.06 0-.06 0 0zm0-3.18s0-.06 0 0c0-.06 0-.06 0 0 .06-.06 0-.06 0 0zm.06.66c-.06 0-.06 0 0 0-.06 0-.06 0 0 0zm0-.06c0-.06 0-.06 0 0 0-.06 0-.06 0 0 0-.06.06-.06 0 0zm.06 3.6c0 .06 0 .06 0 0 0 .06 0 0 0 0zm-.18.18c-.06 0-.06 0 0 0h.06-.06zm0 .66c.06 0 .06 0 0 0h.06c.06.06 0 .06-.06 0 .06.06.06.06 0 0 0 .06 0 .06 0 0 0 .06 0 .06 0 0zm-.06-1.32c.06 0 .06.06 0 0 0 .06 0 0 0 0zm-.06.66s0 .06 0 0c0 .06-.06 0 0 0 0 0-.06 0 0 0s.06 0 0 0c.06 0 .06 0 0 0 .06 0 .06 0 0 0 .06 0 .06 0 0 0zm0 .78c-.06.06-.06.06-.06 0h.06zm.06-1.08c-.06 0-.06 0 0 0-.06.06-.12.06-.18.06h-.3c-.06 0-.06.12-.06.18l.06.06s0-.06.06-.06h.24v.06l-.06.06s-.06 0-.06.06h-.06v.06l.06.06h.06v.06s-.06 0-.06.06h-.06v-.06h-.06v-.12h-.06l-.06.06v.24h-.12v-.18h-.06v-.06s0-.06.06-.06v-.3s0-.06.06-.06h.06s0-.06.06-.06h.36c.06-.12.06-.12.12-.06l-.06-.06.06.06c0-.06 0-.06 0 0 0-.06 0-.06 0 0zm-.12 1.08s-.06 0 0 0c-.06 0-.06 0 0 0 0 0-.06 0 0 0zm-.12 0c.06 0 .06 0 0 0 .06 0 .06 0 0 0 .06 0 .06 0 0 0zm0-.78c-.06-.06 0-.06 0 0 0-.06 0-.06 0 0 .06-.06 0-.06 0 0 .06-.06.06-.06 0 0 .06 0 .06 0 0 0zm-.06.36c0 .06-.06.06 0 0-.06.06-.06 0 0 0 0 0-.06 0 0 0zm-.06.06c-.06 0-.06 0 0 0-.06 0-.06 0 0 0 0 0 0-.06 0 0zm-.18.06c0 .06 0 .06 0 0 0 .06 0 0 0 0zm-.12.36c0-.06 0-.06 0 0 0-.06 0-.06 0 0zm0-.06s-.06 0 0 0c-.06.06-.06 0 0 0zm0-2.46c.06 0 .06 0 0 0 .06.06.06 0 0 0zm0-.18c.06 0 0 0 0 0zm.18.12c0 .06 0 .06 0 0-.06.06-.06 0-.06 0s-.06 0-.06-.06h.06s.06 0 .06.06zm0 .84s0-.06 0 0c0-.06 0-.06 0 0zm.18-.66c0-.06 0-.06 0 0 .06 0 0 0 0 0 0 .06 0 .06 0 0 0 .06 0 .06-.06.06v-.12h-.06.06s.06 0 .06.06zm-.06-.18c0 .06 0 .06 0 0zm.12 0s.06.06.06 0c0 0 .06 0 .06.06-.06.06-.12 0-.12-.06 0 .06 0 .06 0 0 0 .06-.06.06 0 0 0 0 0 .06 0 0zm0 0s.06 0 0 0c0 .06 0 0 0 0zm.12.24c0-.06 0-.06 0 0 0-.06 0-.06 0 0 .06-.06.06-.06 0 0l.06.06s0-.06-.06-.06c0 0 .06 0 0 0zm0-.12c0 .06 0 0 0 0zm0 .18s0 .06 0 0c0 .06 0 .06-.06.06l.06-.06s-.06 0 0 0zm-.06 0c-.06 0 0 0 0 0 0-.06 0-.12.06-.12v.06c-.06 0-.06 0-.06.06zm0 .12s-.06 0 0 0zm-.06 0c-.06 0-.06 0 0 0-.06-.06-.06-.06-.12-.06v-.06h.06v-.06h.06v.18s0-.06 0 0zm-.12-.12c0-.06 0-.06 0 0 .06-.06.06-.06 0 0 .06 0 .06-.06 0 0zm0 .42c0 .06 0 .06 0 0-.06.06-.06.06 0 0 0 0-.06 0 0 0zm-.06-.66c0-.06 0-.06 0 0 0-.06.06 0 0 0zm0-.12s-.06-.06 0 0c0-.06 0-.06 0 0zm.48.42s0-.06 0 0c.06-.06.06 0 0 0zm0-2.16c-.06 0-.06 0 0 0-.06 0 0 0 0 0 0-.06 0-.06 0 0 0-.06.06-.06 0 0zm0 2.1s-.06 0 0 0c0 .06 0 .06 0 0-.06 0-.06.06 0 0-.06 0-.06 0 0 0zm-.18-.42c-.06 0-.06 0 0 0-.06 0-.06 0 0 0-.06 0-.06 0 0 0-.06-.06 0-.06 0 0-.06 0-.06-.06 0 0zm-.78.78s-.06 0 0 0c-.06 0-.06 0 0 0zm-.06-.06c0-.06 0-.06 0 0 0-.06 0-.06 0 0 0-.06 0-.06 0 0zm0 1.92h.06l.06.06h.06s-.06 0-.06-.06h.06v.06s-.06 0 0 0h-.12l-.06-.06-.06.06c0-.06 0-.06.06-.06zm.24.12c.06 0 .06 0 0 0h.06l.06.06.06.06h-.06l-.12-.12c0 .06 0 .06 0 0zm.48.12c0 .06-.06.06-.06.06 0-.06 0-.06.06-.06zm0 0c0-.06 0-.06 0 0zm0-.6s-.06.06 0 0c-.06 0-.06-.06 0 0v-.12.12zm.6-5.4c0-.06 0-.06 0 0 .06-.06.06-.06 0 0 .06 0 .06-.06 0 0zm.06-2.88c0-.06 0-.12-.06-.12v-.06s0-.06-.06-.06v-.18c0-.06-.06-.06-.06-.06V9.9l.06.06h.06v.06c0 .06.06.06.06.06.06 0 .06.06.06.06s0-.06-.06-.06v.06H15v.24l.06.06v.12s0 .06.06.06c0 0 0 .06.06.06l.06.06c0 .06 0 .06.06.06 0 .06 0 .06.06.06l.06.06-.06-.06h-.06s0-.06-.06-.06h-.12v.3c.06 0 .06.06.06.06h.06c0 .06 0 .06.06.06-.06 0-.06.06 0 .12v.06c-.06 0-.06-.06-.06-.06v-.12s0-.06-.06-.06c0-.06-.06-.06 0-.12v-.06l-.06-.06v-.3s0-.06-.06-.06c0 0 0-.06-.06-.06v-.06c0-.06 0-.06-.06-.12.06.18.06.18 0 .12.06.06 0 .06 0 0zm.24-1.62c0-.06 0-.06 0 0 0-.06 0-.06 0 0 0-.06 0-.06 0 0 0-.06 0-.06 0 0zm.72 3.12c0 .06 0 0 0 0 .06 0 .06 0 0 0 .06 0 .06 0 0 0 0 .06 0 .06 0 0 0 .06 0 .06 0 0 0 .06 0 .12 0 0l-.06.06h-.06c-.06 0-.06.06-.06.12v.06h-.06c-.06 0-.06-.06-.12-.06h-.06c-.06 0-.06.06-.06.06h-.06c-.06 0 0 .12 0 .06l.06.06h.06v.06h-.06v.06s0 .06-.06.06v-.12s-.06 0-.06-.06v-.12s-.06 0-.06-.06h.12v-.06L15.3 12v-.12c0-.12-.06-.12-.06-.18 0 0 0-.06.06-.06h.06c0 .06.06.06.12.06l.06.06s.06 0 .06-.06v.06c.24.18.3.18.3.18zm0-.06v-.12h.06c0 .06 0 .06-.06.12zm-.18 6.42s.06 0 0 0h.12-.12zm0-.12c.06 0 .06.06.12.06-.06 0-.06 0-.12-.06zm-.3-5.22c-.06 0-.06 0 0 0-.06 0-.06-.06 0 0 0-.06 0-.06 0 0zm-.12-.78c0 .06 0 .06 0 0 0 .06 0 .06 0 0 0 0 0 .06 0 0zm.36 6.06c-.06 0-.06-.06 0 0-.06-.06-.06-.06 0 0 0-.06-.06-.06 0 0zm-.54-4.5s0-.06 0 0c-.06 0-.06-.06-.06-.06H15v.06h-.06v-.06s0-.06.06-.06v.06h.06c.06 0 .06 0 .06.06 0-.06 0-.06 0 0 0-.06 0-.06 0 0 0-.06 0-.06 0 0zm0 4.56h-.06.06zm-.24-.3c.06.06.06.06 0 0 .06.06.06.06 0 0 0 .06.06.06 0 0 0 .06 0 .06 0 0h-.06v.12s.06 0 .06.06h-.06c0-.06-.06-.06-.06-.06v-.3l.06-.06v.12h-.06l.06-.06s.06 0 .06-.06c.06.18.06.18 0 .24zm-.12-3.84c.06 0 .06.06 0 0 0 .06 0 0 0 0zm.06-.06s0 .06 0 0c0 .06 0 0 0 0zm.06 3.72c.06 0 .06 0 0 0zm.18-4.26c.06 0 0 0 0 0zm.06-.06c.06 0 .06.06 0 0 0 .06 0 .06 0 0zm.06 4.68c0 .06 0 .06 0 0 0 .06 0 .06 0 0 0 0 0 .06 0 0zm-.06 0c.06 0 .06 0 0 0zm.06-.06c-.06 0-.06 0 0 0-.06 0 0 0 0 0 .06 0 .06 0 0 0zm-.42 0c.06.06.06.06 0 0 .06.06.06.06 0 0 0 .06.06.06 0 0zm.06.12c0 .06.06.06 0 0 0 .06-.06.06 0 0 0 0-.06 0 0 0zm0 .78c0 .06 0 .06 0 0zm0-.48s.06 0 0 0c.06 0 .06 0 0 0 .06 0 .06 0 0 0zm.24.9s0 .06 0 0c.06 0 .06 0 0 0h.12l-.06.06-.06-.06c0 .06 0 .06 0 0zm.12-.42c0-.06 0-.06 0 0 0-.06.06-.06.06-.06s0 .06-.06.06zm.84-7.32c0-.06.06-.06.06-.06v-.06h.06s0-.06.06-.06v.06h-.06l-.06.06-.06.06s0-.06 0 0 0 .06 0 0zm.18-.18s0-.06 0 0c0-.06 0-.06 0 0 .06-.06.06-.06 0 0 .06-.06.06-.06 0 0 .06 0 .06 0 0 0zm.18-.24c0-.06.06-.06 0 0 .06-.06.06-.06 0 0 .06 0 .06-.06 0 0zm.18-.78c.06 0 0 0 0 0 0 .06 0 .06-.06.06v.06l.06-.12c0-.06 0 0 0 0 0-.06 0-.06 0 0zm0-.06c.06 0 .06 0 0 0zm-.06.36s.06 0 0 0zm0-.12s0 .06 0 0c0 .06 0 .06 0 0 0 .06 0 .06 0 0zm-.06-.24s.06 0 0 0c.06 0 .06 0 0 0 .06 0 .06 0 0 0zm.24 6.06s0-.06 0 0c0-.06 0 0 0 0zm.12-.24c0-.06 0-.06 0 0 0-.06 0 0 0 0zm.12 2.34s0 .06 0 0c-.06.06 0 0 0 0zm.06-.3s.06 0 0 0c.06 0 .06 0 0 0h.06c0 .06-.06.06-.06 0zm.12.42c0 .06 0 0 0 0zm.06-9.42l.06-.06s0 .06.06.06c0 .06.06.06.06.06h-.06c-.06 0-.06 0-.12-.06 0 0 0 .06 0 0zm.18 8.94s-.06 0 0 0zm-.78-9.6c0-.06-.06-.12-.06-.12l.06-.06.06.06s-.06 0-.06.06v.06zm-.48-.78s.06 0 0 0c0 .06 0 0 0 0zm.06.06c-.06 0-.06 0 0 0zm-1.8 1.98s-.06 0 0 0c0 .06 0 .06 0 0 0 .06 0 .06-.06.06V9.9h.06c-.06 0-.06 0 0 0zm0 .12c0 .06 0 .06 0 0-.06.06-.06 0 0 0zm-.12-.06c-.06 0-.06 0 0 0-.06 0-.06-.06 0 0 0-.06-.06-.06 0 0 0-.06 0-.06 0 0zm-.48 4.08h-.06.06zm-1.2 4.32c.06 0 .06 0 0 0 .06.06.06.06.06.12-.06 0-.06 0-.06-.12 0 .06 0 .06 0 0 0 .06 0 .12 0 0-.06.06 0 .06 0 0-.06.06-.06.06 0 0-.06.06-.06.06 0 0-.06.06 0 .06 0 0zm.06-.72c-.06 0-.06-.06 0 0-.06-.06-.06-.06 0 0 0-.06 0-.06 0 0zm-.3.66s0-.06 0 0c0-.06.06 0 0 0 .06 0 .06 0 0 0 .06.06.06.12.06.12h.06v.06h-.06v-.12c-.06 0-.12 0-.06-.06 0 0-.06 0 0 0zm0-.54c0-.06 0-.06 0 0 0-.06 0-.06 0 0 0 0 0-.06 0 0zm-.12.18c0 .06 0 .06 0 0 0 .06 0 0 0 0zm0 .18s.06 0 0 0c.06 0 .06 0 0 0zm0 .06c0-.06 0-.06 0 0zm-.12-1.26c0-.06 0-.06 0 0 0-.06 0-.06 0 0 .06-.06.06-.06 0 0zm-.42.06s-.06-.06 0 0c0-.06 0 0 0 0zm.48 1.02s0-.06 0 0c0-.06 0-.06 0 0 0-.06 0-.06 0 0 0-.06 0-.06 0 0zm-.18-.06c.06 0 .06 0 0 0 .06.06.06.06 0 0 0 .06 0 .06 0 0 0 .06 0 .06 0 0zm0 0s-.06 0 0 0zm-.06-.06c-.06 0-.06 0 0 0-.06 0-.06-.06 0 0 0-.06 0-.06 0 0zm-.42-.78c0 .06 0 .06 0 0 0 .06-.06 0 0 0zm-.3.66s.06 0 0 0zm.24.24s0-.06 0 0c-.06-.06-.06-.06-.06-.12.06.06.06.06.06.12zm.06.12c.06.06 0 .06 0 0zm.06.12c-.06 0 0-.06 0 0 0-.06 0-.06 0 0 .06 0 .06 0 0 0 0 0 0 .06 0 0zm.06.06c.06 0 .06.06 0 0 .06.06 0 .06 0 0zm.12.12s0 .06 0 0c0 .06 0 0 0 0zm.18.3c.06 0 .06 0 0 0 .06 0 0 0 0 0zm.36.06s0-.06 0 0c-.06 0-.06-.06-.12 0 0 0-.06-.06-.12-.06h-.12s-.06 0-.06-.06-.06-.06-.12-.12v-.06c0-.06-.06-.06-.06-.12l-.06-.06-.06-.06v-.12s-.06 0-.06-.06h-.06v-.12s-.06 0-.06-.06-.06-.06-.06-.12c0 0-.06 0-.06-.06-.06 0-.06-.06-.06-.06 0-.06-.06-.06 0-.12.06 0 .06.06.12.06h.18c0 .06 0 .06.06.06v.06s.06 0 .06.06c.06 0 .06 0 .06.06v.12c.06 0 .06.06.06.06v.06l.06.06h.06l-.06.06c.06 0 .06 0 .06-.06h-.06.06s-.06 0-.06.06c0 0 .06 0 .06.06h.06v.12h.06l.06.06s.06 0 .06.06v.36c.24-.06.24-.12.18-.06 0 0 0-.06 0 0zm.54.24s-.06 0 0 0c-.06 0-.06 0 0 0-.06 0-.06 0 0 0h-.12c-.06 0-.06 0-.06-.06h-.12v-.06h-.06v-.12h.18v.06c.06.06.12 0 .24 0v-.06h.24s0 .06.06.06h.12v.12h-.06s-.06 0-.06-.06h-.24c-.06.12-.12.12-.12.12zm.48 1.56c0-.06 0 0 0 0zm2.16 2.1s0 .06 0 0h-.12s.06 0 .06-.06c0 .06 0 .06.06.06-.06 0-.06 0 0 0s.06 0 0 0c0 .06.06.06 0 0zm.48.72c0-.06 0-.06.06-.06 0 0 0 .06-.06.06.06.06.06 0 0 0zm.42.3s0 .06 0 0c0 .06 0 .06 0 0v.18s0 .06-.06.06h-.06s0 .06-.06.06c0 0 0 .06-.06.06h-.06v-.18h.06v-.24h.12s.06 0 .06.06h.18c-.12-.06-.12 0-.12 0zm-.36-.24s0 .06 0 0c0 .06 0 0 0 0zm0 .06c.06 0 .06 0 0 0 .06 0 0 0 0 0zm.36 0c.06 0 .06 0 0 0 .06 0 0 0 0 0zm0-.06c.06-.06.06 0 0 0 .06 0 .06 0 0 0zm1.08-1.86v.12c0 .06 0 .06-.06.06v.06c-.06.06-.06.12-.06.18v.12s0 .06-.06.06h-.06v.06l-.06.06h-.12c0 .06-.06.06-.06.06s0 .06-.06.06c0 .06-.06.06-.06.12 0 0-.06 0-.06.06l-.06.06v.12l-.06.06v.06s0 .06-.06.06h-.24c-.06.06-.12.06-.12.12h-.06c0-.06 0-.06-.06-.06h.06c0-.06 0-.06-.06-.06 0 0-.06 0-.06.06 0 0 0 .06-.06 0 0 0-.06 0-.06.06l-.06-.06v-.06s0-.06-.06-.06h-.06s0-.06-.06-.06c0 0 0-.06-.06-.06 0-.06 0-.06-.06-.06v-.06l.06-.06v-.24h-.06.06s0-.06.06-.06v-.12c-.06 0-.06.06-.06.06s0 .06-.06.06h-.12v-.06h.06v-.18h.06v-.12.06h-.06l-.06.06h-.06s-.06 0-.06.06v.06l-.06.06v.12l-.06-.06v-.3s-.06 0-.06-.06h-.06L15 21.9h-.06l-.06-.06-.06-.06h-.3c-.06 0-.12.06-.12.06h-.18c-.06.06-.06.06-.12.06h-.06c0 .06-.06.06-.06.12h-.36s-.06 0-.06.06h-.18s-.06 0-.06-.06h-.06v-.12h.06v-.18c0-.06-.06-.06 0-.12v-.18c0-.06-.06-.06-.06-.12V21v.06h.06c0-.06 0-.06-.06-.06v-.06.12V21c0-.06 0-.06-.06-.06v-.18l.06-.06v-.12l.06-.06v.12h.06v-.06c.06 0 .06 0 .12-.06 0 0 .06 0 .06-.06l.06-.06h.12l.06-.06h.06c.06 0 .06 0 .06-.06h.24s.06 0 .06-.06l.06-.06v-.12h.06v-.06c0 .06.06.12.06.12v-.06h-.06.18v-.12h.12s0-.06.06 0 0-.06.06-.06l.06-.06s.06 0 .06-.06h.06l.06.06v.12h.06v-.06h.06s0 .06.06.06h-.06v-.06s0-.06.06-.06v-.18h.18v-.06h-.12.18v.06h.12v.12s0-.06.06-.06v.06h.06c0 .06-.06.06-.06.06v.06h-.12v.12s.06 0 .06.06c0 0 .06 0 0 .06h.12l.06.06v.06h.12v.06s.06 0 .06.06h.06c.06 0 .06 0 .12-.06 0-.06.06-.06 0-.12v-.48l-.06-.06v-.18.06h.06v.3l.06.06h.06v.06l.06.06v.54h.3v.06c0 .06 0 .06.06.06v.18h.06v-.06.12l.06.06V21h.06c0 .06 0 .12.06.12 0 .06 0 .06.06.06v.12c.48.18.48.18.48.3 0-.06 0-.06 0 0zm-1.68-1.86c.06 0 .06 0 0 0 .06 0 .06 0 0 0 .06 0 .06 0 0 0 .06 0 .06 0 0 0 .06 0 .06 0 0 0 .06.06.06.06 0 0 .06.06.06.06 0 0 0 0 .06 0 0 0zm1.74 1.5c0 .06 0 .06 0 0 0 .06 0 .06 0 0v-.12c.06.06 0 .12 0 .12zm0-1.98c-.06-.06-.06-.06 0 0 0-.06 0 0 0 0zm.12-.54c-.06 0-.06 0 0 0-.06 0-.06.06-.06.06h-.18l-.06-.06h.18v-.06.06h.12c0-.06.06-.06.06-.12h.06v-.06h.06v.06h-.06c-.12.06-.12.06-.12.12zm.06-.18c0-.06 0-.06 0 0l-.06-.06c-.06 0-.12-.06-.12-.06l.06.06s.06 0 .06.06c.06-.06.06-.06.06 0 .06 0 0-.06 0 0 .06 0 .06 0 0 0 .06.06.06.06 0 0 .06.06.06.06.06.12v-.06c-.06 0 0 0-.06-.06 0 0 .06.06 0 0zm.06.9s.06 0 0 0c.06 0 .06 0 0 0zm.06 0s0-.06 0 0c.06-.06.06-.06 0 0 .06 0 .06 0 0 0zm0-9.66c-.06 0-.06 0 0 0-.06 0-.06.06-.12 0 .06 0 .06-.06.12 0 0-.06 0-.06 0 0 0-.06 0-.06 0 0l.06-.06v.06c-.06-.06-.06-.06-.06 0zm.12-.06c.06 0 .06-.06.06-.06s0-.06.06-.06h.06s-.06 0-.06.06v.06h-.12c-.06 0 0 0 0 0zm0 9c0-.06 0-.06 0 0 0-.06 0-.06 0 0 0-.06 0-.06 0 0 0-.06 0-.06 0 0 0 0 0-.06 0 0zm0 .06c.06-.06.06-.06 0 0 .06 0 .12 0 .12.06h-.06s0-.06-.06-.06zm.18 6.06H18h.06v-.12.12zm1.02-.96V24c-.06 0-.06.06-.06.06s-.06 0-.06.06h-.06l-.06.06s-.06 0-.06.06v.06s.06.06 0 .06h-.12v.06h-.12c0 .06-.06.06-.06.12 0 0-.06 0-.06.06s0 .06-.06.12c-.06 0-.06 0-.12.06-.06 0-.06.06-.12.06v-.12h-.06s0-.06.06-.06v-.06l.06-.06v-.12c.06 0 .06-.06.12-.06h.06v-.06s.06 0 .06-.06l.06-.06h.06c.06 0 .06-.06.06-.06v-.06h.06V24h.06l.12-.12.06-.06v.12c.12-.06.12-.06.18-.06 0-.06 0 0 0 0 0-.06 0-.06 0 0 0 0 0-.06 0 0zm-.36-14.4c0-.06 0-.06 0 0 0-.06 0-.06 0 0 0-.06 0-.06 0 0zm.48 10.44c-.06 0-.06.06 0 0-.06.06-.06 0 0 0l-.06-.06v-.06c0 .06 0 .06.06.12-.06 0-.06 0 0 0 0-.06 0-.06 0 0 0-.06 0-.06 0 0zm.06.18c-.06 0-.06 0 0 0-.06-.06-.06-.06 0 0l-.06-.06s.06 0 .06.06zM19.2 9.24c.06 0 .06 0 0 0 .06 0 .06 0 0 0zm0 11.52s-.06 0 0 0c0 0 0-.06 0 0 0 0 0-.06 0 0zm-.06-1.38c-.06 0-.06 0 0 0-.06-.06-.06-.06 0 0 0-.06 0-.06 0 0 0-.06 0-.06 0 0zm-.12 1.26s0-.06 0 0c.06-.06.06-.06 0 0 .06 0 .06 0 0 0zm.06.18s-.06.06 0 0h-.06v-.06s0-.06-.06-.06v-.12.06h.06c.06 0 .06.06.06.18-.06-.06-.12-.06 0 0-.06 0-.06 0 0 0zm-.3-11.28c0-.06 0-.06 0 0 0-.06.06-.06 0 0 0-.06 0-.06 0 0zm.36 11.1c0 .06 0 .06 0 0-.06.06-.06 0 0 0zm.6 2.7s0 .06 0 0c0 .06-.06.12-.06.12h-.06v.06h-.06.06c0 .06-.06.06-.06.12l-.18.18s0-.06-.06 0h-.06c0-.06.06-.06.06-.12s0-.12-.06-.12l-.06-.06v-.06l.06-.06c.06 0 .06-.06.06-.12V22.68v.12h.12v.18h.06v-.06.3c.06 0 .06.06.06.06h.06c.06 0 .06-.06.06-.06.06.06.06.12.06.12zm-.48-3.24s.06 0 0 0c.06 0 .06 0 0 0 .06 0 .06 0 0 0zm.06.12c-.06 0-.06 0 0 0-.06 0 0 0 0 0zm0-.18s-.06.06 0 0c-.06 0-.06 0 0 0zm.12-10.74s.06 0 0 0c.06 0 .06 0 0 0 .06 0 .06 0 0 0zm.06 13.74c0 .06 0 0 0 0zm.3-13.98c0 .06 0 .06 0 0 0 .06 0 .06 0 0 0 .06 0 .06 0 0l-.06.06h-.06v.06h-.06l-.06.06.06-.06v-.06h-.06V9h.06s.06-.06.06 0c.12 0 .12 0 .12.06.06 0 0-.06 0 0 .06 0 .06 0 0 0zm.06-.06h-.12c.06-.06.06-.06.12 0l-.06-.06c.06 0 .06 0 .06.06 0-.06 0-.06 0 0 0-.06 0-.06 0 0 .06-.06.06-.06 0 0 .06-.06 0 0 0 0 .06 0 .06 0 0 0zm0-.3s.06 0 0 0c.06 0 0 0 0 0zm.06.18c-.06 0-.06 0 0 0zm.66-.18c-.06 0-.06.06 0 0l-.06.06h-.06c.06 0 .06-.06.12-.06 0-.06 0-.06 0 0 0 0 0-.06 0 0zm-.12 0s0 .06 0 0zm.06-.06c.06 0 .06 0 0 0 .06 0 .06 0 0 0 0 .06 0 .06-.06.06l.06-.06zm0-.12s.06 0 0 0c0 .06 0 0 0 0zm.06.06c.06 0 .06 0 0 0 .06 0 0 0 0 0zm.06.12c0-.06 0-.06 0 0 0-.06 0-.06 0 0 .06-.06 0-.06 0 0zm.12.12s.06 0 0 0c.06 0 .06 0 0 0zm.66.78s0-.06 0 0c0-.06 0 0 0 0zm0-.18s0-.06 0 0c0-.06 0 0 0 0 0-.06 0 0 0 0 .06-.06.06-.06 0 0l.06-.06v.06c0 .06 0 0-.06 0l.06.06h.06v.06l-.12-.12c0 .06.06.12.06.12h-.06v-.12zm.24.36c-.06 0 0-.06 0 0 0-.06 0-.06 0 0zm0 0c0 .06 0 .06 0 0-.06.06-.06.06 0 0-.06 0-.06 0 0 0zm-.06-.06s0 .06 0 0c0 .06 0 .06 0 0 0 .06 0 .06 0 0 0 0-.06.06 0 0 0-.06 0 0 0 0-.06-.06-.06-.06-.06-.12h.06c.06.06.06.12 0 .12.06 0 .06 0 0 0zm0-.18v-.12.12c0 .06 0 .06 0 0 0 .06 0 .06 0 0l-.06.06s-.06.06-.06 0v-.06h.06v-.18s.06 0 .06.06.06.06 0 .12c.06 0 0 0 0 0zm-.12.54s.06 0 0 0c0 .06 0 .06 0 0 0 .06 0 .06 0 0zm0-.06s.06 0 0 0c0 0 0 .06 0 0zm0-.12c.06 0 .06 0 0 0 .06 0 .06 0 0 0 .06 0 .06 0 0 0 .06 0 .06 0 0 0zm.06 0c0-.06 0-.06 0 0 0-.06 0-.06 0 0 0 0 0-.06 0 0zm0-.12c0 .06 0 .06 0 0-.06.06-.06.06 0 0-.06.06-.06 0 0 0-.06 0-.06.06 0 0-.06 0-.06 0 0 0-.06 0 0 0 0 0 0-.06 0-.06 0 0v-.12.12zm-.12-.06c0-.06 0-.06 0 0 0-.06 0-.06 0 0 0-.06 0-.06 0 0V9.6c.06 0 .06.06 0 .12s.06-.06 0 0zm.06.24c0 .06 0 .06 0 0 0 .06 0 0 0 0zm.06.36c0 .06 0 .06-.06.06v.12h-.06c0-.06-.06-.06-.06-.12v-.06h.06c0-.06 0-.06-.06-.06v-.18h.06c.06.18.06.18.12.24-.06-.06-.06-.06 0 0h-.06v.06c0-.06 0-.06.06-.06 0-.06 0 0 0 0 0-.06.06-.06 0 0zm.06-.3c.06.06 0 .06 0 0 0 .06 0 .06 0 0v.12h-.06c0-.06 0-.06.06-.12-.06.06-.06.06 0 0-.06.06 0 .06 0 0 0 0-.06 0 0 0h-.12V9.9v.18l.12-.06zm.06-.18s0 .06 0 0zm0 0c0 .06 0 .06 0 0 0 .06 0 .06 0 0zm4.68 13.68c-.06 0-.06 0 0 0-.06 0-.06-.06 0 0-.06-.06-.06-.06 0 0-.06-.06-.06-.06 0 0-.06-.06-.06-.12 0 0 0-.06-.06-.06 0 0-.06-.06 0-.06 0 0zm0 .12c-.06 0-.06.06 0 0-.06.06-.06 0 0 0-.06 0-.06 0 0 0-.06 0-.06 0-.06-.06v-.06h.06v.12c-.06 0-.06 0 0 0 0 0-.06 0 0 0zm0 .3c0 .06.06 0 0 0 0 .06 0 .06 0 0 0 0 0 .06 0 0zm0-.18c-.06 0-.06 0 0 0-.06 0-.06 0 0 0 0 0-.06 0 0 0zm0 .06s-.06 0 0 0c-.06 0-.06 0 0 0-.06-.06-.06 0 0 0-.06-.06-.06-.06 0 0-.06-.06-.06-.06 0 0-.06-.06-.06-.06 0 0-.06-.06-.06-.06 0 0-.06-.06-.06-.06 0 0-.06-.06-.06-.06 0 0-.06-.06-.06-.06 0 0-.06-.06-.06-.06 0 0-.06-.06-.06-.06 0 0zm-.12-.24s0-.06 0 0c0-.06.06-.06 0 0 .06 0 .06 0 0 0zm.06-.12c0 .06 0 .06 0 0 0 .06 0 .06 0 0 0 .06 0 .06 0 0 0 0-.06.06 0 0-.06 0-.06 0 0 0-.06 0-.06 0 0 0-.06 0-.06 0 0 0zm-.06.18c.06 0 .06 0 0 0zm.06.06c0 .06-.06 0 0 0zm0 .12s0 .06 0 0c0 .06 0 .06 0 0 0 0-.06.06 0 0zm0 .06s0 .06 0 0c0 .06 0 0 0 0 .06 0 0 0 0 0 .06 0 .06 0 0 0 0 0 0 .06 0 0zm.06.18c-.06 0-.06 0 0 0-.06 0-.06-.06 0 0 0-.06-.06-.06 0 0zm.12.06c-.06 0-.06 0 0 0-.06 0-.06 0 0 0-.06 0-.06 0 0 0h-.06c-.06-.06 0-.06.06 0-.06-.06-.06-.06 0 0-.06-.06-.06-.06 0 0-.06-.06-.06-.06 0 0-.06-.06-.06-.06 0 0 0-.06 0-.06 0 0zm2.64-5.04c0-.06 0-.06 0 0 0-.06 0-.06 0 0zm-.66-7.14c0 .06 0 .06 0 0 0 .06 0 0 0 0-.06 0-.06 0 0 0zm-.06.06s0 .06 0 0c0 .06.06 0 0 0 .06 0 .06 0 0 0 .06.06.06.06 0 0v.12h.06v.06s0 .06-.06.06v.12s0-.06.06-.06c0 0-.06.06 0 .06v.12-.06.06-.12.06s0 .06-.06.06c0 0 .06 0 .06-.06h-.06s-.06.06-.06 0v-.06l.06-.06v-.06h-.06v-.12l.06-.12c-.06.06-.06.06 0 0 0 0 0 .06 0 0 .06-.06.06-.06 0 0 .06 0 .06 0 0 0 0 .06 0 .12-.06.12 0 0 0 .06-.06.06v.06l.06-.06s0-.06.06-.06h.06s-.06 0-.06.06v.06c-.12-.24-.06-.24 0-.24-.06 0-.06 0 0 0-.06 0-.06 0 0 0-.06 0-.06 0 0 0-.06 0-.06 0 0 0-.06 0-.06 0 0 0-.06 0 0 0 0 0-.06 0-.06.06 0 0zm.06 5.82c.06 0 .06 0 0 0zm0 0c0-.06 0-.06 0 0 0-.06 0-.06 0 0zm0-.18s0-.06 0 0c0-.06 0-.06 0 0zm-.24-5.28c.06 0 .06 0 0 0 .06 0 .06 0 0 0zm0-.06c.06 0 .06 0 0 0 .06 0 0 0 0 0zm-.06-1.14c0 .06 0 .06 0 0 .06.06.06 0 .06.06h-.12.06s-.06 0-.06.06c0 0-.06 0-.06-.06l.06.06s.06 0 0-.06l.06-.06c-.06 0-.06 0 0 0 .12 0 .12 0 .12.06h-.06s0-.06.06-.06h.06l.06.06h-.06v.06h.06v.06l-.06.06h-.06v.12h-.36v.06s0 .06-.06.06v.06h-.12c-.06 0-.06.06-.06.06h-.06v.06l-.06.06c0 .06-.06.06-.06.12.06 0 .06 0 .06-.06 0 0 0-.06.06-.06l.12-.12h.24s.06 0 .06.06h-.24.06v.06h.06v.06h.06v.12h.3s-.06 0-.06.06h-.12v.06l-.06.06v-.12s0-.06.06-.06c0 0 .06 0 .06-.06h.06s.06 0 .06-.06h-.06s.06 0 .06-.06l-.06.06h-.12V12h-.06s0 .06-.06.06v.06h-.06c0 .06 0 .06-.06.06v.12h-.06v-.06s0 .06-.06.06v-.06.06h-.24v.3h-.06s-.06 0-.06.06v.24l-.06.06v-.06h-.06v-.06.36s0 .06-.06.06v.18s0 .06.06.06v.18h.06v.06h.06v.12h-.06v.06h.06c.06.06 0 .06-.06.06 0 0-.06 0 0 0h-.06c-.06 0-.12.06-.18.06v.18H27v.06s0 .06-.06.06V15c0 .06-.06.06-.06.12h-.06v-.3.06c0-.06.06-.12 0-.18l-.06-.06v-.06h-.06s0-.06-.06-.06h-.24v-.06l-.06.06h-.12s-.06 0-.06.06v.06h-.06s.06 0 .06.06c0 0 0-.06 0 0v.06h-.06s-.06 0 0 .06h-.18s0 .06-.06 0v-.06.06l-.06.06h-.12V15s0 .06-.06.06v.18s0-.06.06-.06v.48s.06.06 0 .06v-.06.18l.06.06s0 .06.06.06c0 .06.06.06.06.12h.06v.06h.06s.06 0 .06-.06h.24v-.06s.06 0 .06-.06v-.06l.06-.06v-.06l.06-.06h.24l.06.06v.06l-.06.06v.18l-.06.06v.12c0 .06 0 .06-.06.12 0 0-.06 0-.06.06h.18s.06 0 .06.06h.18s.06 0 .06.06v.12s-.06 0 0 .06v.12-.06.24c0 .06.06.06.06.12l.06.06s0 .06.06.06.06.06.12.06c0 0 .06 0 .06-.06h.12s.06 0 .06.06l.06.06v-.06l.06-.06s.06 0 .06-.06v-.12h.12c.06 0 0-.06 0-.06h.06s.06-.06.12-.06h.06s.06 0 .06.06c0 0 0 .06-.06.06h-.06v.24c.06 0 .06 0 .06-.06v-.12l.06-.06s.06 0 .06-.06h.06v-.06h-.06s0-.06.06-.06v.12s.06 0 .06.06v.06h.18l.06.06h.06c.06 0 .06 0 .06-.06h.18-.12s.06 0 .06.06h.12v.06s0 .06-.06.06h.12s.06 0 .06.06v.06l.06.06v.12s0-.06.06-.06.06.06.06.06v.06s.06-.06.12 0h.12v.06h.12v.06c0 .06.06.12.06.18v.12l-.06.06-.06.06c0 .06 0 .06-.06.06v.06s0-.06.06-.06v.06s0-.06.06-.06v-.06h.12c0 .06 0 .06-.06.06 0 0-.06.06-.06 0h-.06v.12-.12l.06-.06s0-.06.06-.06h.12v.24-.12H30v.12h.06v.06h.12v1.98s0 .06-.06.06 0 .06-.06.06c0 0 .06 0 .06-.06h-.06v1.2c-.06 0 0 .06-.06.06v.18h-.12v-.06.06c-2.28-.36-2.28-.36-2.22-.36v.48h-.06v.06h-.12v.3h-.12s-.06-.06-.06 0v.18h.18v.18h.06s-.06 0 0 .06v.18h-.06v.12l.06.06v.6s.06 0 0 .06h-.06v.18s-.06 0 0 0v.24h-.12v-.12h.06v.06h.12s0-.06.06 0v-.06s0-.06 0 0v-.06.12V24v.12-.24.12h-.12v-.12s-.06 0-.06-.06v-.3h-.06v-.06h.06v-.54.06h-.06l-.06-.06v-.48s0-.06.06-.06v-.18l.06-.06v-.18c.06-.06 0-.12 0-.12v-1.32l-.06-.06h-.06v-.06l-.06-.06c-.06 0-.06 0-.06-.06h-.06s0-.06-.06-.06H27v-.06s-.06 0-.06-.06v-.12c0-.06 0-.06-.06-.06v-.06c0-.06 0-.06-.06-.06 0-.06-.06-.06-.06-.12v-.12c0-.06-.06-.06-.06-.06v-.12s-.06 0-.06-.06l-.06-.06h.06v-.12l.06-.06h.06l.06-.06v-.12s0 .06-.06.06c0 0-.06 0-.06-.06v-.12s0-.06.06 0c0-.06.06-.06.06-.06v-.06h.06s.06 0 .06-.06v-.12l.06-.06.06-.06h.06v-.42l-.06-.06v-.06H27s0-.06-.06-.06h-.06c0 .06-.06.06-.06.12s.06 0 .06.06c-.06 0-.06 0-.06.06h-.06v-.06.06c-.06 0-.06-.06-.06-.06h-.12s-.06 0-.06-.06-.06-.06-.06-.06v-.06h-.06v.12h-.06v-.12s-.06-.06-.06-.12l-.06-.06v-.06h-.12s0-.06-.06-.06-.06-.06-.12-.06h-.18v-.06s0-.06-.06-.06l-.06-.06-.06-.06h-.06.06-.18s-.06 0-.06-.06h-.12c-.06 0-.06 0-.06-.06h-.12v-.06h-.12s0-.06-.06-.06l-.06-.06c-.06 0-.06 0-.12-.06 0-.06-.06-.06-.06-.12h-.06v-.06s-.06-.06 0-.06h.06l.06-.06c0-.06-.06-.12-.06-.12v-.06c0-.06-.06-.06-.06-.06l-.06-.06c0-.06-.06-.12-.12-.12h-.06v-.06l-.06-.06c0-.06 0-.06.06-.06v-.06h-.06s-.06 0-.06-.06v-.06c-.06 0-.06 0-.06-.06v-.06s0-.06-.06-.06c0 0 0-.06-.06-.06v-.06c0-.06 0-.06-.06-.12h-.06v-.06l-.06-.06h-.06v.3s0 .06.06.06v.06l.06.06v.18c.06.06 0 .12.06.18v.12s.06 0 .06.06c0 0 0 .06.06.06v.06c0 .06 0 .06-.06.06v-.18c-.06 0-.06-.06-.06-.06h-.06s.06-.06 0-.12v-.06c-.06 0-.06-.06-.06-.06v-.06h-.06v-.06s-.06 0-.06-.06h.12v-.06s0-.06-.06-.06c0-.06-.06-.06-.06-.06h-.06v-.12s0-.06-.06-.06l-.06-.06c0-.06-.06-.12-.06-.12v-.12s0-.06-.06-.06h-.06c0-.06-.06-.06-.06-.06v-.06h-.12v-.12s0-.06-.06-.06v-.36h-.06c0-.06-.06-.06-.06-.12v-.06c.06-.06 0-.12 0-.18s0-.06.06-.06v-.24c0-.06.06-.06.06-.06 0-.06.06-.06.06-.06 0-.06 0-.06.06-.12V12c0-.06.06-.12.06-.12h.12c0-.06-.06-.06-.06-.06h-.06v-.3s.06 0 .06.06h.06c0 .06-.06 0-.06.06v.12h-.06l.06-.06v-.06h.06v-.24h-.06v-.12s-.06 0-.06-.06v-.06s0-.06.06-.06v-.06.12h-.06c.06 0 .06 0 .06-.06 0 0-.06 0-.06.06h-.06s-.06 0-.06-.06h.06-.06.06v-.06h.06-.06v-.06h.06l.06-.06v.06-.12l-.06.06.06-.06v-.12h.06s-.06 0-.06-.06c0 0 .06 0 .06-.06l-.06.06v.06s0-.06-.06-.06v-.18l.06-.06.06-.06h-.06c0 .06 0 .06-.06.06v-.06c0-.06.06-.06.06-.12 0 0 0 .06-.06.06v.06s0 .06-.06.06v-.06h.12v-.06h-.12s0 .06-.06.06c-.06-.06.06-.06.06-.12h-.06s-.06-.06 0-.06v-.18s0-.06-.06-.06v-.24.3-.3.06-.18.06l-.06-.06v-.18h-.12v-.06h-.06.06-.06s0-.06-.06-.06h-.12v-.06.06h-.06v-.06h-.18s-.06 0-.06-.06 0 0 .06 0c0 0-.06 0-.06-.06h-.12v-.06c-.06 0 0 .06-.06.06v-.06.06h-.06s0 .06.06 0h-.06.06c0 .06 0 .06-.06.06h-.06v.06h-.06v-.06c0 .06 0 .06-.06.06v-.06h-.06v.06c-.06 0-.06.06-.06.06v-.06.06h-.12.06l.06-.06h-.06v-.06c0-.06.06-.06.06-.12.06 0 .06-.06.06-.06h.12v.06V9l.06-.06h-.12v-.06l-.06.06s-.06 0-.06.06c-.06 0-.06 0-.06.06l-.06.06c0 .06-.06.06-.06 0h-.06v.06h-.06s0 .06-.06 0h-.06l-.06.06v.06h.06s0 .06.06.06v.06h-.12v.06h-.12l-.06.06s-.06 0-.06.06v.06h-.24V9.6v.06h-.12V9.6h-.12s0 .06-.06.06c0 0 0-.06.06-.06h-.06c0 .06 0 .06-.06.06h-.06V9.6s0 .06-.06.06v.06-.06h.12l.06-.06.06-.06h.06v-.12h.18s.06 0 .06-.06c0 0 0 .06 0 0S21 9.3 21 9.3h.06v-.06s0-.06.06-.06V9c0-.06.06-.06.12-.06v-.06s-.06 0-.06.06h-.06l-.06-.06v-.06c-.06 0-.06 0-.06.06V9v-.18h-.06c-.06 0-.06 0-.12.06h.06v-.12h.06v-.12s.06 0 .06-.06c0 0 .06 0 .06-.06H21s-.06 0-.06.06v.06s0 .06-.06.06h-.06s-.06 0-.06-.06v-.18h.12v.06-.12l.06-.06v.06h-.18v-.18l.06-.06V8.1s.06 0 .06-.06c0 0 0-.06.06-.06 0 0 0-.06.06-.06l.06.06h.06v.06l.06-.06h.24s0-.06.06-.06v-.06l.06.06h.06s.06 0 .06-.06l.06-.06v-.12l.06-.06h-.06s.06 0 .06-.06V7.5h-.18s0 .06-.06.06V7.5v.06s0-.06-.06-.06c0 0-.06 0-.06.06l-.06-.06c-.06 0-.06-.06-.06-.06 0-.06 0-.06.06-.12 0 0-.06-.06 0-.06h.06s.06 0 .06.06h.06c0-.06-.06-.06-.06-.06l-.06-.06v-.06c.06 0 .06 0 .06-.06h.24s-.06 0 0-.06h.18s.06 0 .06.06c0 0 0 .06-.06.06v.06h.06s0 .06.06.06h.06c0-.06 0 0 .06-.06v.06h.06V7.2h-.06v-.12.12h.06c0 .06.06.06.06.06V7.2s-.06-.06-.06 0h-.06c-.06 0 0-.06 0-.12 0 0-.06 0-.06-.06-.06 0-.06-.06-.06-.06 0-.06.06-.06.06-.12 0-.12-.06-.18-.06-.24v-.12l.06-.06h.36c.06 0 .06-.06.12-.06h.12s.06-.06.12-.06h.12c.06 0 .06 0 .06.06h.12c0 .06-.06.06-.06.12 0-.06 0-.06.06-.12l.06-.06h.12c.06 0 .06-.06.12-.06h.06v.06h.06v.06h-.12v.06h.06l.06-.06v.06h.12v.06s-.06 0-.06.06c0 0 .06 0 .06.06h-.06.06v.06l.06-.06h.12l.06.06c0 .06-.06.06-.06.06.06 0 .06-.06.06-.06s0 .06.06.06.06 0 .06.06h.24v.12h.06c.06 0 .06.06.12.06v.12c0 .06.06.06.06.12v.12s0 .06.06 0v.12h.06v-.12s.06 0 .06-.06c.06 0 .06-.06.12 0h.3v.06h-.18v.06h-.06l-.06.06v.06h.18v.06c.06 0 .06 0 .06-.06h.18l.06-.06h.06v-.06l.06-.06v.3c0 .06 0 .12.06.12 0 0-.06 0-.06-.06h.12v-.06h.06s0-.06.06 0v.12s.06 0 .06.06h.06s0-.06.06-.06h.06s.06 0 .06.06v.12s.06.06.12.06.06.06.06.06v.06s0 .06.06.06.06 0 .06.06v.18h-.12v.12h.24c.06 0 .06 0 .12-.06v.24-.06s0-.06.06-.06v.06-.06c-.06-.06 0-.12 0-.18h.12v-.06h.06-.06v-.06h-.06v.06h-.06v-.06h.24l.06.06v.12h.12c0 .06.06.06.06.06h.12l.06.06h.06s-.06-.06 0-.06v.06s0 .06.06.06c0 0 0-.06-.06-.06v-.24.06s.06 0 .06-.06v.06h.18s-.06 0 0 .06v.18h-.06v.06-.12h.06v-.12s0-.06.06-.06h.06v-.12h.12v.06l.06-.06h-.12v-.12l.06-.06h.06v-.12.06s0-.06.06-.06c0 0-.06 0-.06-.06h.06s.06 0 0-.06h.06v.06h.06v.42l-.06.06s-.06 0-.06.06h.06v.24s0-.06.06-.06v-.12V9v-.12s-.06 0 0-.06v-.18l.06.06h.06s0 .06.06.06h.06s0 .06-.06.06h-.12v.12h-.18v-.18h-.06v.12s0-.06-.06-.06v.06h-.06v-.06h-.06v.06h.06c-.06 0-.06.06-.06.12h-.12s-.06 0-.06-.06v-.06h-.06.12v.06l.06.06h.06s.06 0 .06.06l-.06.06s0 .06-.06.06l-.06.06v-.06.06-.06.06l-.06-.06-.06-.06c-.06 0-.06 0-.06-.06 0 0-.06 0-.06-.06v.06l.06.06v.06s-.06 0-.06.06c0 0-.06 0-.06-.06v-.12.24h-.06v.06H27c-.06 0 0 0-.06.06h-.06v.12s0 .06-.06.12v.18c0 .06 0 .06-.06.06 0 0 .06-.06.06-.12h.06c0 .06.06.12 0 .18v.06l-.06.06h-.06.3l.06.06s0 .06.06.06l.06.06v.06c.06.06.12.06.12.12v.06h.18v.06s0 .06-.06.12v.24s.06 0 0 .06v.06h.06v.18h.12l.06-.06v.06h.06v-.48h.06s.06 0 .12-.06c0 0 .06 0 .06-.06l.06-.06v-.36c0-.06 0-.06-.06-.06h-.06v-.06l.06-.06v-.24c0-.06 0-.06.06-.06v-.18h.12s.06 0 .06.06h.12l.06.06h.06v.06s.06 0 0 .06v.12s0 .06.06.06h.06c.06 0 0 .06 0 .06-.06 0-.06 0-.06.06v.12h-.06c0 .06 0 .06-.06.12v.24h.06s0-.06.06-.06v-.42.12c0 .06 0 0-.06.06h.06v.12h-.06v.06h.06v.06s-.06 0-.06.06h.06s.06 0 0 0h.06v.06h-.06.06v.12h.06v.18s0 .06-.06.06h.06c-.6.18-.6.12-.54.18-.06-.06-.06-.06 0 0-.06 0-.06 0 0 0-.06 0-.06 0 0 0-.06 0-.06 0 0 0-.06 0-.06 0 0 0zm-.54 1.14s0-.06 0 0c.06 0 .06 0 0 0 .06 0 .06 0 0 0 .06 0 .06.06 0 0 .06 0 .06 0 0 0 .06 0 .06.06.12.06h.06v.06c-.06 0-.06 0-.06-.06-.06 0-.06 0-.12-.06.06 0 .06.06 0 0zm.18-.36c-.06 0-.06 0 0 0-.06-.06-.12-.06-.12-.12h.12v.12c.06 0 .06-.06 0 0 .06 0 .06 0 0 0 .06.06.06.06 0 0 0 0 0 .06 0 0zm.06.42c0-.06.06-.06.06-.12 0 .12 0 .12-.06.12.06 0 .06 0 0 0l.12.12c-.12-.06-.12-.06-.12-.12 0 .06 0 .06 0 0zm-.24 4.38s-.06.06-.06 0c0 .06 0 0 .06 0l-.06-.06.06.06c0-.06 0-.06 0 0 0 0 0-.06 0 0zm-.06-.72s0-.06 0 0c0-.06 0-.06 0 0zm0-.06c0-.06 0-.06 0 0 0-.06 0 0 0 0zm.06.24c-.06 0-.06 0 0 0 0-.06 0 0 0 0zm-.06-.06c.06-.06 0 0 0 0zm.06.18c0 .06 0 .06 0 0-.06.06 0 .06 0 0zm0 0c0-.06-.06-.06 0 0 0-.06 0-.06 0 0 0-.06 0-.06 0 0zm-.12-.48c-.06.06-.06.06 0 0-.06.06-.06.06 0 0-.06 0-.06.06 0 0-.06 0-.06 0 0 0zm-.18.84c.06 0 .06 0 0 0zm-.12-.78h-.12v-.06c.06 0 .06 0 .12.06zM27 12.96s0 .06 0 0zm-.06 2.88h-.12s0 .06-.06.06v-.06h-.18l-.06-.06v-.06h.18l-.06-.06v-.06h-.06.3c0 .06.06.06.06.06h-.06l.06.06h.12c-.12.12-.06.12-.12.12 0 0 .06 0 0 0zm-.06.72s-.06 0 0 0zm-.12 0s0-.06 0 0c0-.06.06-.06 0 0zm-.54-.84c-.06 0-.06 0 0 0h-.12c0-.06 0-.06.12 0l-.06-.06h-.06v-.12h-.06c-.06 0-.06 0-.06-.06h-.24l-.06.06h-.06v.06h-.06s-.06.06-.06 0h.06v-.06l.06-.06h.18l.06.06h.06s.06 0 .06.06h.06s.06 0 .06.06v.06h.12c-.06.06-.06.06 0 0v.12h.12v.06h-.12c.06-.18 0-.24 0-.18 0 0 0-.06 0 0zm0 .18s-.06 0 0 0c-.06 0-.06 0 0 0h-.18v-.06h-.06.18c0 .06 0 .06.06.06zm-.48-.12c-.06 0 0 0 0 0zm-.18-.3c.06 0 .06 0 0 0 .06 0 0 .06 0 0zm.6-.3s0 .06 0 0c-.06.06-.06.06 0 0-.06 0-.06 0 0 0zm-.06-.06c0-.06 0-.06 0 0zm0-.24c-.06.06-.06 0-.06 0h.06c.06 0 0 0 0 0s.06 0 0 0zm.06 0s0-.06 0 0c0-.06 0-.06 0 0 .06 0 0-.06 0 0 .06 0 .06 0 0 0l.06.06V15c0-.06-.06-.06-.06-.12 0 0 .06 0 0 0zm0 .18c.06 0 .06 0 0 0zm.06 0s.06 0 0 0c.06 0 .06 0 0 0 .06.06.06.06 0 0 .06.06.06.06 0 0 .06 0 .06 0 0 0zm.12.18c0 .06 0 .06 0 0 0 .06 0 .06 0 0l.06.06c-.06.06-.06 0-.06-.06 0 .06 0 .06 0 0zm0-.06c0-.06 0-.06 0 0 0 0 0 .06 0 0zm.24.24s-.06 0 0 0c-.06 0-.06-.06 0 0 0 0 0-.06 0 0zm0 .24s-.06 0 0 0c-.06 0 0 0 0 0zm-.06-.06s-.06 0 0 0c-.06-.06 0-.06 0 0 0-.06 0-.06 0 0 0-.06 0-.06 0 0zm-.06-.24s0 .06 0 0c-.06.06 0 .06 0 0zm-.06-.12c0-.06 0-.06 0 0 .06-.06.06-.06 0 0 0 0 .06-.06 0 0zm.12.54c0 .06 0 0 0 0zm.36-2.76s-.06 0 0 0h-.12c0-.06.06 0 .06-.06l.06.06c-.06 0-.06 0 0 0-.06 0-.06 0 0 0-.06 0 0 0 0 0s-.06 0 0 0zm-2.64 1.62s0 .06 0 0c0 .06 0 0 0 0zm4.14 3.24c-.06 0 0 0 0 0zM26.58 24c0 .06 0 .06 0 0 0 .06 0 .06 0 0-.06 0-.06.06 0 0-.06 0-.06 0 0 0 0 .06 0 0 0 0-.06 0 0 0 0 0zm-.36-.96s.06 0 0 0c.06 0 .06 0 0 0 .06 0 .06 0 0 0 .06 0 .06 0 0 0 0 0 .06 0 0 0zm.12-.3c0-.06 0-.06 0 0l.06-.06v.06h-.06c0 .06 0 0 0 0 0 .06 0 .06.06.06v.12h-.06v-.18zm.06.24c.06 0 .06 0 0 0 .06 0 .06 0 0 0 0 .06.06 0 0 0 0 .06 0 .06 0 0 0 0 0 .06 0 0zm-.06.12c0-.06 0-.06 0 0 0 0 0-.06 0 0zm0 .06s-.06 0 0 0zm0-.24s.06 0 0 0c.06 0 .06 0 0 0 0 0 .06 0 0 0zm0 .06c-.06 0 0 0 0 0zm0 0s0 .06 0 0c0 .06-.06.06 0 0-.06 0 0 0 0 0zM21.78 10.5c.06.06.06.06 0 0 0 .06 0 .06 0 0 0 .06 0 .06 0 0 0 .06 0 .06 0 0zm0-.06s-.06 0 0 0zm0 0c0-.06 0-.06 0 0 .06-.06 0 0 0 0zm.06.12c-.06.06-.06 0 0 0zm-.06.18c.06 0 .06 0 0 0 .06 0 0 0 0 0zm0-.12c0-.06 0-.06 0 0 0-.06 0 0 0 0zm0 .36c0 .06.06.06.12.06h.12v.06c0 .06.06.06 0 .12l.06.06v.18s-.06 0-.06-.06c0 0-.06 0-.06-.06v-.06h-.06v-.24c-.18 0-.18 0-.12-.06 0 0-.06 0 0 0-.06 0 0 0 0 0h-.06c0-.06 0-.06.06 0-.06-.06-.06-.06 0 0-.06-.06-.06-.06 0 0 0-.06-.06-.06 0 0zm.12 0s0 .06 0 0c0 .06 0 .06 0 0 0 0 0 .06 0 0zm.06.12c.06 0 .06 0 0 0zm.06.06s.06.06 0 0c0 .06 0 .06 0 0zm-.3-.78s.06 0 .06.06c-.06 0-.06-.06-.06-.06zm0-.06c-.06 0-.06 0 0 0-.06 0-.06-.06 0 0 0-.06 0-.06 0 0zm-.06-.18c0-.06 0-.06 0 0 0-.06 0-.06 0 0zm.06.06c-.06 0-.06 0 0 0zm0-.18c-.06 0 0 0 0 0 0-.06 0-.06 0 0 0-.06 0-.06.06-.06 0 0-.06 0-.06.06.06 0 .06 0 0 0 0 .06 0 0 0 0s-.06 0 0 0zm0 .06c-.06 0-.06 0 0 0-.06 0-.06 0 0 0-.06 0-.06 0 0 0-.06 0-.06 0 0 0zm0 .3c0 .06 0 .06 0 0 0 .06 0 .06 0 0-.06 0 0 0 0 0-.06 0-.06 0 0 0zm.42 1.14s-.06-.06 0 0c.06-.06 0-.06 0 0 .06 0 0-.06 0 0zm-.3-.78c0-.06 0-.06 0 0l.06-.06-.06.06s0-.06 0 0zm-.12-.9c-.06 0 0 0 0 0zM20.1 8.52c.06 0 0 0 0 0zm-1.02.18c0-.06 0-.06 0 0 .06-.06.06-.06 0 0 0 0 0-.06 0 0zm.42-1.2c.06 0 .06 0 0 0 .06 0 .06 0 0 0zm6.6-.3c-.06-.06-.06-.06 0 0 0-.06 0-.06 0 0 0 0 0-.06 0 0zm0 0c-.06 0-.06 0 0 0-.06 0 0 0 0 0zm0 .18s.06-.06 0 0v-.24s0 .06.06.06v-.06h.18s0 .06.06.06l-.06.06h-.06.06v.06h-.06s0 .06-.06.06c-.06.06-.06.06-.12 0 .06.06.06.06 0 0 .06.06.06.06 0 0 .06.06.06.06 0 0 0 0 0 .06 0 0 .06 0 0 0 0 0s.06 0 0 0zm0-.6c.06 0 .06 0 0 0 .06 0 .06 0 0 0 0 0 .06 0 0 0zm0 .12h-.12.12zm.18-.3c0-.06 0-.06 0 0 0-.06 0-.06 0 0 0-.06 0-.06 0 0zm0 0c0 .06 0 0 0 0zm0 .12c0-.06 0-.06 0 0 0-.06 0-.06 0 0 0-.06.06-.06 0 0 0-.06 0-.06 0 0 0-.06 0-.06 0 0 .06-.06.06-.06 0 0 0-.06.06-.06 0 0 0-.06 0-.06.06-.06v.12s-.06 0-.06-.06h-.06.06c0 .06 0 .06 0 0 0 .06 0 .06 0 0 0 .06 0 .06 0 0 0 0 0 .06 0 0 0 0-.06 0 0 0zm.12-.12c0 .06 0 0 0 0zm-.12.06c-.06 0-.06-.06 0 0-.06-.06 0-.06 0 0 0-.06 0-.06 0 0zm0 1.44c0 .06 0 0 0 0s-.06 0 0 0c-.06 0-.06 0 0 0zm.18.36c0 .06 0 .06 0 0zm0 0c0-.06 0-.06 0 0zm.06-.42c.06 0 .06 0 0 0 .06 0 .06 0 0 0 .06 0 .06 0 0 0zm.3.12s0 .06 0 0c0 .06.06.06 0 0 0 .06 0 .06 0 0zm.12 1.32s0 .06 0 0c0 .06 0 .06 0 0-.06.06-.06.06 0 0h-.06.06s-.06 0 0 0zm-.24.3s0-.06 0 0c0-.06 0-.06-.06-.06v-.06s.06 0 .06-.06v.06c.06.06.06.06 0 .12 0 0 .06-.06 0 0zm-.12.96c-.06 0-.06 0 0 0-.06 0-.06 0 0 0h-.06.06c-.06-.06-.06 0 0 0-.06-.06 0-.06 0 0 0-.06 0-.12 0 0 .06-.06 0-.06 0 0 0 0 0-.06 0 0zm-.12.6c0 .06 0 .06 0 0-.06 0 0 0 0 0zm-.06-.18c.06 0 .06 0 0 0zm.06-1.56c-.06 0-.06 0 0 0 0-.06 0-.06 0 0 .06-.06.06-.12.06-.12h.06v.12h-.12zm.18 1.08s0 .06 0 0c-.06.06 0 .06 0 0zm-.06-1.32c0-.06 0-.06-.06-.06v.12-.12l.06.06c0-.12 0-.18.06-.18v-.12s0-.06.06-.06h.06v.18-.06c0 .06 0 .06.06.06v.24h-.06c-.12 0-.12-.06-.18-.06.06 0 .06 0 0 0 0 0 .06 0 0 0zm-.24 1.86h-.06s0-.06.06 0c0-.06 0-.06 0 0zm.18-2.34c0 .06 0 .06 0 0-.06.06-.06 0 0 0zm.12.06c-.06 0-.06 0 0 0-.06 0-.06 0 0 0-.06-.06-.06-.06-.06-.12 0 .06 0 .06.06.12 0 0-.06 0 0 0zm.36.48c0 .06 0 .06 0 0l.06.06c-.06 0-.12 0-.06-.06 0 0-.06 0 0 0zm.12.24c.06 0 .06 0 0 0 .06 0 .06 0 0 0 0 0 .06.06 0 0zm.3.06c.06 0 .06 0 .06.06 0 0-.06 0-.06-.06zm.12.48s0-.06 0 0c0-.06.06-.06 0 0l.06-.06-.06.06s.06 0 0 0zm.3-.18c0 .06 0 .06 0 0 0 0-.06.06 0 0-.06 0-.06 0 0 0 0 0-.06 0 0 0zm-.06-.06c.06 0 0 0 0 0 .06.06.06.06 0 0 0 .06 0 .06 0 0zm.12-.24c0-.06 0-.06 0 0 0-.06 0 0 0 0zm.12-.6c.06 0 0 0 0 0zm-.54-1.08c.06 0 .06.06 0 0 .06.06.06.06 0 0 0 .06 0 0 0 0zm-.06-.18c0 .06 0 .06 0 0l-.06.06s-.06 0 0 .06c0 0-.06 0 0 0 0 0 .06-.06 0-.06l.06-.06v.24-.06h.06s0 .06-.06.06v.06s0-.06.06-.06c0 0-.06.06 0 .06v-.12.12h-.06s0-.06.06-.06v.12s0-.06.06-.06v.06c.06 0 .06-.06.06 0v.18h-.06s.06 0 .06-.06h.06s-.06 0-.06.06h.06v-.06.12s.06 0 .06.06v.06h-.06.06-.06v.06s-.06 0-.06-.06l.06.06s.06 0 .06.06h-.06v.18s0-.06.06-.06v.06s0-.06.06-.06v.06h-.06.12V9s0-.06.06-.06V9v-.06s.06.06 0 .06h-.06v-.06V9c0 .06.06 0 .06.06h-.06v.12-.06.06-.24l-.06.06h-.06l.06-.06v-.06V9h-.06v-.06h-.12s.06 0 .06.06v.36c.06 0 0 .06 0 .06v.12s.06.06 0 .12l-.06-.06v.18-.18s0-.06-.06-.06v.06s0-.06-.06-.06v-.06l-.06-.06v-.06.06s0 .06.06.06v.06s.06.06 0 .06v.12h-.12v-.06l-.06-.06v-.12h.06V9.3l-.06.06V9.3v.06-.12.06h-.18v-.06s0-.06-.06-.06v-.06h.06v-.06s0 .06.06.06v.06h.06s0-.06.06 0c0 0 0-.06.06-.06s0-.06-.06-.06l.06-.06v-.12h.06v-.24h-.06v-.06.06l-.06-.06v-.06.06h-.06.06v-.06s-.06 0-.06-.06v-.12s-.06 0-.06-.06v-.12.24h-.12s0-.06-.06-.06v.06-.06s0-.06-.06-.06v-.06h-.06l.06.06h-.18v-.06h-.18v-.06.06h-.06v-.18h.06s0 .06.06.06h.06s-.06 0-.06-.06v-.36h.24-.06c-.06 0-.06 0-.06.06h-.06v.06c-.06 0 0 .06-.06.06v.3-.12s.06 0 .06-.06v-.06h-.06V7.8h.06l.06.06V7.8v.06h.12v.24s-.06 0 0 .06c0 0 0-.06.06 0 0 0 0 .06-.06.06v.06s.06 0 .06-.06v-.06.12s0 .06-.06.06v-.12.06s0-.06 0 0v-.06h.06c.42-.42.42-.42.48-.36-.06-.06-.06-.06 0 0-.06-.06-.06-.06 0 0-.06-.06-.06-.06 0 0-.06-.06-.06-.06 0 0zm.18.36c-.06 0-.06 0 0 0zm-.36.42s.06 0 0 0l.06.06v.12h-.12c-.06-.12 0-.18.06-.18 0 0-.06 0 0 0zm-.06-.18c0-.06 0-.06 0 0 0-.06.06-.06 0 0 .06 0 .06 0 0 0zm.12.24c.06 0 .06 0 0 0 .06 0 .06 0 0 0l.06.06-.06-.06s0 .06 0 0zm0-.12s.06 0 0 0c0 .06 0 .06 0 0zm0 .06c0-.06 0-.06 0 0 0-.06 0 0 0 0zm-.18-.3c.06 0 0 0 0 0zm0 .06l-.06.06H27l.12-.06s-.06 0 0 0zM27 8.28c0-.06 0 0 0 0 0-.06 0-.06 0 0 0 0 0-.06 0 0 .06 0 .06 0 0 0 0 0 .06 0 0 0zm-.42-1.2c0 .06 0 .06 0 0 .06.06 0 .06 0 0 0 .06 0 .06 0 0zm.72-.06s0 .06 0 0c0 .06 0 .06 0 0 0 0-.06.06 0 0 0 0-.06 0 0 0zm0 .48c0 .06 0 .06 0 0 0 .06 0 .06 0 0 0 .06.06.06.06.06v.18h-.18v-.12h-.06V7.5s0 .06.06.06c0-.06.06-.06.12-.06-.06 0-.06 0 0 0zm-.06-.3c0 .06 0 .06 0 0 0 .06 0 .06 0 0-.06.06-.06.06 0 0-.06.06-.06.06 0 0-.06 0-.06 0 0 0-.06 0-.06 0 0 0zm-.54-.78c0-.06 0-.06 0 0 .06-.06.06-.06 0 0 .06 0 .06 0 0 0 .06 0 .06.06.06.06l-.06-.06s.06.06 0 0zm0 .12s.06 0 0 0c.06 0 .06 0 0 0 0 .06.06.06 0 0 0 .06 0 .06 0 0 0 0 0 .06 0 0zm-.12-.36s0-.06 0 0c.06-.06 0-.06 0 0zm0 .12s.06 0 0 0c.06 0 .06 0 0 0 .06 0 .06 0 0 0 .06 0 .06 0 0 0 0 0 0 .06 0 0-.06 0 0 0 0 0-.06 0-.06 0 0 0h-.12v-.06l.12.06c0-.06-.06-.06 0 0 0-.06 0-.06 0 0 0-.06 0-.06 0 0 0-.06 0-.06 0 0 0-.06 0-.06 0 0zm-.18-.36c.06 0 .06-.06 0 0 .06-.06.06-.06 0 0 .06-.06.06 0 0 0h.06v.12s0 .06 0 0v.12C26.4 6 26.4 6 26.4 5.94zm0 .36c.06 0 .06.06 0 0 .06.06.06.06 0 0l.06.06v.18c0 .06-.06.06-.06.06v-.06.06h.06s0 .06 0 0v.18s0 .06.06 0v.06h-.06v.36-.06.12h.18v.12c.06 0 0 .06.06.06v.06h-.12v-.06s0-.06 0 0v-.12.06h-.06s0 .06 0 0v-.12h-.12v-.12s-.06 0-.06-.06v-.06l-.06-.06V6.9s0-.06 0 0v-.06c.06 0 .06 0 .06-.06V6.6h.06v-.06c0-.18-.06-.18 0-.24l-.06.06c.06 0 .06-.06.06-.06s0 .06 0 0zm-.36-.6c.06 0 .06 0 0 0 .06 0 .06.06 0 0 .06.06.06.06 0 0l.06.06V5.7c0-.06 0-.06-.06 0 0-.06.06-.06.06-.06v-.06.06h.06s0 .06 0 0v.18h.06s0 .06 0 0V6h-.06v.12-.18s0-.06-.06 0h-.06V5.7c0 .06 0 .06 0 0zm.12.3c-.06-.06 0-.06 0 0 0-.06 0-.06 0 0 0-.06 0-.06 0 0 0-.06 0-.06 0 0 .06 0 .06 0 0 0 .06 0 .06.06 0 0zm0 .24s-.06 0 0 0h-.06.06zm0-.36c-.06 0-.06 0 0 0zm0 .36c.06 0 .06 0 0 0 .06 0 .06 0 0 0 .06 0 .06.06 0 0zm-.18.18s0-.06 0 0c.06-.06 0-.06 0 0 0-.06 0-.06 0 0V6.3v.12c0 .06 0 .06 0 0v-.18.06h.06v.18l-.06.06v.12-.12h.12c0-.06-.06 0-.06-.06l-.06-.06c.06.06.06.06 0 0 0 .06 0 .06 0 0h-.06.06c0-.06 0-.06 0 0zm-.06-.06s0 .06 0 0c-.06 0 0 0 0 0-.06 0-.06 0 0 0 0 0-.06 0 0 0zm-.06-.06h.12c-.06.06-.06.06-.12 0 0 .06.06 0 0 0zm.12-.24c-.06 0 0 0 0 0zm-.06-.12v-.12s0 .06 0 0c.06.06.06.12 0 .12.06 0 .06 0 0 0 .06 0 .06 0 0 0 .06.06.06 0 0 0 .06.06.06.06 0 0l.06.06c-.06 0-.06 0-.06-.06 0 .06 0 .06 0 0zm-.06.24c0-.06.06-.06 0 0 .06-.06.06 0 0 0 .06 0 .06 0 0 0 .06 0 .06 0 0 0l.06.06-.06-.06c.06 0 .06.06 0 0 .06 0 0 0 0 0s.06 0 0 0zm.06.06c.06 0 .06.06.06 0v.06l-.06-.06c0 .06 0 .06 0 0-.06.06-.06.06 0 0-.06 0-.06 0 0 0-.06 0-.06 0 0 0zm-.06.72c0-.06 0-.06 0 0 0-.06 0-.06 0 0 0-.06.06-.06.06 0h.06v.06h.12v.12h-.12.06v.18h.06v.12h-.06v.06s0 .06 0 0h-.12v-.06.12-.24h-.12V7.2s.06 0 .06-.06h.06v.06h.06v-.12h.06c-.18-.06-.18-.06-.18-.12-.06.06-.06.06 0 0-.06 0-.06 0 0 0-.06 0-.06-.06 0 0 0 0 0-.06 0 0zm-.18-1.44c.06 0 .06 0 0 0h.12v.18h-.06s0-.06 0 0c-.06-.12-.06-.12-.06-.18 0 .06 0 .06 0 0-.06 0-.06.06 0 0-.06 0-.06 0 0 0h-.06v-.06l.06.06c0-.06 0-.06 0 0zM2.82 7.14s0 .06 0 0c0 .06 0 0 0 0zM1.5 9.54c0 .06 0 .06 0 0 0 .06.06 0 0 0zm-.3.42s.06 0 0 0zM26.64 6.6c0 .06 0 0 0 0zM3 7.02c0 .06 0 .06 0 0 0 .06 0 .06 0 0zm23.58 3.66c0 .06-.06.06 0 0 0 .06 0 0 0 0zm-.6-4.26c.06 0 .06 0 0 0zM2.16 10.68c-.06 0-.06 0 0 0zm24.24 13.2c.06 0 .06 0 0 0 .06 0 0-.06 0 0l.06-.06s-.06 0-.06.06c.06-.06 0-.06 0 0 0-.06.06-.06 0 0 0-.06 0-.06 0 0 0-.06 0-.06 0 0 0-.06 0-.06 0 0zm.66-11.64c-.06 0-.06 0 0 0-.06 0 0 0 0 0zm-.6 11.7s-.06 0 0 0c-.06 0-.06 0 0 0-.06 0-.06 0 0 0-.06 0-.06 0 0 0-.06 0-.06 0 0 0l-.06.06.06-.06c-.06.06-.06.06 0 0 .06 0 0 0 0 0 .06 0 .06 0 0 0 0 0 .06-.06 0 0zm.24.06c0 .06 0 .06 0 0 0 .06 0 0 0 0zm5.28-16.74l4.8 7.74L39 11.4 31.98 0v7.26zm0 22.74l7.08-11.4v-7.2l-7.08 11.4V30zM39.3 7.26L44.1 15l2.28-3.6L39.3 0v7.26zm0 22.74l7.08-11.4v-7.2L39.3 22.8V30z"/></defs></svg>