<svg width="74" height="30" viewBox="0 0 74 30" xmlns="http://www.w3.org/2000/svg" xmlns:xlink="http://www.w3.org/1999/xlink"><title>resi_logo_outlines</title><desc>Created using Figma</desc><use xlink:href="#a" fill="#888"/><defs><path id="a" d="M0 .032L.136.003c.058-.007.115 0 .173 0h17.775c.114 0 .236-.014.351.05.058.036.158 0 .237-.007.15-.014.294-.036.445-.036.258-.007.517-.007.775-.007h39.053c.595-.014 1.19.065 1.779.13.23.028.452.057.681.093.187.028.366.079.553.122.136.028.266.057.402.086.222.057.438.107.66.172.251.079.495.158.74.251.236.086.473.187.71.287.23.093.459.194.681.302.36.165.71.344 1.048.56.287.186.596.35.876.545.617.423 1.198.89 1.743 1.406.503.474.976.983 1.414 1.522a14.166 14.166 0 0 1 2.06 3.459c.157.387.315.767.43 1.17l.215.731c.065.244.137.495.194.74.043.179.065.372.093.552l.108.674c.007.022.007.043.007.065.029.43.08.854.086 1.284.015.56.015 1.127 0 1.687-.014.43-.05.86-.093 1.284-.029.302-.079.603-.13.897-.05.273-.121.546-.186.811-.05.223-.1.445-.165.66-.072.252-.15.503-.244.747-.15.394-.301.796-.473 1.184-.266.595-.567 1.17-.926 1.708-.222.337-.445.681-.689 1.011a12.49 12.49 0 0 1-1.019 1.206c-.301.316-.61.631-.94.918-.222.194-.445.388-.675.575a13.112 13.112 0 0 1-2.418 1.55c-.28.143-.574.28-.861.409-.208.093-.43.172-.646.25a19.75 19.75 0 0 1-.933.324c-.344.1-.689.208-1.04.265-.165.029-.33.08-.495.115a4.624 4.624 0 0 1-.438.072l-.818.086c-1.45.143-2.9.064-4.349.072-12.005.007-24.018.007-36.024.007-.244 0-.495.007-.739-.007a27.87 27.87 0 0 1-1.112-.08 10.07 10.07 0 0 1-.933-.136 10.23 10.23 0 0 1-.81-.186 19.25 19.25 0 0 1-.862-.23c-.316-.1-.639-.208-.947-.323a9.703 9.703 0 0 1-.747-.315c-.373-.18-.746-.36-1.112-.553a12.562 12.562 0 0 1-1.815-1.191 14.106 14.106 0 0 1-1.687-1.521 15.076 15.076 0 0 1-1.155-1.378c-.194-.252-.359-.517-.531-.79a16.2 16.2 0 0 1-.574-.961 21 21 0 0 1-.553-1.127c-.15-.344-.287-.696-.416-1.055-.093-.258-.158-.53-.23-.796a11.004 11.004 0 0 1-.179-.682c-.05-.201-.086-.402-.122-.603-.043-.215-.079-.43-.115-.639 0-.014-.007-.021-.007-.035-.029-.323-.072-.646-.086-.976a67.107 67.107 0 0 1-.036-2.081c0-.89.022-1.78.022-2.67.007-1.507 0-3.021 0-4.528 0-.301-.058-.588-.108-.883-.05-.301-.144-.595-.237-.89a6.726 6.726 0 0 0-.316-.753 8.762 8.762 0 0 0-.99-1.622A9.894 9.894 0 0 0 2.39 1.797 11.257 11.257 0 0 0 .416.283 3.406 3.406 0 0 1 0 .032zm24.284 10.032c-.115.007-.23 0-.33.029-.237.05-.488.021-.725.107-.201.072-.424.094-.624.173-.209.071-.402.179-.603.272a4.225 4.225 0 0 0-.969.646A4.932 4.932 0 0 0 20 12.504a4.024 4.024 0 0 0-.452.997c-.058.187-.087.38-.144.56-.093.273-.1.553-.115.832-.029.517.05 1.027.187 1.529.107.409.265.79.473 1.155a4.944 4.944 0 0 0 1.328 1.507c.337.252.696.46 1.084.625.358.15.732.265 1.112.323.316.043.639.057.961.071.151.007.309-.028.46-.043a4.294 4.294 0 0 0 1.27-.323c.466-.186.89-.445 1.277-.76a4.945 4.945 0 0 0 1.235-1.493c.15-.28.28-.567.366-.875.1-.323.179-.646.2-.984.008-.157.043-.315.043-.48 0-.165-.035-.33-.043-.495a4.097 4.097 0 0 0-.2-1.055 5.548 5.548 0 0 0-.446-1.012 4.873 4.873 0 0 0-.961-1.199 5.051 5.051 0 0 0-2.54-1.227c-.28-.064-.553-.072-.811-.093zM60.25 15.08c.022-2.82-2.267-5.016-4.994-5.009a4.981 4.981 0 0 0-4.988 5.01 4.972 4.972 0 0 0 5.002 4.994 4.959 4.959 0 0 0 4.98-4.995zm-20.997 7.98c1.938.05 3.516-1.572 3.51-3.48 0-1.93-1.58-3.48-3.467-3.495-1.952-.022-3.53 1.578-3.538 3.48-.007 1.887 1.579 3.538 3.495 3.495z"/></defs></svg>