<svg width="73" height="30" viewBox="0 0 73 30" xmlns="http://www.w3.org/2000/svg" xmlns:xlink="http://www.w3.org/1999/xlink"><title>SRF</title><desc>Created using Figma</desc><use xlink:href="#a" transform="translate(53.01 .296)" fill="#BDBDBD"/><use xlink:href="#b" transform="translate(25.256 .296)" fill="#BDBDBD"/><use xlink:href="#c" fill="#BDBDBD"/><defs><path id="a" d="M6.606 11.911V5.69H18.59c.916 0 1.197-.325 1.197-1.242V1.241C19.787.325 19.507 0 18.59 0H1.197C.281 0 0 .325 0 1.241v26.956c0 .916.28 1.241 1.197 1.241h4.212c.916 0 1.197-.325 1.197-1.241V17.571h10.891c.917 0 1.198-.325 1.198-1.241v-3.207c0-.916-.281-1.241-1.198-1.241H6.606v.03z"/><path id="b" d="M10.714 14.246l-.458 1.921c-.133.547-.177.828-.177 1.005 0 .459.133.828.458 1.375l5.438 9.798c.458.783.828 1.093 1.922 1.093h4.995c.635 0 1.418-.413.694-1.551l-6.68-11.084c2.247-1.419 4.759-3.429 4.759-7.877C21.665 3.206 18.458 0 11.409 0H1.197C.281 0 0 .325 0 1.241v26.956c0 .916.28 1.241 1.197 1.241h4.212c.916 0 1.197-.325 1.197-1.241V5.453h4.345c2.748 0 4.079 1.005 4.079 3.577 0 2.335-1.05 3.073-2.099 3.517-1.345.561-1.803-.045-2.217 1.7z"/><path id="c" d="M.561 25.02l-.547 3.517c-.088.695.237.96.828 1.05 1.33.177 4.67.413 7.921.413 7.286 0 12.591-2.38 12.591-9.148 0-3.975-1.744-6.96-7.773-8.512l-3.384-.872c-2.29-.591-3.34-1.33-3.34-3.015 0-2.38 2.202-2.837 4.3-2.837 2.838 0 5.72.221 6.872.325 1.197.089 1.508-.044 1.7-1.05l.547-3.428c.088-.68-.237-.96-.828-1.05C18.118.237 15.192 0 11.482 0 3.931 0 .266 3.296.266 8.512c0 4.715 2.556 7.508 7.005 8.646l3.384.872c2.793.738 3.975 1.551 3.975 3.295 0 2.557-1.744 3.015-5.955 3.015-1.922 0-5.262-.28-6.4-.37-1.211-.088-1.522.045-1.714 1.05z"/></defs></svg>