<svg width="200" height="30" viewBox="0 0 200 30" version="1.1" xmlns="http://www.w3.org/2000/svg" xmlns:xlink="http://www.w3.org/1999/xlink">
<title>taz</title>
<desc>Created using Figma</desc>
<g id="Canvas" transform="translate(527 -75)">
<g id="taz">
<g id="layer1">
<g id="Ebene x0020 1">
<g id="path2024">
<use xlink:href="#path0_fill" transform="matrix(3.54331e-05 0 0 3.54331e-05 -527 75)" fill="#BDBDBD"/>
</g>
</g>
</g>
</g>
</g>
<defs>
<path id="path0_fill" fill-rule="evenodd" d="M 3.92924e+06 133980C 3.96936e+06 133980 3.98522e+06 118360 3.98522e+06 75766.9L 3.98522e+06 58121.1C 3.98522e+06 14514.5 3.96936e+06 0 3.92924e+06 0L 3.90072e+06 0C 3.86058e+06 0 3.84474e+06 14514.5 3.84474e+06 58121.1L 3.84474e+06 75766.9C 3.84474e+06 118360 3.86058e+06 133980 3.90072e+06 133980L 3.92924e+06 133980ZM 5.28961e+06 580553C 5.30818e+06 653732 5.3449e+06 684597 5.4027e+06 684597C 5.44179e+06 684597 5.4872e+06 665924 5.51255e+06 617055L 5.51255e+06 648278C 5.51255e+06 740677 5.50833e+06 759350 5.43228e+06 759350L 5.34566e+06 759350C 5.33298e+06 759350 5.32559e+06 768771 5.3277e+06 781244L 5.33298e+06 817563C 5.3351e+06 831048 5.34143e+06 834195 5.35095e+06 836313C 5.39215e+06 844626 5.42911e+06 846667 5.45444e+06 846667C 5.56008e+06 846667 5.63189e+06 819681 5.63189e+06 648278L 5.63189e+06 580553L 5.63189e+06 200509C 5.63189e+06 189049 5.62452e+06 182775 5.61394e+06 182775L 5.56008e+06 182775C 5.55057e+06 182775 5.54423e+06 188035 5.54106e+06 197362L 5.53051e+06 226470C 5.50516e+06 194219 5.46608e+06 176573 5.42699e+06 176573C 5.33405e+06 176573 5.27489e+06 260761 5.27489e+06 424863C 5.27489e+06 490094 5.27966e+06 541376 5.28958e+06 580553L 5.28961e+06 580553ZM 5.45191e+06 580553C 5.44599e+06 584520 5.44042e+06 585906 5.4344e+06 585906C 5.43055e+06 585906 5.42695e+06 584162 5.42361e+06 580553C 5.40957e+06 565117 5.40058e+06 516055 5.40058e+06 422817C 5.40058e+06 301223 5.42171e+06 267959 5.45234e+06 267959C 5.47242e+06 267959 5.49248e+06 279421 5.50939e+06 305384L 5.50939e+06 498679C 5.48133e+06 548769 5.46567e+06 571405 5.45191e+06 580553ZM 3.59441e+06 253460C 3.63033e+06 253460 3.64407e+06 291894 3.64407e+06 402029L 3.54053e+06 410346C 3.54053e+06 278407 3.56589e+06 253460 3.59441e+06 253460ZM 2.51808e+06 253460C 2.554e+06 253460 2.56774e+06 291894 2.56774e+06 402029L 2.46422e+06 410346C 2.46422e+06 278407 2.48957e+06 253460 2.51808e+06 253460ZM 866131 253460C 902030 253460 915772 291894 915772 402029L 812254 410346C 812254 278407 837606 253460 866131 253460ZM 549256 133980C 589388 133980 605219 118360 605219 75766.9L 605219 58121.1C 605219 14514.5 589388 0 549256 0L 520713 0C 480598 0 464755 14514.5 464755 58121.1L 464755 75766.9C 464755 118360 480598 133980 520713 133980L 549256 133980ZM 4.96964e+06 580553L 4.96964e+06 356289C 5.01082e+06 284591 5.02773e+06 269062 5.04569e+06 269062C 5.06365e+06 269062 5.07314e+06 292908 5.07314e+06 389553L 5.07314e+06 580553L 5.07314e+06 713702C 5.07314e+06 727187 5.08263e+06 732360 5.09533e+06 731348L 5.24743e+06 718875C 5.25798e+06 717861 5.26327e+06 710555 5.26327e+06 701229L 5.26327e+06 663808C 5.26327e+06 655489 5.25906e+06 648278 5.24849e+06 646160L 5.19566e+06 634700L 5.19566e+06 580553L 5.19566e+06 376068C 5.19566e+06 235798 5.1587e+06 171403 5.07631e+06 171403C 5.02561e+06 171403 4.98758e+06 191090 4.95168e+06 257616L 4.94429e+06 193205C 4.94322e+06 181743 4.93478e+06 176573 4.92209e+06 177587L 4.79536e+06 189049C 4.78479e+06 190074 4.77951e+06 197362 4.77951e+06 206695L 4.77951e+06 244129C 4.77951e+06 252430 4.78373e+06 259646 4.7943e+06 261775L 4.8471e+06 273223L 4.8471e+06 580553L 4.8471e+06 697070C 4.8471e+06 712673 4.85661e+06 726174 4.87668e+06 726174L 4.94006e+06 726174C 4.95802e+06 726174 4.96964e+06 713702 4.96964e+06 697070L 4.96964e+06 580553ZM 4.73092e+06 580553L 4.73092e+06 195233C 4.73092e+06 181743 4.72141e+06 176573 4.70874e+06 177587L 4.57459e+06 190074C 4.56403e+06 191090 4.55875e+06 198375 4.55875e+06 207720L 4.55875e+06 249285C 4.55875e+06 257616 4.56299e+06 264904 4.57353e+06 266945L 4.60839e+06 274248L 4.60839e+06 552642C 4.60239e+06 563090 4.59692e+06 572328 4.59186e+06 580553C 4.56225e+06 628604 4.54768e+06 639961 4.53234e+06 639961C 4.51902e+06 639961 4.51036e+06 626847 4.50677e+06 580553C 4.50552e+06 564475 4.50488e+06 544430 4.50488e+06 519377L 4.50488e+06 195233C 4.50488e+06 181743 4.49537e+06 176573 4.4827e+06 177587L 4.34857e+06 190074C 4.338e+06 191090 4.33271e+06 198375 4.33271e+06 207720L 4.33271e+06 249285C 4.33271e+06 257616 4.33693e+06 264904 4.3475e+06 266945L 4.38236e+06 274248L 4.38236e+06 532957C 4.38236e+06 549871 4.38289e+06 565773 4.384e+06 580553C 4.39198e+06 687827 4.4293e+06 737534 4.50172e+06 737534C 4.55242e+06 737534 4.59044e+06 717861 4.62635e+06 651333L 4.63375e+06 715728C 4.63479e+06 727187 4.64325e+06 732360 4.65592e+06 731348L 4.78267e+06 719888C 4.79325e+06 718875 4.79852e+06 711569 4.79852e+06 702243L 4.79852e+06 664822C 4.79852e+06 656503 4.7943e+06 649292 4.78373e+06 647176L 4.73092e+06 635802L 4.73092e+06 580553ZM 4.09505e+06 580553L 4.09505e+06 272119L 4.0507e+06 272119C 4.04015e+06 272119 4.03274e+06 265918 4.03274e+06 254474L 4.03274e+06 200509C 4.03274e+06 189049 4.04015e+06 182775 4.0507e+06 182775L 4.09505e+06 182775L 4.12146e+06 65424.5C 4.12465e+06 50910 4.13098e+06 43606.6 4.14259e+06 41489L 4.19328e+06 30121.6C 4.21018e+06 25960.8 4.21759e+06 37332.7 4.21759e+06 47778.7L 4.21759e+06 182775L 4.29893e+06 182775C 4.3095e+06 182775 4.31688e+06 189049 4.31688e+06 200509L 4.31688e+06 254474C 4.31688e+06 265918 4.3095e+06 272119 4.29893e+06 272119L 4.21759e+06 272119L 4.21759e+06 580553L 4.21759e+06 598382C 4.21759e+06 636829 4.22288e+06 641988 4.23343e+06 641988C 4.24398e+06 641988 4.25774e+06 636829 4.27886e+06 621197C 4.28731e+06 615014 4.29785e+06 616027 4.3042e+06 625356L 4.32426e+06 653461C 4.33061e+06 661763 4.33061e+06 670093 4.32534e+06 678395C 4.32215e+06 683583 4.31371e+06 691884 4.3095e+06 696057C 4.28307e+06 722017 4.24504e+06 737534 4.19963e+06 737534C 4.13626e+06 737534 4.09505e+06 701229 4.09505e+06 604565L 4.09505e+06 580553ZM 3.97887e+06 580553L 3.97887e+06 195233C 3.97887e+06 181743 3.96936e+06 176573 3.95669e+06 177587L 3.8046e+06 190074C 3.79403e+06 191090 3.78874e+06 198375 3.78874e+06 207720L 3.78874e+06 245143C 3.78874e+06 253460 3.79296e+06 260761 3.80353e+06 262788L 3.85635e+06 274248L 3.85635e+06 580553L 3.85635e+06 713702C 3.85635e+06 727187 3.86586e+06 732360 3.87855e+06 731348L 4.03064e+06 718875C 4.04119e+06 717861 4.04647e+06 710555 4.04647e+06 701229L 4.04647e+06 663808C 4.04647e+06 655489 4.04225e+06 648278 4.03168e+06 646160L 3.97887e+06 634700L 3.97887e+06 580553ZM 3.54651e+06 580553C 3.54229e+06 560869 3.54053e+06 536381 3.54053e+06 506904L 3.54053e+06 498679L 3.74545e+06 478900C 3.76023e+06 477888 3.76763e+06 471612 3.76763e+06 460155L 3.76763e+06 422817C 3.76763e+06 232653 3.71482e+06 171403 3.59757e+06 171403C 3.48456e+06 171403 3.41378e+06 236828 3.41378e+06 458127C 3.41378e+06 506726 3.4171e+06 547100 3.42321e+06 580553C 3.44782e+06 715550 3.51758e+06 737534 3.59546e+06 737534C 3.65777e+06 737534 3.73066e+06 701229 3.76869e+06 649292C 3.77713e+06 637843 3.77713e+06 630544 3.76974e+06 622225L 3.74967e+06 598382C 3.74439e+06 592103 3.74016e+06 590064 3.73381e+06 590064C 3.71165e+06 590064 3.68208e+06 641988 3.61237e+06 641988C 3.57515e+06 641988 3.55538e+06 621943 3.54651e+06 580648L 3.54651e+06 580553ZM 3.2298e+06 580553L 3.37049e+06 306393C 3.37788e+06 294025 3.38315e+06 277393 3.38315e+06 256591L 3.38315e+06 200509C 3.38315e+06 189049 3.37576e+06 182775 3.3652e+06 182775L 3.09269e+06 182775C 3.08106e+06 182775 3.07473e+06 190074 3.07473e+06 200509L 3.07473e+06 255577C 3.07473e+06 266945 3.08212e+06 273223 3.09269e+06 273223L 3.25428e+06 273223L 3.09609e+06 580553L 3.08424e+06 603565C 3.07579e+06 617055 3.07156e+06 628499 3.07156e+06 643013L 3.07156e+06 708516C 3.07156e+06 719888 3.07895e+06 726174 3.08951e+06 726174L 3.36625e+06 726174C 3.37788e+06 726174 3.38421e+06 718875 3.38421e+06 708516L 3.38421e+06 653461C 3.38421e+06 641988 3.37682e+06 635802 3.36625e+06 635802L 3.20146e+06 635802L 3.2298e+06 580553ZM 3.04613e+06 580553C 3.04617e+06 578602 3.0462e+06 576579 3.0462e+06 574446C 3.0462e+06 399911 2.85082e+06 419675 2.85082e+06 315814C 2.85082e+06 284591 2.86665e+06 262788 2.89939e+06 262788C 2.92263e+06 262788 2.94586e+06 270092 2.97862e+06 287738C 2.99023e+06 294025 2.99868e+06 290880 3.00397e+06 282550L 3.02824e+06 240984C 3.03353e+06 231640 3.03248e+06 223327 3.02404e+06 217049C 2.98284e+06 186931 2.93637e+06 171403 2.88565e+06 171403C 2.78638e+06 171403 2.72616e+06 231640 2.72616e+06 326172C 2.72616e+06 494162 2.91398e+06 482419 2.91933e+06 580553C 2.91942e+06 581943 2.91947e+06 583419 2.91947e+06 584892C 2.91947e+06 620197 2.90151e+06 644117 2.86771e+06 644117C 2.83814e+06 644117 2.81489e+06 637843 2.78003e+06 619170C 2.76525e+06 610853 2.75574e+06 615014 2.74942e+06 626381L 2.72933e+06 660749C 2.72194e+06 673135 2.72406e+06 684597 2.73568e+06 691884C 2.77476e+06 719888 2.82123e+06 737534 2.87826e+06 737534C 2.98172e+06 737534 3.04363e+06 676831 3.04613e+06 580648L 3.04613e+06 580553ZM 2.47019e+06 580553C 2.46597e+06 560869 2.46422e+06 536381 2.46422e+06 506904L 2.46422e+06 498679L 2.66912e+06 478900C 2.68391e+06 477888 2.69131e+06 471612 2.69131e+06 460155L 2.69131e+06 422817C 2.69131e+06 232653 2.63851e+06 171403 2.52127e+06 171403C 2.40824e+06 171403 2.33748e+06 236828 2.33748e+06 458127C 2.33748e+06 506726 2.3408e+06 547100 2.34688e+06 580553C 2.37149e+06 715550 2.44127e+06 737534 2.51914e+06 737534C 2.58146e+06 737534 2.65434e+06 701229 2.69237e+06 649292C 2.70082e+06 637843 2.70082e+06 630544 2.69342e+06 622225L 2.67335e+06 598382C 2.66808e+06 592103 2.66384e+06 590064 2.65753e+06 590064C 2.63534e+06 590064 2.60577e+06 641988 2.53604e+06 641988C 2.49882e+06 641988 2.47906e+06 621943 2.47019e+06 580648L 2.47019e+06 580553ZM 2.06579e+06 580553C 2.05175e+06 565117 2.04278e+06 516055 2.04278e+06 422817C 2.04278e+06 301223 2.0639e+06 267959 2.09454e+06 267959C 2.1146e+06 267959 2.13468e+06 279421 2.15158e+06 305384L 2.15158e+06 498679C 2.12351e+06 548769 2.10786e+06 571405 2.09409e+06 580553C 2.08819e+06 584520 2.08263e+06 585906 2.07658e+06 585906C 2.07274e+06 585906 2.06913e+06 584162 2.06579e+06 580553ZM 2.2741e+06 580553L 2.2741e+06 200509C 2.2741e+06 189049 2.26669e+06 182775 2.25615e+06 182775L 2.20228e+06 182775C 2.19277e+06 182775 2.18642e+06 188035 2.18326e+06 197362L 2.17271e+06 226470C 2.14734e+06 194219 2.10827e+06 176573 2.06918e+06 176573C 1.97624e+06 176573 1.91709e+06 260761 1.91709e+06 424863C 1.91709e+06 490094 1.92184e+06 541376 1.93178e+06 580553C 1.95037e+06 653732 1.98709e+06 684597 2.0449e+06 684597C 2.08397e+06 684597 2.12938e+06 665924 2.15475e+06 617055L 2.15475e+06 648278C 2.15475e+06 740677 2.15052e+06 759350 2.07446e+06 759350L 1.98785e+06 759350C 1.97517e+06 759350 1.96779e+06 768771 1.9699e+06 781244L 1.97517e+06 817563C 1.9773e+06 831048 1.98363e+06 834195 1.99314e+06 836313C 2.03433e+06 844626 2.07129e+06 846667 2.09666e+06 846667C 2.20228e+06 846667 2.2741e+06 819681 2.2741e+06 648278L 2.2741e+06 580553ZM 1.62259e+06 580553C 1.62245e+06 576667 1.62239e+06 572612 1.62239e+06 568260C 1.62239e+06 501732 1.65092e+06 478900 1.69105e+06 478900L 1.71535e+06 478900L 1.71535e+06 558934C 1.71099e+06 566874 1.70689e+06 574074 1.70302e+06 580553C 1.674e+06 629424 1.658e+06 639961 1.64774e+06 639961C 1.63316e+06 639961 1.62396e+06 624996 1.62259e+06 580553ZM 1.83788e+06 580553L 1.83788e+06 335501C 1.83788e+06 232653 1.7861e+06 172417 1.67625e+06 172417C 1.60549e+06 172417 1.54107e+06 210865 1.50093e+06 263802C 1.49248e+06 275262 1.49354e+06 287738 1.50303e+06 295039L 1.53473e+06 321002C 1.54634e+06 331344 1.55479e+06 327188 1.56536e+06 315814C 1.59282e+06 284591 1.61923e+06 262788 1.65619e+06 262788C 1.69634e+06 262788 1.71535e+06 287738 1.71535e+06 342804L 1.71535e+06 393714L 1.69105e+06 393714C 1.60257e+06 393714 1.49835e+06 435027 1.49775e+06 580553C 1.49775e+06 580914 1.49775e+06 581373 1.49775e+06 581749C 1.49775e+06 687739 1.54318e+06 737534 1.61923e+06 737534C 1.68154e+06 737534 1.71218e+06 691884 1.73436e+06 654475L 1.74069e+06 715728C 1.74175e+06 727187 1.7502e+06 732360 1.76287e+06 731348L 1.88962e+06 719888C 1.90017e+06 718875 1.90546e+06 711569 1.90546e+06 702243L 1.90546e+06 664822C 1.90546e+06 656503 1.90124e+06 649292 1.89066e+06 647176L 1.83788e+06 635802L 1.83788e+06 580553ZM 1.24319e+06 580553L 1.24319e+06 272119L 1.19884e+06 272119C 1.18827e+06 272119 1.18088e+06 265918 1.18088e+06 254474L 1.18088e+06 200509C 1.18088e+06 189049 1.18827e+06 182775 1.19884e+06 182775L 1.24319e+06 182775L 1.2696e+06 65424.5C 1.27278e+06 50910 1.27911e+06 43606.6 1.29073e+06 41489L 1.34143e+06 30121.6C 1.35834e+06 25960.8 1.36572e+06 37332.7 1.36572e+06 47778.7L 1.36572e+06 182775L 1.45551e+06 182775C 1.46607e+06 182775 1.47346e+06 189049 1.47346e+06 200509L 1.47346e+06 254474C 1.47346e+06 265918 1.46607e+06 272119 1.45551e+06 272119L 1.36572e+06 272119L 1.36572e+06 580553L 1.36572e+06 598382C 1.36572e+06 636829 1.371e+06 641988 1.38157e+06 641988C 1.39214e+06 641988 1.40586e+06 636829 1.42699e+06 621197C 1.43543e+06 615014 1.44599e+06 616027 1.45234e+06 625356L 1.4724e+06 653461C 1.47875e+06 661763 1.47875e+06 670093 1.47346e+06 678395C 1.47029e+06 683583 1.46184e+06 691884 1.45762e+06 696057C 1.43121e+06 722017 1.39319e+06 737534 1.34777e+06 737534C 1.2844e+06 737534 1.24319e+06 701229 1.24319e+06 604565L 1.24319e+06 580553ZM 818223 580553C 814006 560869 812249 536381 812249 506904L 812249 498679L 1.01715e+06 478900C 1.03195e+06 477888 1.03934e+06 471612 1.03934e+06 460155L 1.03934e+06 422817C 1.03934e+06 232653 986543 171403 869298 171403C 756270 171403 685496 236828 685496 458127C 685496 506726 688821 547100 694930 580553C 719521 715550 789280 737534 867169 737534C 929494 737534 1.00237e+06 701229 1.0404e+06 649292C 1.04885e+06 637843 1.04885e+06 630544 1.04146e+06 622225L 1.02139e+06 598382C 1.01611e+06 592103 1.01188e+06 590064 1.00554e+06 590064C 983368 590064 953785 641988 884067 641988C 846854 641988 827090 621943 818223 580648L 818223 580553ZM 598893 580553L 598893 195233C 598893 181743 589384 176573 576701 177587L 424613 190074C 414048 191090 408758 198375 408758 207720L 408758 245143C 408758 253460 412991 260761 423556 262788L 476361 274248L 476361 580553L 476361 713702C 476361 727187 485881 732360 498551 731348L 650639 718875C 661204 717861 666482 710555 666482 701229L 666482 663808C 666482 655489 662261 648278 651695 646160L 598893 634700L 598893 580553ZM 133271 580553C 128993 549783 126745 505518 126745 444624C 126745 303356 149993 267959 180617 267959C 200678 267959 221797 278407 237652 296053L 237652 552642C 231649 563090 226161 572328 221108 580553C 191511 628604 176936 639961 161601 639961C 148772 639961 139114 622867 133271 580648L 133271 580553ZM 360173 580553L 360173 18659.6C 360173 5170.07 350680 0 337997 1013.74L 185893 13489.5C 175343 14514.5 170052 21802.2 170052 31146.6L 170052 68555.9C 170052 76870.8 174271 84086.4 184836 86201.7L 237652 97675L 237652 204667C 219693 189049 192230 176573 155269 176573C 62315.7 176573 0 260761 0 459141C 0 506532 2387.92 546724 7060.14 580553C 23018.7 695969 65625 737534 130973 737534C 181676 737534 219693 717861 255598 651333L 263002 715728C 264059 727187 272496 732360 285179 731348L 411932 719888C 422498 718875 427774 711569 427774 702243L 427774 664822C 427774 656503 423556 649292 412991 647176L 360173 635802L 360173 580553Z"/>
</defs>
</svg>
