<svg width="116" height="30" viewBox="0 0 116 30" xmlns="http://www.w3.org/2000/svg" xmlns:xlink="http://www.w3.org/1999/xlink"><title>welt</title><desc>Created using Figma</desc><use xlink:href="#a" fill="#BDBDBD"/><defs><path id="a" d="M99.606 6.905h-8.42V.624h23.885v6.28h-8.4v22.473h-7.065V6.905zM75.784.624h7.066v22.47h12.29v6.282H75.784V.624zm-5.04 25.125l-.09.084C67.562 28.676 63.81 30 58.845 30c-8.746 0-14.623-5.993-14.623-14.912C44.222 6.064 49.947 0 58.467 0c8.16 0 13.661 6.016 13.69 14.97 0 .882-.059 1.936-.146 2.582H51.847l.069.334c.866 3.828 3.413 5.851 7.366 5.851 2.566 0 5.004-.912 7.05-2.638l.09-.078 4.323 4.727zm-6-13.419l-.072-.328c-.802-3.697-2.968-5.652-6.264-5.652-3.437 0-5.674 1.955-6.469 5.653l-.07.327h12.875zm-33.132 8.98L25.972.625h-7.618l-5.64 20.645L7.343.624H0l8.119 28.753h8.525l5.468-18.599 5.469 18.599h8.525L44.224.624h-7.24l-5.372 20.687z"/></defs></svg>