<svg width="269" height="30" viewBox="0 0 269 30" xmlns="http://www.w3.org/2000/svg" xmlns:xlink="http://www.w3.org/1999/xlink"><title>wetter</title><desc>Created using Figma</desc><use xlink:href="#a" fill="#BDBDBD"/><defs><path id="a" d="M6.918 29.308L0 6.667h8.68l3.647 16.037h.063l3.962-16.037h9.497l3.9 15.975h.062l3.963-15.975h7.547l-7.107 22.641h-9.371l-4.088-15.786h-.063l-4.403 15.786H6.92zm44.717-9.622c-.063 2.956.692 5.471 3.9 5.471 2.39 0 3.899-1.132 4.213-3.27h7.925c-.252 2.956-2.138 5.031-4.277 6.29-2.012 1.257-4.528 1.76-7.17 1.76-9.056 0-12.641-3.9-12.641-12.767 0-7.17 5.346-11.258 12.201-11.258 9.183 0 12.138 5.283 12.138 13.71H51.635v.064zm8.113-4.592c0-1.195-.377-2.452-1.006-3.396-.692-.943-1.698-1.51-2.956-1.446-2.956.125-3.71 2.264-3.9 4.842h7.862zm14.843-8.427V3.27L83.145 0v6.667h4.968v5.409h-4.968v8.993c0 .566-.378 3.522 1.635 3.522 1.132 0 2.327 0 3.27-.126v5.095c-1.95.377-3.333.44-4.59.44-5.787 0-9.31-.818-8.869-7.736V12.076H70.19v-5.41h4.402zm19.812 0V3.27L102.956 0v6.667h4.969v5.409h-4.969v8.993c0 .566-.377 3.522 1.635 3.522 1.132 0 2.327 0 3.271-.126v5.095c-1.95.377-3.334.44-4.592.44-5.786 0-9.308-.818-8.867-7.736V12.076H90v-5.41h4.403zm24.465 13.019c-.063 2.956.692 5.471 3.899 5.471 2.39 0 3.9-1.132 4.214-3.27h7.925c-.252 2.956-2.139 5.031-4.277 6.29-2.013 1.257-4.528 1.76-7.17 1.76-9.056 0-12.641-3.9-12.641-12.767 0-7.17 5.346-11.258 12.201-11.258 9.182 0 12.138 5.283 12.138 13.71h-16.289v.064zm8.113-4.592c0-1.195-.377-2.452-1.006-3.396-.692-.943-1.698-1.51-2.956-1.446-2.956.125-3.711 2.264-3.9 4.842h7.862zm21.384-4.213h.063c1.006-3.774 3.773-5.032 7.547-4.906v7.232c-.629-.062-1.195-.062-1.824-.062-4.465.063-5.975 2.704-5.849 7.044v9.056h-8.554v-16.73c0-2.012-.062-3.396-.251-5.785h8.679l.189 4.15zm8.616 18.427v-6.792h8.113v6.792h-8.113zm28.805-14.717c0-1.132-.189-2.012-.692-2.641-.503-.63-1.383-1.007-2.641-1.007-3.082 0-3.271 4.717-3.271 7.044 0 2.328.189 7.044 3.271 7.044 2.956-.251 3.333-2.515 3.333-4.528h8.554c0 3.208-1.384 5.535-3.522 7.107-2.139 1.51-5.032 2.327-8.051 2.39-8.553 0-12.453-4.15-12.453-12.013 0-8.239 5.661-12.012 12.453-12.012 5.724-.063 11.132 2.138 11.573 8.616h-8.554zm38.428 3.396c0 8.365-6.101 12.013-13.145 12.013s-13.144-3.648-13.144-12.013c0-8.364 6.1-12.012 13.144-12.012 7.044 0 13.145 3.648 13.145 12.012zm-13.208 7.044c3.585 0 4.403-3.836 4.403-7.044 0-3.207-.755-7.044-4.403-7.044-3.585 0-4.402 3.837-4.402 7.044.063 3.208.817 7.044 4.402 7.044zm26.038-14.59h.063c1.572-3.083 4.528-4.277 7.924-4.277 2.768 0 5.849 1.446 6.793 4.213 1.509-2.704 4.654-4.213 8.05-4.34 4.843 0 8.491 3.145 8.491 8.177V29.37h-8.554V15.975c-.063-2.201-.629-4.591-3.27-4.591-4.214 0-3.711 4.654-3.711 4.905v12.956h-8.553v-13.27c-.063-2.201-.629-4.591-3.271-4.591-4.214 0-3.71 4.654-3.71 4.905v12.956h-8.554v-16.73c0-2.012-.063-3.396-.251-5.785h8.49l.063 3.71z"/></defs></svg>